<svg width="19" height="18" viewBox="0 0 19 18" fill="none" xmlns="http://www.w3.org/2000/svg">
<path d="M11.259 14.1753C14.0523 14.1753 15.4494 14.1753 16.3168 13.3072C17.1849 12.4398 17.1849 11.0427 17.1849 8.2494C17.1849 5.45606 17.1849 4.05903 16.3168 3.19162C15.4494 2.32347 14.0523 2.32347 11.259 2.32347H8.29604C5.50271 2.32347 4.10567 2.32347 3.23827 3.19162C2.37012 4.05903 2.37012 5.45606 2.37012 8.2494C2.37012 11.0427 2.37012 12.4398 3.23827 13.3072C3.72197 13.7916 4.37012 14.0057 5.33308 14.0998" stroke="#D9D8D8" stroke-width="1.48148" stroke-linecap="round" stroke-linejoin="round"/>
<path d="M11.2588 14.1753C10.3432 14.1753 9.33434 14.5457 8.4136 15.0235C6.9336 15.7916 6.1936 16.176 5.82916 15.9309C5.46471 15.6864 5.5336 14.9272 5.67212 13.4094L5.70323 13.0642" stroke="#D9D8D8" stroke-width="1.48148" stroke-linecap="round"/>
</svg>
