<svg width="16" height="16" viewBox="0 0 16 16" fill="none" xmlns="http://www.w3.org/2000/svg">
<path d="M9.33301 12.6568C11.847 12.6568 13.1043 12.6568 13.885 11.8754C14.6663 11.0948 14.6663 9.83745 14.6663 7.32345C14.6663 4.80945 14.6663 3.55211 13.885 2.77145C13.1043 1.99011 11.847 1.99011 9.33301 1.99011H6.66634C4.15234 1.99011 2.89501 1.99011 2.11434 2.77145C1.33301 3.55211 1.33301 4.80945 1.33301 7.32345C1.33301 9.83745 1.33301 11.0948 2.11434 11.8754C2.54967 12.3114 3.13301 12.5041 3.99967 12.5888" stroke="#D9D8D8" stroke-width="1.33333" stroke-linecap="round" stroke-linejoin="round"/>
<path d="M9.33252 12.6568C8.50852 12.6568 7.60052 12.9901 6.77185 13.4201C5.43985 14.1115 4.77385 14.4575 4.44585 14.2368C4.11785 14.0168 4.17985 13.3335 4.30452 11.9675L4.33252 11.6568" stroke="#D9D8D8" stroke-width="1.33333" stroke-linecap="round"/>
</svg>
