<svg width="20" height="20" viewBox="0 0 20 20" fill="none" xmlns="http://www.w3.org/2000/svg">
<g clip-path="url(#clip0_249_621)">
<path d="M19.4128 11.9916C19.7908 11.4798 20 10.8527 20 10.2002C20 9.16501 19.4353 8.18515 18.5263 7.63874C18.2922 7.49809 18.0258 7.42407 17.7545 7.42433H12.359L12.494 4.59081C12.5255 3.90607 12.2893 3.2559 11.8303 2.76021C11.605 2.51589 11.3332 2.3215 11.0318 2.18905C10.7303 2.0566 10.4055 1.98891 10.0775 1.99016C8.9075 1.99016 7.8725 2.7971 7.562 3.95218L5.62925 11.1224H2.72C2.32175 11.1224 2 11.4521 2 11.8602V20.2524C2 20.6604 2.32175 20.9901 2.72 20.9901H16.2493C16.4563 20.9901 16.6588 20.9486 16.8455 20.8656C17.9165 20.3976 18.6073 19.3255 18.6073 18.1359C18.6073 17.8454 18.5668 17.5595 18.4858 17.2828C18.8638 16.771 19.073 16.1439 19.073 15.4914C19.073 15.2009 19.0325 14.915 18.9515 14.6384C19.3295 14.1265 19.5388 13.4994 19.5388 12.847C19.5343 12.5565 19.4938 12.2683 19.4128 11.9916ZM3.62 19.3302V12.7824H5.4425V19.3302H3.62ZM17.939 11.1916L17.4463 11.6296L17.759 12.2152C17.862 12.4082 17.9155 12.6248 17.9143 12.8447C17.9143 13.2251 17.7523 13.587 17.4733 13.836L16.9805 14.2741L17.2933 14.8597C17.3963 15.0526 17.4497 15.2692 17.4485 15.4891C17.4485 15.8695 17.2865 16.2315 17.0075 16.4805L16.5148 16.9186L16.8275 17.5042C16.9305 17.6971 16.984 17.9137 16.9828 18.1336C16.9828 18.65 16.6858 19.1157 16.2268 19.3278H6.8825V12.7086L9.12125 4.39715C9.17898 4.18412 9.3029 3.99617 9.47424 3.86179C9.64558 3.72741 9.85499 3.65392 10.0708 3.65246C10.2418 3.65246 10.4105 3.70318 10.5455 3.80693C10.7683 3.97754 10.8875 4.23576 10.874 4.51012L10.658 9.08432H17.732C18.1325 9.33562 18.38 9.75984 18.38 10.2002C18.38 10.5806 18.218 10.9403 17.939 11.1916Z" fill="#D6CCC6"/>
</g>
<defs>
<clipPath id="clip0_249_621">
<rect width="20" height="20" fill="white" transform="translate(0 -0.00985718)"/>
</clipPath>
</defs>
</svg>
