<svg width="18" height="18" viewBox="0 0 18 18" fill="none" xmlns="http://www.w3.org/2000/svg">
<g clip-path="url(#clip0_249_705)">
<path d="M17.4454 10.4652C17.8024 9.98029 18 9.38619 18 8.76806C18 7.78736 17.4666 6.85907 16.6081 6.34142C16.3871 6.20817 16.1355 6.13804 15.8793 6.13829H10.7835L10.911 3.4539C10.9408 2.8052 10.7176 2.18925 10.2841 1.71965C10.0714 1.48819 9.81472 1.30403 9.53 1.17855C9.24527 1.05307 8.93854 0.988944 8.62875 0.990128C7.52375 0.990128 6.54625 1.7546 6.253 2.84888L4.42762 9.64174H1.68C1.30387 9.64174 1 9.95408 1 10.3407V18.2912C1 18.6778 1.30387 18.9901 1.68 18.9901H14.4576C14.6531 18.9901 14.8444 18.9508 15.0208 18.8722C16.0322 18.4288 16.6846 17.4131 16.6846 16.2861C16.6846 16.0109 16.6464 15.74 16.5699 15.4779C16.9269 14.993 17.1245 14.3989 17.1245 13.7808C17.1245 13.5056 17.0863 13.2347 17.0098 12.9726C17.3668 12.4878 17.5644 11.8936 17.5644 11.2755C17.5601 11.0003 17.5219 10.7273 17.4454 10.4652ZM2.53 17.4175V11.2144H4.25125V17.4175H2.53ZM16.0535 9.70727L15.5881 10.1223L15.8835 10.6771C15.9808 10.8598 16.0313 11.065 16.0301 11.2733C16.0301 11.6337 15.8771 11.9766 15.6136 12.2125L15.1482 12.6275L15.4436 13.1823C15.5409 13.3651 15.5914 13.5703 15.5903 13.7786C15.5903 14.139 15.4373 14.4819 15.1737 14.7178L14.7084 15.1328L15.0037 15.6876C15.1011 15.8704 15.1515 16.0756 15.1504 16.2839C15.1504 16.7731 14.8699 17.2144 14.4364 17.4153H5.61125V11.1445L7.72563 3.27043C7.78015 3.06861 7.89718 2.89056 8.059 2.76325C8.22082 2.63595 8.4186 2.56632 8.62238 2.56494C8.78388 2.56494 8.94325 2.61299 9.07075 2.71128C9.28113 2.87291 9.39375 3.11754 9.381 3.37746L9.177 7.71091H15.858C16.2363 7.94899 16.47 8.35088 16.47 8.76806C16.47 9.12845 16.317 9.46919 16.0535 9.70727Z" fill="#D6CCC6"/>
</g>
<defs>
<clipPath id="clip0_249_705">
<rect width="18" height="18" fill="white" transform="translate(0 -0.0098877)"/>
</clipPath>
</defs>
</svg>
