<svg width="20" height="20" viewBox="0 0 20 20" fill="none" xmlns="http://www.w3.org/2000/svg">
<g clip-path="url(#clip0_249_663)">
<path d="M17.478 8.93882C17.814 8.48087 18 7.91977 18 7.33598C18 6.40976 17.498 5.53305 16.69 5.04415C16.482 4.91831 16.2452 4.85208 16.004 4.85231H11.208L11.328 2.31706C11.356 1.70439 11.146 1.12267 10.738 0.679152C10.5378 0.460547 10.2962 0.286617 10.0282 0.168111C9.76026 0.0496043 9.47157 -0.0109608 9.18 -0.00984195C8.14 -0.00984195 7.22 0.712157 6.944 1.74565L5.226 8.16113H2.64C2.286 8.16113 2 8.45611 2 8.82124V16.33C2 16.6952 2.286 16.9901 2.64 16.9901H14.666C14.85 16.9901 15.03 16.953 15.196 16.8787C16.148 16.46 16.762 15.5008 16.762 14.4363C16.762 14.1764 16.726 13.9206 16.654 13.6731C16.99 13.2151 17.176 12.654 17.176 12.0702C17.176 11.8103 17.14 11.5545 17.068 11.307C17.404 10.849 17.59 10.2879 17.59 9.70414C17.586 9.44422 17.55 9.18637 17.478 8.93882ZM3.44 15.5049V9.64638H5.06V15.5049H3.44ZM16.168 8.22301L15.73 8.61495L16.008 9.13892C16.0996 9.31152 16.1471 9.50532 16.146 9.70208C16.146 10.0424 16.002 10.3663 15.754 10.5891L15.316 10.981L15.594 11.505C15.6856 11.6776 15.7331 11.8714 15.732 12.0682C15.732 12.4085 15.588 12.7324 15.34 12.9552L14.902 13.3471L15.18 13.8711C15.2716 14.0437 15.3191 14.2375 15.318 14.4343C15.318 14.8963 15.054 15.313 14.646 15.5028H6.34V9.58037L8.33 2.14378C8.38131 1.95317 8.49147 1.78501 8.64377 1.66478C8.79607 1.54454 8.98221 1.47879 9.174 1.47748C9.326 1.47748 9.476 1.52286 9.596 1.61569C9.794 1.76834 9.9 1.99938 9.888 2.24486L9.696 6.33756H15.984C16.34 6.56241 16.56 6.94198 16.56 7.33598C16.56 7.67635 16.416 7.99816 16.168 8.22301Z" fill="#D6CCC6"/>
</g>
<defs>
<clipPath id="clip0_249_663">
<rect width="20" height="20" fill="white" transform="translate(0 -0.00985718)"/>
</clipPath>
</defs>
</svg>
