<svg width="10" height="10" viewBox="0 0 10 10" fill="none" xmlns="http://www.w3.org/2000/svg">
<mask id="mask0_674_494" style="mask-type:alpha" maskUnits="userSpaceOnUse" x="0" y="0" width="10" height="10">
<rect x="0.575928" y="0.911621" width="8.528" height="8.528" fill="#D9D9D9"/>
</mask>
<g mask="url(#mask0_674_494)">
<path d="M2.35257 8.37376C2.15714 8.37376 1.98984 8.30417 1.85067 8.165C1.71149 8.02583 1.64191 7.85852 1.64191 7.66309V2.68842C1.64191 2.49299 1.71149 2.32569 1.85067 2.18651C1.98984 2.04734 2.15714 1.97776 2.35257 1.97776H3.84497C3.92788 1.76456 4.05817 1.59281 4.23584 1.46252C4.41351 1.33223 4.61486 1.26709 4.83991 1.26709C5.06495 1.26709 5.26631 1.33223 5.44397 1.46252C5.62164 1.59281 5.75193 1.76456 5.83484 1.97776H7.32724C7.52267 1.97776 7.68998 2.04734 7.82915 2.18651C7.96832 2.32569 8.03791 2.49299 8.03791 2.68842V7.66309C8.03791 7.85852 7.96832 8.02583 7.82915 8.165C7.68998 8.30417 7.52267 8.37376 7.32724 8.37376H2.35257ZM4.83991 2.42192C4.9169 2.42192 4.98056 2.39675 5.0309 2.34641C5.08124 2.29608 5.10641 2.23241 5.10641 2.15542C5.10641 2.07843 5.08124 2.01477 5.0309 1.96443C4.98056 1.91409 4.9169 1.88892 4.83991 1.88892C4.76292 1.88892 4.69925 1.91409 4.64892 1.96443C4.59858 2.01477 4.57341 2.07843 4.57341 2.15542C4.57341 2.23241 4.59858 2.29608 4.64892 2.34641C4.69925 2.39675 4.76292 2.42192 4.83991 2.42192ZM2.35257 7.25446C2.67237 6.94058 3.04399 6.69333 3.46743 6.5127C3.89087 6.33207 4.34836 6.24176 4.83991 6.24176C5.33145 6.24176 5.78894 6.33207 6.21238 6.5127C6.63582 6.69333 7.00744 6.94058 7.32724 7.25446V2.68842H2.35257V7.25446ZM4.83991 5.53109C5.1834 5.53109 5.47655 5.40968 5.71936 5.16687C5.96217 4.92406 6.08357 4.63091 6.08357 4.28742C6.08357 3.94393 5.96217 3.65078 5.71936 3.40797C5.47655 3.16516 5.1834 3.04376 4.83991 3.04376C4.49642 3.04376 4.20327 3.16516 3.96046 3.40797C3.71765 3.65078 3.59624 3.94393 3.59624 4.28742C3.59624 4.63091 3.71765 4.92406 3.96046 5.16687C4.20327 5.40968 4.49642 5.53109 4.83991 5.53109ZM3.06324 7.66309H6.61657V7.57426C6.36784 7.36698 6.09246 7.21152 5.79042 7.10788C5.48839 7.00424 5.17155 6.95242 4.83991 6.95242C4.50826 6.95242 4.19142 7.00424 3.88939 7.10788C3.58736 7.21152 3.31197 7.36698 3.06324 7.57426V7.66309ZM4.83991 4.82042C4.69185 4.82042 4.566 4.7686 4.46237 4.66496C4.35873 4.56133 4.30691 4.43548 4.30691 4.28742C4.30691 4.13937 4.35873 4.01352 4.46237 3.90988C4.566 3.80624 4.69185 3.75442 4.83991 3.75442C4.98796 3.75442 5.11381 3.80624 5.21745 3.90988C5.32109 4.01352 5.37291 4.13937 5.37291 4.28742C5.37291 4.43548 5.32109 4.56133 5.21745 4.66496C5.11381 4.7686 4.98796 4.82042 4.83991 4.82042Z" fill="#454545"/>
</g>
</svg>
