<svg width="10" height="10" viewBox="0 0 10 10" fill="none" xmlns="http://www.w3.org/2000/svg">
<mask id="mask0_674_299" style="mask-type:alpha" maskUnits="userSpaceOnUse" x="0" y="-1" width="10" height="11">
<rect x="0.426758" y="-0.00805664" width="9.29666" height="9.048" fill="#D9D9D9"/>
</mask>
<g mask="url(#mask0_674_299)">
<path d="M2.36359 7.9089C2.15054 7.9089 1.96816 7.83507 1.81644 7.68741C1.66473 7.53975 1.58887 7.36225 1.58887 7.1549V1.8769C1.58887 1.66955 1.66473 1.49204 1.81644 1.34438C1.96816 1.19673 2.15054 1.1229 2.36359 1.1229H3.99051C4.08089 0.896697 4.22292 0.71448 4.4166 0.576247C4.61029 0.438013 4.82979 0.368896 5.07512 0.368896C5.32045 0.368896 5.53995 0.438013 5.73363 0.576247C5.92731 0.71448 6.06935 0.896697 6.15973 1.1229H7.78665C7.9997 1.1229 8.18208 1.19673 8.3338 1.34438C8.48551 1.49204 8.56137 1.66955 8.56137 1.8769V7.1549C8.56137 7.36225 8.48551 7.53975 8.3338 7.68741C8.18208 7.83507 7.9997 7.9089 7.78665 7.9089H2.36359ZM5.07512 1.59415C5.15905 1.59415 5.22845 1.56744 5.28333 1.51403C5.3382 1.46063 5.36564 1.39308 5.36564 1.3114C5.36564 1.22971 5.3382 1.16217 5.28333 1.10876C5.22845 1.05535 5.15905 1.02865 5.07512 1.02865C4.99119 1.02865 4.92179 1.05535 4.86691 1.10876C4.81204 1.16217 4.7846 1.22971 4.7846 1.3114C4.7846 1.39308 4.81204 1.46063 4.86691 1.51403C4.92179 1.56744 4.99119 1.59415 5.07512 1.59415ZM2.36359 6.72135C2.71222 6.38833 3.11733 6.126 3.57894 5.93436C4.04054 5.74272 4.53927 5.6469 5.07512 5.6469C5.61097 5.6469 6.1097 5.74272 6.5713 5.93436C7.03291 6.126 7.43802 6.38833 7.78665 6.72135V1.8769H2.36359V6.72135ZM5.07512 4.8929C5.44957 4.8929 5.76914 4.76409 6.03384 4.50647C6.29854 4.24886 6.43088 3.93783 6.43088 3.5734C6.43088 3.20896 6.29854 2.89794 6.03384 2.64032C5.76914 2.38271 5.44957 2.2539 5.07512 2.2539C4.70067 2.2539 4.3811 2.38271 4.1164 2.64032C3.8517 2.89794 3.71935 3.20896 3.71935 3.5734C3.71935 3.93783 3.8517 4.24886 4.1164 4.50647C4.3811 4.76409 4.70067 4.8929 5.07512 4.8929ZM3.13831 7.1549H7.01193V7.06065C6.74077 6.84073 6.44057 6.67579 6.11131 6.56583C5.78205 6.45588 5.43666 6.4009 5.07512 6.4009C4.71358 6.4009 4.36818 6.45588 4.03893 6.56583C3.70967 6.67579 3.40947 6.84073 3.13831 7.06065V7.1549ZM5.07512 4.1389C4.91372 4.1389 4.77653 4.08392 4.66355 3.97396C4.55057 3.864 4.49408 3.73048 4.49408 3.5734C4.49408 3.41631 4.55057 3.28279 4.66355 3.17283C4.77653 3.06288 4.91372 3.0079 5.07512 3.0079C5.23652 3.0079 5.37371 3.06288 5.48669 3.17283C5.59967 3.28279 5.65616 3.41631 5.65616 3.5734C5.65616 3.73048 5.59967 3.864 5.48669 3.97396C5.37371 4.08392 5.23652 4.1389 5.07512 4.1389Z" fill="#454545"/>
</g>
</svg>
