<svg width="10" height="10" viewBox="0 0 10 10" fill="none" xmlns="http://www.w3.org/2000/svg">
<mask id="mask0_675_338" style="mask-type:alpha" maskUnits="userSpaceOnUse" x="0" y="-1" width="10" height="11">
<rect x="0.616943" y="-0.00830078" width="8.53044" height="9.048" fill="#D9D9D9"/>
</mask>
<g mask="url(#mask0_675_338)">
<path d="M2.39398 7.90865C2.19849 7.90865 2.03114 7.83482 1.89192 7.68717C1.75271 7.53951 1.68311 7.362 1.68311 7.15465V1.87665C1.68311 1.6693 1.75271 1.4918 1.89192 1.34414C2.03114 1.19648 2.19849 1.12265 2.39398 1.12265H3.88681C3.96974 0.896452 4.10007 0.714236 4.27779 0.576002C4.4555 0.437769 4.65692 0.368652 4.88203 0.368652C5.10714 0.368652 5.30855 0.437769 5.48627 0.576002C5.66399 0.714236 5.79431 0.896452 5.87725 1.12265H7.37008C7.56557 1.12265 7.73292 1.19648 7.87213 1.34414C8.01134 1.4918 8.08095 1.6693 8.08095 1.87665V7.15465C8.08095 7.362 8.01134 7.53951 7.87213 7.68717C7.73292 7.83482 7.56557 7.90865 7.37008 7.90865H2.39398ZM4.88203 1.5939C4.95904 1.5939 5.02272 1.5672 5.07307 1.51379C5.12343 1.46038 5.1486 1.39284 5.1486 1.31115C5.1486 1.22947 5.12343 1.16192 5.07307 1.10851C5.02272 1.05511 4.95904 1.0284 4.88203 1.0284C4.80502 1.0284 4.74133 1.05511 4.69098 1.10851C4.64063 1.16192 4.61545 1.22947 4.61545 1.31115C4.61545 1.39284 4.64063 1.46038 4.69098 1.51379C4.74133 1.5672 4.80502 1.5939 4.88203 1.5939ZM2.39398 6.7211C2.71387 6.38809 3.0856 6.12576 3.50916 5.93412C3.93272 5.74247 4.39034 5.64665 4.88203 5.64665C5.37371 5.64665 5.83134 5.74247 6.2549 5.93412C6.67846 6.12576 7.05018 6.38809 7.37008 6.7211V1.87665H2.39398V6.7211ZM4.88203 4.89265C5.22561 4.89265 5.51885 4.76384 5.76173 4.50623C6.00461 4.24861 6.12605 3.93759 6.12605 3.57315C6.12605 3.20872 6.00461 2.89769 5.76173 2.64008C5.51885 2.38246 5.22561 2.25365 4.88203 2.25365C4.53844 2.25365 4.2452 2.38246 4.00232 2.64008C3.75944 2.89769 3.638 3.20872 3.638 3.57315C3.638 3.93759 3.75944 4.24861 4.00232 4.50623C4.2452 4.76384 4.53844 4.89265 4.88203 4.89265ZM3.10485 7.15465H6.65921V7.0604C6.4104 6.84049 6.13494 6.67555 5.83282 6.56559C5.5307 6.45563 5.21377 6.40065 4.88203 6.40065C4.55029 6.40065 4.23336 6.45563 3.93124 6.56559C3.62912 6.67555 3.35365 6.84049 3.10485 7.0604V7.15465ZM4.88203 4.13865C4.73393 4.13865 4.60805 4.08367 4.50438 3.97372C4.40071 3.86376 4.34887 3.73024 4.34887 3.57315C4.34887 3.41607 4.40071 3.28255 4.50438 3.17259C4.60805 3.06263 4.73393 3.00765 4.88203 3.00765C5.03012 3.00765 5.15601 3.06263 5.25968 3.17259C5.36335 3.28255 5.41518 3.41607 5.41518 3.57315C5.41518 3.73024 5.36335 3.86376 5.25968 3.97372C5.15601 4.08367 5.03012 4.13865 4.88203 4.13865Z" fill="#454545"/>
</g>
</svg>
