<svg width="18" height="18" viewBox="0 0 18 18" fill="none" xmlns="http://www.w3.org/2000/svg">
<path d="M9.75022 5.27761V2.99011C9.75022 2.7912 9.82924 2.60043 9.96989 2.45978C10.1105 2.31913 10.3013 2.24011 10.5002 2.24011C10.697 2.24094 10.8855 2.31905 11.0252 2.45761L16.2752 7.70761C16.3455 7.77733 16.4013 7.86029 16.4394 7.95168C16.4775 8.04307 16.4971 8.1411 16.4971 8.24011C16.4971 8.33912 16.4775 8.43715 16.4394 8.52854C16.4013 8.61994 16.3455 8.70289 16.2752 8.77261L11.0252 14.0226C10.9199 14.1258 10.7866 14.1957 10.6418 14.2235C10.497 14.2514 10.3472 14.2359 10.2112 14.1791C10.0751 14.1223 9.95885 14.0266 9.87687 13.9041C9.79488 13.7815 9.75083 13.6375 9.75022 13.4901V11.1651H9.11272C7.92778 11.1474 6.75319 11.3878 5.67047 11.8696C4.58775 12.3514 3.62285 13.063 2.84272 13.9551C2.74871 14.0803 2.61789 14.1729 2.4686 14.22C2.3193 14.267 2.15903 14.2662 2.01022 14.2176C1.85879 14.1665 1.72765 14.0684 1.63591 13.9375C1.54417 13.8066 1.49663 13.6499 1.50022 13.4901C1.50022 6.65011 7.56022 5.48011 9.75022 5.27761ZM9.11272 9.65011C9.61436 9.64854 10.1155 9.68112 10.6127 9.74761C10.7903 9.77455 10.9523 9.86431 11.0693 10.0006C11.1862 10.1368 11.2505 10.3105 11.2502 10.4901V11.6826L14.6852 8.24011L11.2502 4.79761V5.99011C11.2502 6.18902 11.1712 6.37979 11.0306 6.52044C10.8899 6.66109 10.6991 6.74011 10.5002 6.74011C9.81772 6.74011 4.41772 6.89011 3.24772 11.5626C4.94595 10.3105 7.00284 9.6398 9.11272 9.65011Z" fill="#D9D8D8"/>
</svg>
