<svg width="20" height="20" viewBox="0 0 20 20" fill="none" xmlns="http://www.w3.org/2000/svg">
<path d="M10.8336 5.86514V3.32348C10.8336 3.10246 10.9214 2.8905 11.0777 2.73422C11.2339 2.57794 11.4459 2.49014 11.6669 2.49014C11.8855 2.49106 12.095 2.57786 12.2502 2.73181L18.0836 8.56514C18.1617 8.64261 18.2237 8.73478 18.266 8.83633C18.3083 8.93788 18.3301 9.0468 18.3301 9.15681C18.3301 9.26682 18.3083 9.37574 18.266 9.47729C18.2237 9.57884 18.1617 9.67101 18.0836 9.74848L12.2502 15.5818C12.1333 15.6965 11.9851 15.7741 11.8242 15.8051C11.6633 15.836 11.4969 15.8188 11.3458 15.7557C11.1946 15.6925 11.0654 15.5862 10.9743 15.4501C10.8832 15.3139 10.8343 15.154 10.8336 14.9901V12.4068H10.1252C8.80865 12.3872 7.50354 12.6543 6.30052 13.1896C5.0975 13.7249 4.02538 14.5156 3.15858 15.5068C3.05412 15.6459 2.90876 15.7488 2.74288 15.8011C2.577 15.8534 2.39892 15.8525 2.23358 15.7985C2.06532 15.7417 1.91961 15.6327 1.81767 15.4872C1.71574 15.3418 1.66292 15.1677 1.66691 14.9901C1.66691 7.39014 8.40025 6.09014 10.8336 5.86514ZM10.1252 10.7235C10.6826 10.7217 11.2395 10.7579 11.7919 10.8318C11.9892 10.8617 12.1692 10.9615 12.2992 11.1129C12.4292 11.2643 12.5005 11.4573 12.5002 11.6568V12.9818L16.3169 9.15681L12.5002 5.33181V6.65681C12.5002 6.87782 12.4124 7.08978 12.2562 7.24606C12.0999 7.40235 11.8879 7.49014 11.6669 7.49014C10.9086 7.49014 4.90858 7.65681 3.60858 12.8485C5.4955 11.4573 7.78094 10.712 10.1252 10.7235Z" fill="#D6CCC6"/>
</svg>
