<svg width="35" height="34" viewBox="0 0 35 34" fill="none" xmlns="http://www.w3.org/2000/svg">
<path d="M34.3465 16.0326C34.3274 15.8603 34.3082 15.6784 34.2795 15.5061C34.2317 15.1232 34.1934 14.7307 34.1359 14.3382C33.7435 11.5621 32.7192 9.01576 31.111 6.78531C29.7325 4.8612 27.9807 3.30085 25.9225 2.15213C24.0559 1.1087 21.9977 0.457753 19.796 0.208862C19.1642 0.13228 18.5133 0.0939941 17.8815 0.0939941C16.7615 0.0939941 15.651 0.208864 14.5406 0.43861V0.429039L14.3779 0.476903C14.1194 0.534339 13.8705 0.591766 13.612 0.658775C13.2866 0.74493 12.9515 0.850239 12.626 0.955539C12.3293 1.04169 12.0804 1.11827 11.8411 1.20443C9.24688 2.13298 6.98771 3.69333 5.12103 5.8472C3.25435 7.99148 1.99075 10.4708 1.34938 13.199C0.899465 15.1232 0.784591 17.0473 0.995191 18.9235C1.21536 20.8381 1.70357 22.6282 2.45024 24.2364C3.26392 25.9786 4.37436 27.5294 5.74326 28.8409C7.27489 30.3055 9.07456 31.4446 11.2476 32.3253C12.1953 32.7082 13.1238 32.8901 13.9854 33.0241C14.4353 33.1199 14.9043 33.1964 15.3638 33.2539C15.5266 33.273 15.6797 33.2922 15.8425 33.3113C16.3403 33.3975 16.9721 33.4358 17.7283 33.4358C18.0346 33.4358 18.3314 33.4262 18.609 33.4166L18.3792 33.5123L19.3748 33.3783C19.796 33.3496 20.1311 33.3018 20.3034 33.273L20.3512 33.2635C20.3799 33.2539 20.3991 33.2443 20.4182 33.2347C21.6818 33.0529 22.8976 32.7561 24.0271 32.3349C25.5301 31.7701 26.9277 31.0139 28.1626 30.0662C29.6368 28.9366 30.8908 27.5677 31.8672 25.9786C32.8436 24.4087 33.5137 22.743 33.8679 21.0104C33.9828 20.436 34.0689 19.8521 34.1455 19.2777C34.1838 19.0097 34.2221 18.7512 34.2604 18.4832C34.27 18.4353 34.2795 18.3779 34.2891 18.33L34.3082 18.2439L34.3178 16.09L34.3465 16.0326ZM21.2128 5.20582C22.4572 5.20582 23.4911 6.24925 23.4815 7.47456C23.4719 8.69986 22.4381 9.74329 21.2128 9.74329C19.9875 9.74329 18.9536 8.69986 18.9536 7.47456C18.9632 6.24925 19.997 5.20582 21.2128 5.20582ZM23.7304 29.8556C22.8689 31.167 21.7201 32.1243 20.3321 32.7082C20.0258 32.7465 19.7099 32.7848 19.394 32.8135C18.2835 32.9093 17.1348 32.8997 15.9574 32.7752C15.5457 32.6987 15.1437 32.6412 14.7512 32.5838C14.5406 32.5551 14.33 32.5264 14.1194 32.4881C12.9132 32.2392 11.7454 31.8563 10.6445 31.3585C9.43833 30.8128 8.31832 30.1236 7.31319 29.3195C6.3942 28.5824 5.57095 27.7591 4.86257 26.8593C4.0106 25.7776 3.30222 24.5906 2.76614 23.3174C2.26836 22.1208 1.93332 20.9817 1.74187 19.8138C1.67486 19.3734 1.61742 18.9139 1.55998 18.464C1.53127 18.263 1.51212 18.062 1.4834 17.861V15.9656C1.4834 15.956 1.4834 15.956 1.49297 15.9464C1.50254 15.8985 1.52169 15.8411 1.52169 15.7741C1.62699 14.4722 1.87588 13.199 2.25879 12.012C2.75657 10.4708 3.47452 9.01576 4.41265 7.68515C5.54223 6.07694 6.94943 4.67933 8.58636 3.54017C9.9074 2.62119 11.3242 1.9128 12.8079 1.41502C13.0568 1.33844 13.3153 1.27144 13.5737 1.20443C13.6982 1.16614 13.8322 1.13742 13.9567 1.09913C13.9184 1.37674 13.8896 1.64477 13.8514 1.91281C13.7365 2.77435 13.6312 3.5976 13.545 4.42086C13.3823 5.84719 13.2483 7.55114 13.4493 9.29337C13.6216 10.8059 14.0332 12.0599 14.6937 13.1416C15.3255 14.1755 16.1105 15.0562 17.0391 15.7454C17.9676 16.4442 18.9345 17.1238 19.9205 17.7461C20.2363 17.9471 20.5714 18.0907 20.9064 18.2343C21.1362 18.33 21.3564 18.4257 21.567 18.5406C22.9454 19.2681 23.941 20.1393 24.6111 21.2114C25.2142 22.1782 25.5013 23.2791 25.4631 24.4757C25.3769 26.4285 24.8025 28.2282 23.7304 29.8556Z" fill="#BEADD6"/>
<path d="M14.2935 21.1433H14.2552C12.7236 21.1433 11.527 22.3112 11.4791 23.8715C11.4409 25.384 12.6662 26.6476 14.2169 26.6859C14.2361 26.6859 14.2648 26.6859 14.2935 26.6859C15.7773 26.6859 17.0026 25.451 17.0313 23.929C17.0409 23.2014 16.7633 22.5026 16.2464 21.9761C15.7294 21.4496 15.0402 21.1529 14.2935 21.1433Z" fill="#BEADD6"/>
</svg>
