<svg width="17" height="17" viewBox="0 0 17 17" fill="none" xmlns="http://www.w3.org/2000/svg">
<path d="M4.02588 8.87978L11.9325 8.87978L9.51255 11.7864C9.39939 11.9226 9.34495 12.0981 9.3612 12.2744C9.37745 12.4507 9.46307 12.6133 9.59921 12.7264C9.73536 12.8396 9.91088 12.894 10.0872 12.8778C10.2634 12.8615 10.4261 12.7759 10.5392 12.6398L13.8725 8.63978C13.895 8.60796 13.915 8.57454 13.9325 8.53978C13.9325 8.50645 13.9325 8.48645 13.9792 8.45311C14.0094 8.37667 14.0253 8.29531 14.0259 8.21311C14.0253 8.13092 14.0094 8.04955 13.9792 7.97311C13.9792 7.93978 13.9792 7.91978 13.9325 7.88645C13.915 7.85169 13.895 7.81826 13.8725 7.78645L10.5392 3.78645C10.4765 3.71119 10.398 3.65067 10.3093 3.60919C10.2206 3.56771 10.1238 3.54629 10.0259 3.54645C9.87011 3.54614 9.71915 3.60039 9.59921 3.69978C9.53171 3.75575 9.47591 3.82448 9.435 3.90204C9.3941 3.97961 9.36891 4.06448 9.36085 4.1518C9.3528 4.23912 9.36206 4.32716 9.38809 4.4109C9.41412 4.49464 9.45641 4.57241 9.51255 4.63978L11.9325 7.54645L4.02588 7.54645C3.84907 7.54645 3.6795 7.61668 3.55447 7.74171C3.42945 7.86673 3.35921 8.0363 3.35921 8.21311C3.35921 8.38992 3.42945 8.55949 3.55447 8.68452C3.6795 8.80954 3.84907 8.87978 4.02588 8.87978Z" fill="#573926" stroke="#573926"/>
</svg>
