<svg width="34" height="33" viewBox="0 0 34 33" fill="none" xmlns="http://www.w3.org/2000/svg">
<g clip-path="url(#clip0_475_836)">
<path d="M33.1402 16.1731C33.1402 25.1016 25.904 32.3379 16.9754 32.3379C8.04689 32.3379 0.810608 25.1016 0.810608 16.1731C0.810608 7.24458 8.04689 0.00830078 16.9754 0.00830078C25.904 0.00830078 33.1402 7.24458 33.1402 16.1731ZM22.2732 23.5799C21.2566 22.4496 19.4822 21.2246 16.9754 21.2246C14.4686 21.2246 12.6943 22.4496 11.6777 23.5799C11.3051 23.9966 11.3367 24.5776 11.7534 25.0069C12.1702 25.3795 12.7511 25.3479 13.1805 24.9312C13.9193 24.1103 15.1758 23.2452 16.9186 23.2452C18.775 23.2452 20.0316 24.1103 20.7704 24.9312C21.1429 25.3479 21.7807 25.3795 22.1974 25.0069C22.6142 24.5776 22.6457 23.9966 22.2732 23.5799ZM11.9492 17.1834C13.0605 17.1834 13.9698 16.2805 13.9698 15.1628C13.9698 15.0681 13.9635 14.9734 13.9508 14.885L14.6328 15.1123C15.1632 15.2323 15.7378 14.9986 15.9146 14.4745C16.0346 13.9441 15.8009 13.3695 15.2769 13.1927L9.21505 11.1721C8.68464 10.9953 8.11003 11.2858 7.93323 11.8099C7.75643 12.3403 8.04689 12.9149 8.57098 13.0917L10.5158 13.7358C10.1496 14.102 9.92857 14.6071 9.92857 15.1628C9.92857 16.2805 10.8315 17.1834 11.9492 17.1834ZM23.4729 13.7231L25.3799 13.0917C25.904 12.9149 26.1376 12.3403 26.0176 11.8099C25.8408 11.2858 25.2662 10.9953 24.7358 11.1721L18.674 13.1927C18.1499 13.3695 17.8594 13.9441 18.0362 14.4745C18.213 14.9986 18.7876 15.2323 19.3181 15.1123L20.0505 14.866C20.0379 14.9608 20.0316 15.0618 20.0316 15.1628C20.0316 16.2805 20.9345 17.1834 22.0522 17.1834C23.1635 17.1834 24.0728 16.2805 24.0728 15.1628C24.0728 14.6008 23.8391 14.0894 23.4729 13.7231Z" fill="#AFDD82"/>
</g>
<defs>
<clipPath id="clip0_475_836">
<rect width="32.3296" height="32.3296" fill="white" transform="translate(0.810608 0.00830078)"/>
</clipPath>
</defs>
</svg>
