<svg width="33" height="33" viewBox="0 0 33 33" fill="none" xmlns="http://www.w3.org/2000/svg">
<g clip-path="url(#clip0_475_831)">
<path d="M32.3552 16.1731C32.3552 25.1016 25.1189 32.3379 16.1904 32.3379C7.26185 32.3379 0.0255737 25.1016 0.0255737 16.1731C0.0255737 7.24458 7.26185 0.00830078 16.1904 0.00830078C25.1189 0.00830078 32.3552 7.24458 32.3552 16.1731ZM21.4881 23.5799C20.4715 22.4496 18.6972 21.2246 16.1904 21.2246C13.6836 21.2246 11.9092 22.4496 10.8926 23.5799C10.5201 23.9966 10.5516 24.5776 10.9684 25.0069C11.3851 25.3795 11.9661 25.3479 12.3954 24.9312C13.1342 24.1103 14.3908 23.2452 16.1336 23.2452C17.99 23.2452 19.2465 24.1103 19.9853 24.9312C20.3579 25.3479 20.9956 25.3795 21.4124 25.0069C21.8291 24.5776 21.8607 23.9966 21.4881 23.5799ZM11.1641 17.1834C12.2755 17.1834 13.1847 16.2805 13.1847 15.1628C13.1847 15.0681 13.1784 14.9734 13.1658 14.885L13.8478 15.1123C14.3782 15.2323 14.9528 14.9986 15.1296 14.4745C15.2495 13.9441 15.0159 13.3695 14.4918 13.1927L8.43001 11.1721C7.89961 10.9953 7.325 11.2858 7.14819 11.8099C6.97139 12.3403 7.26185 12.9149 7.78595 13.0917L9.73077 13.7358C9.36454 14.102 9.14354 14.6071 9.14354 15.1628C9.14354 16.2805 10.0465 17.1834 11.1641 17.1834ZM22.6879 13.7231L24.5948 13.0917C25.1189 12.9149 25.3526 12.3403 25.2326 11.8099C25.0558 11.2858 24.4812 10.9953 23.9508 11.1721L17.889 13.1927C17.3649 13.3695 17.0744 13.9441 17.2512 14.4745C17.428 14.9986 18.0026 15.2323 18.533 15.1123L19.2655 14.866C19.2529 14.9608 19.2465 15.0618 19.2465 15.1628C19.2465 16.2805 20.1495 17.1834 21.2671 17.1834C22.3785 17.1834 23.2877 16.2805 23.2877 15.1628C23.2877 14.6008 23.0541 14.0894 22.6879 13.7231Z" fill="#E4C6B5"/>
</g>
<defs>
<clipPath id="clip0_475_831">
<rect width="32.3296" height="32.3296" fill="white" transform="translate(0.0255737 0.00830078)"/>
</clipPath>
</defs>
</svg>
