<svg width="41" height="20" viewBox="0 0 41 20" fill="none" xmlns="http://www.w3.org/2000/svg">
<g clip-path="url(#clip0_220_382)">
<path d="M22.0769 11.8182V17.2727C22.0769 18.0303 22.5369 18.6742 23.4567 19.2045C24.3766 19.7348 25.4936 20 26.8077 20H36.2692C37.5833 20 38.7003 19.7348 39.6202 19.2045C40.5401 18.6742 41 18.0303 41 17.2727V7.27273C41 6.28788 40.6674 5.34801 40.0021 4.45312C39.3368 3.55824 38.4375 2.78409 37.3041 2.13068C36.1707 1.47727 34.8278 0.958807 33.2755 0.575284C31.7233 0.191761 30.0929 0 28.3846 0H26.8077C26.3806 0 26.011 0.0899621 25.6989 0.269886C25.3868 0.449811 25.2308 0.662879 25.2308 0.909091V2.72727C25.2308 2.97348 25.3868 3.18655 25.6989 3.36648C26.011 3.5464 26.3806 3.63636 26.8077 3.63636H28.3846C30.1258 3.63636 31.6124 3.99148 32.8444 4.7017C34.0763 5.41193 34.6923 6.26894 34.6923 7.27273V7.72727C34.6923 8.10606 34.4623 8.42803 34.0024 8.69318C33.5425 8.95833 32.984 9.09091 32.3269 9.09091H26.8077C25.4936 9.09091 24.3766 9.35606 23.4567 9.88636C22.5369 10.4167 22.0769 11.0606 22.0769 11.8182ZM0 11.8182V17.2727C0 18.0303 0.459934 18.6742 1.37981 19.2045C2.29968 19.7348 3.41666 20 4.73077 20H14.1923C15.5064 20 16.6234 19.7348 17.5433 19.2045C18.4631 18.6742 18.9231 18.0303 18.9231 17.2727V7.27273C18.9231 6.28788 18.5904 5.34801 17.9252 4.45312C17.2599 3.55824 16.3606 2.78409 15.2272 2.13068C14.0938 1.47727 12.7509 0.958807 11.1986 0.575284C9.64633 0.191761 8.01603 0 6.30769 0H4.73077C4.30368 0 3.93409 0.0899621 3.62199 0.269886C3.30989 0.449811 3.15385 0.662879 3.15385 0.909091V2.72727C3.15385 2.97348 3.30989 3.18655 3.62199 3.36648C3.93409 3.5464 4.30368 3.63636 4.73077 3.63636H6.30769C8.04888 3.63636 9.53546 3.99148 10.7674 4.7017C11.9994 5.41193 12.6154 6.26894 12.6154 7.27273V7.72727C12.6154 8.10606 12.3854 8.42803 11.9255 8.69318C11.4655 8.95833 10.9071 9.09091 10.25 9.09091H4.73077C3.41666 9.09091 2.29968 9.35606 1.37981 9.88636C0.459934 10.4167 0 11.0606 0 11.8182Z" fill="#D9D8D8"/>
</g>
<defs>
<clipPath id="clip0_220_382">
<rect width="41" height="20" fill="white" transform="matrix(-1 0 0 1 41 0)"/>
</clipPath>
</defs>
</svg>
