<svg width="30" height="21" viewBox="0 0 30 21" fill="none" xmlns="http://www.w3.org/2000/svg">
<g clip-path="url(#clip0_220_484)">
<path d="M16.1538 12.4091V18.1364C16.1538 18.9318 16.4904 19.608 17.1635 20.1648C17.8365 20.7216 18.6538 21 19.6154 21H26.5385C27.5 21 28.3173 20.7216 28.9904 20.1648C29.6635 19.608 30 18.9318 30 18.1364V7.63636C30 6.60227 29.7566 5.61541 29.2698 4.67578C28.7831 3.73615 28.125 2.9233 27.2957 2.23722C26.4663 1.55114 25.4838 1.00675 24.348 0.604048C23.2121 0.201349 22.0192 0 20.7692 0H19.6154C19.3029 0 19.0325 0.0944602 18.8041 0.283381C18.5757 0.472301 18.4615 0.696023 18.4615 0.954545V2.86364C18.4615 3.12216 18.5757 3.34588 18.8041 3.5348C19.0325 3.72372 19.3029 3.81818 19.6154 3.81818H20.7692C22.0433 3.81818 23.131 4.19105 24.0325 4.93679C24.9339 5.68253 25.3846 6.58239 25.3846 7.63636V8.11364C25.3846 8.51136 25.2163 8.84943 24.8798 9.12784C24.5433 9.40625 24.1346 9.54545 23.6538 9.54545H19.6154C18.6538 9.54545 17.8365 9.82386 17.1635 10.3807C16.4904 10.9375 16.1538 11.6136 16.1538 12.4091ZM0 12.4091V18.1364C0 18.9318 0.336538 19.608 1.00961 20.1648C1.68269 20.7216 2.5 21 3.46154 21H10.3846C11.3462 21 12.1635 20.7216 12.8365 20.1648C13.5096 19.608 13.8462 18.9318 13.8462 18.1364V7.63636C13.8462 6.60227 13.6028 5.61541 13.116 4.67578C12.6292 3.73615 11.9712 2.9233 11.1418 2.23722C10.3125 1.55114 9.32993 1.00675 8.19411 0.604048C7.05829 0.201349 5.86539 0 4.61539 0H3.46154C3.14904 0 2.87861 0.0944602 2.65024 0.283381C2.42188 0.472301 2.30769 0.696023 2.30769 0.954545V2.86364C2.30769 3.12216 2.42188 3.34588 2.65024 3.5348C2.87861 3.72372 3.14904 3.81818 3.46154 3.81818H4.61539C5.88942 3.81818 6.97716 4.19105 7.87861 4.93679C8.78005 5.68253 9.23077 6.58239 9.23077 7.63636V8.11364C9.23077 8.51136 9.0625 8.84943 8.72596 9.12784C8.38942 9.40625 7.98077 9.54545 7.5 9.54545H3.46154C2.5 9.54545 1.68269 9.82386 1.00961 10.3807C0.336538 10.9375 0 11.6136 0 12.4091Z" fill="#D9D8D8"/>
</g>
<defs>
<clipPath id="clip0_220_484">
<rect width="30" height="21" fill="white" transform="matrix(-1 0 0 1 30 0)"/>
</clipPath>
</defs>
</svg>
