<svg width="19" height="20" viewBox="0 0 19 20" fill="none" xmlns="http://www.w3.org/2000/svg">
<g clip-path="url(#clip0_220_278)">
<path d="M10.2308 11.8182V17.2727C10.2308 18.0303 10.4439 18.6742 10.8702 19.2045C11.2965 19.7348 11.8141 20 12.4231 20H16.8077C17.4167 20 17.9343 19.7348 18.3606 19.2045C18.7869 18.6742 19 18.0303 19 17.2727V7.27273C19 6.28788 18.8459 5.34801 18.5376 4.45312C18.2293 3.55824 17.8125 2.78409 17.2873 2.13068C16.762 1.47727 16.1397 0.958807 15.4204 0.575284C14.701 0.191761 13.9455 0 13.1538 0H12.4231C12.2252 0 12.0539 0.0899621 11.9093 0.269886C11.7646 0.449811 11.6923 0.662879 11.6923 0.909091V2.72727C11.6923 2.97348 11.7646 3.18655 11.9093 3.36648C12.0539 3.5464 12.2252 3.63636 12.4231 3.63636H13.1538C13.9607 3.63636 14.6496 3.99148 15.2206 4.7017C15.7915 5.41193 16.0769 6.26894 16.0769 7.27273V7.72727C16.0769 8.10606 15.9704 8.42803 15.7572 8.69318C15.5441 8.95833 15.2853 9.09091 14.9808 9.09091H12.4231C11.8141 9.09091 11.2965 9.35606 10.8702 9.88636C10.4439 10.4167 10.2308 11.0606 10.2308 11.8182ZM0 11.8182V17.2727C0 18.0303 0.21314 18.6742 0.639423 19.2045C1.06571 19.7348 1.58333 20 2.19231 20H6.57692C7.1859 20 7.70353 19.7348 8.12981 19.2045C8.55609 18.6742 8.76923 18.0303 8.76923 17.2727V7.27273C8.76923 6.28788 8.61508 5.34801 8.30679 4.45312C7.9985 3.55824 7.58173 2.78409 7.05649 2.13068C6.53125 1.47727 5.90895 0.958807 5.1896 0.575284C4.47025 0.191761 3.71474 0 2.92308 0H2.19231C1.99439 0 1.82312 0.0899621 1.67849 0.269886C1.53386 0.449811 1.46154 0.662879 1.46154 0.909091V2.72727C1.46154 2.97348 1.53386 3.18655 1.67849 3.36648C1.82312 3.5464 1.99439 3.63636 2.19231 3.63636H2.92308C3.72997 3.63636 4.41887 3.99148 4.98978 4.7017C5.5607 5.41193 5.84615 6.26894 5.84615 7.27273V7.72727C5.84615 8.10606 5.73958 8.42803 5.52644 8.69318C5.3133 8.95833 5.05449 9.09091 4.75 9.09091H2.19231C1.58333 9.09091 1.06571 9.35606 0.639423 9.88636C0.21314 10.4167 0 11.0606 0 11.8182Z" fill="#D9D8D8"/>
</g>
<defs>
<clipPath id="clip0_220_278">
<rect width="19" height="20" fill="white" transform="matrix(-1 0 0 1 19 0)"/>
</clipPath>
</defs>
</svg>
