<svg width="24" height="21" viewBox="0 0 24 21" fill="none" xmlns="http://www.w3.org/2000/svg">
<g clip-path="url(#clip0_403_640)">
<path d="M12.9231 12.5128V17.9673C12.9231 18.7249 13.1923 19.3688 13.7308 19.8991C14.2692 20.4294 14.9231 20.6946 15.6923 20.6946H21.2308C22 20.6946 22.6538 20.4294 23.1923 19.8991C23.7308 19.3688 24 18.7249 24 17.9673V7.96731C24 6.98246 23.8053 6.04259 23.4159 5.14771C23.0264 4.25282 22.5 3.47867 21.8365 2.82526C21.1731 2.17185 20.387 1.65339 19.4784 1.26986C18.5697 0.886341 17.6154 0.69458 16.6154 0.69458H15.6923C15.4423 0.69458 15.226 0.784542 15.0433 0.964466C14.8606 1.14439 14.7692 1.35746 14.7692 1.60367V3.42185C14.7692 3.66807 14.8606 3.88113 15.0433 4.06106C15.226 4.24098 15.4423 4.33094 15.6923 4.33094H16.6154C17.6346 4.33094 18.5048 4.68606 19.226 5.39628C19.9471 6.10651 20.3077 6.96352 20.3077 7.96731V8.42185C20.3077 8.80064 20.1731 9.12261 19.9038 9.38776C19.6346 9.65291 19.3077 9.78549 18.9231 9.78549H15.6923C14.9231 9.78549 14.2692 10.0506 13.7308 10.5809C13.1923 11.1112 12.9231 11.7552 12.9231 12.5128ZM0 12.5128V17.9673C0 18.7249 0.26923 19.3688 0.807692 19.8991C1.34615 20.4294 2 20.6946 2.76923 20.6946H8.30769C9.07692 20.6946 9.73077 20.4294 10.2692 19.8991C10.8077 19.3688 11.0769 18.7249 11.0769 17.9673V7.96731C11.0769 6.98246 10.8822 6.04259 10.4928 5.14771C10.1034 4.25282 9.57692 3.47867 8.91346 2.82526C8.25 2.17185 7.46394 1.65339 6.55529 1.26986C5.64664 0.886341 4.69231 0.69458 3.69231 0.69458H2.76923C2.51923 0.69458 2.30289 0.784542 2.12019 0.964466C1.9375 1.14439 1.84615 1.35746 1.84615 1.60367V3.42185C1.84615 3.66807 1.9375 3.88113 2.12019 4.06106C2.30289 4.24098 2.51923 4.33094 2.76923 4.33094H3.69231C4.71154 4.33094 5.58173 4.68606 6.30289 5.39628C7.02404 6.10651 7.38461 6.96352 7.38461 7.96731V8.42185C7.38461 8.80064 7.25 9.12261 6.98077 9.38776C6.71154 9.65291 6.38461 9.78549 6 9.78549H2.76923C2 9.78549 1.34615 10.0506 0.807692 10.5809C0.26923 11.1112 0 11.7552 0 12.5128Z" fill="#D9D8D8"/>
</g>
<defs>
<clipPath id="clip0_403_640">
<rect width="24" height="20" fill="white" transform="matrix(-1 0 0 1 24 0.69458)"/>
</clipPath>
</defs>
</svg>
