<svg width="322" height="259" viewBox="0 0 322 259" fill="none" xmlns="http://www.w3.org/2000/svg">
<path d="M321.743 256.711H52.5383V258.382H321.743V256.711Z" fill="#353A48"/>
<path d="M143.928 189.868C146.263 172.6 137.778 143.88 134.73 135.987C131.892 128.635 128.762 117.544 128.71 112.369C128.702 112.022 128.713 111.674 128.745 111.328C128.724 110.401 128.408 109.501 127.84 108.749L126.275 114.776L122.263 107.128L123.705 103.981C123.273 103.563 122.829 103.14 122.374 102.722C119.192 99.8623 115.861 97.1574 112.394 94.6172V93.5031L80.2762 100.744L80.1011 100.873C77.6448 102.914 75.7333 105.484 74.5243 108.37C74.2907 108.899 74.0688 109.484 73.8586 110.041L76.2703 112.13L73.1111 112.559C73.1111 112.676 73.0527 112.798 73.0293 112.921L77.263 122.156L73.6483 129.052C73.8469 129.843 74.0746 130.657 74.3316 131.487C74.8162 133.052 75.3944 134.684 76.0834 136.383C78.6645 142.738 76.9535 148.849 72.5797 152.169C68.2059 155.489 61.2568 169.62 69.5314 178.761C77.8061 187.902 76.498 199.115 73.0352 206.178C69.6482 213.035 63.8028 222.632 75.8265 234.976C76.1885 235.344 76.5623 235.717 76.9535 236.09H95.681L95.7861 235.828C95.8679 235.639 95.9847 235.349 96.1365 234.976C97.6256 231.366 102.42 219.836 105.696 213.252C108.271 208.072 111.968 197.165 113.1 183.824C113.299 184.109 113.503 184.381 113.684 184.666C115.366 186.927 117.188 188.982 118.794 190.982C124.634 198.224 121.644 199.967 118.596 214.934C116.306 226.158 122.169 232.152 125.235 234.43C125.785 234.848 126.371 235.221 126.987 235.544L142.754 234.987C142.841 234.82 142.923 234.631 143.005 234.43C145.609 227.623 142.304 201.872 143.928 189.868Z" fill="#353A48"/>
<path d="M79.6923 100.962V90.4396H81.4441V98.8562L110.677 92.3836L107.956 84.836L109.608 84.2957L112.966 93.5924L79.6923 100.962Z" fill="#353A48"/>
<path d="M122.823 43.978C120.127 41.3368 116.85 39.2981 113.23 38.0085C109.609 36.7189 105.734 36.2104 101.882 36.5195L92.761 37.2436L92.907 38.9147L102.023 38.1905C105.617 37.8994 109.234 38.3724 112.614 39.5754C115.994 40.7785 119.052 42.6816 121.568 45.1478L160.512 83.198L136.733 106.409L123.238 88.3839L135.653 79.3601L112.335 58.8283L108.248 46.1894L106.577 46.6796L117.673 81.1315L73.8759 91.4643C74.2087 83.2816 75.3416 54.9291 75.0438 53.4975L73.3269 53.8373C73.4204 54.3943 73.3269 58.6834 73.1459 64.5322L72.8656 64.3595L54.7863 90.7457L73.6306 100.299L64.9296 121.566L26.2658 101.791L52.4855 53.1522C53.9499 50.4208 56.0517 48.0463 58.6292 46.2115C61.2068 44.3767 64.1913 43.1305 67.3531 42.5687L78.3957 40.5857L78.0687 38.9147L67.026 40.9199C63.6027 41.5306 60.3718 42.882 57.5817 44.8703C54.7917 46.8586 52.5169 49.4308 50.9322 52.3891L23.9183 102.488L65.8406 123.928L75.8263 99.5188L57.2973 90.1608L73.0174 67.1669C72.7605 74.9652 72.3868 84.8134 72.0656 92.5393L72.0189 93.6534L119.903 82.3625L113.363 62.0367L132.937 79.271L120.826 88.072L136.529 109.038L162.964 83.198L122.823 43.978Z" fill="#353A48"/>
<path d="M80.1943 113.3L74.524 108.37L72.813 106.872L71.7035 105.908L67.826 115.845L68.3399 117.811L72.6846 134.617L74.3197 131.498L79.1899 122.212L75.4 113.951L80.1943 113.3ZM77.2745 122.167L73.6598 129.063L73.2685 129.815L69.6655 115.957L72.451 108.821L73.87 110.052L76.2818 112.141L73.1225 112.57L72.889 112.603L73.0408 112.932L77.2745 122.167Z" fill="#353A48"/>
<path d="M125.644 91.8654L124.546 93.0184L119.541 98.2823L124.12 98.9117L122.368 102.722L120.324 107.178L126.823 119.583L128.704 112.375L131.361 102.148L131.723 100.744L125.644 91.8654ZM127.839 108.749L126.274 114.776L122.263 107.128L123.705 103.981L126.625 97.5637L123.033 97.0791L125.398 94.5836L129.825 101.017L127.839 108.749Z" fill="#353A48"/>
<path d="M84.0774 237.009C79.0087 232.776 79.6335 217.257 83.9373 211.386C87.6162 206.373 90.2674 187.234 81.7474 180.193C78.9328 177.87 77.4086 175.046 77.2218 171.837C76.8363 165.248 81.9693 158.469 86.349 153.951C92.8952 147.184 87.9782 134.896 87.9257 134.773L89.5608 134.16C89.7827 134.717 94.9332 147.529 87.6337 155.088C84.2409 158.597 78.5999 165.426 78.9678 171.743C79.0628 173.139 79.4606 174.501 80.1361 175.742C80.8116 176.984 81.75 178.078 82.892 178.956C92.2353 186.688 89.4089 206.869 85.3738 212.378C81.5898 217.53 80.8773 232.146 85.2336 235.773L84.0774 237.009Z" fill="#E1E9F1"/>
<path d="M96.5396 236.19L94.9629 235.455C107.226 211.503 111.401 190.954 112.762 177.948C114.514 161.304 112.441 149.696 110.134 144.816C104.814 133.531 108.75 119.232 108.919 118.636L110.613 119.071C110.572 119.21 106.671 133.403 111.734 144.137C116.721 154.698 119.565 191.105 96.5396 236.19Z" fill="#E1E9F1"/>
<path d="M91.7744 252.255L98.7818 234.987H73.222L74.39 256.711L74.4776 258.382H77.6893L78.2733 256.711L78.9039 254.917L81.9522 257.825H98.9629V252.255H91.7744ZM78.139 251.82L76.4338 256.711H76.1418L75.0674 236.658H96.2241L89.2166 253.926H97.211V256.154H82.6821L78.139 251.82Z" fill="#353A48"/>
<path d="M139.659 251.698L146.666 234.43H121.106L122.321 256.711L122.379 257.825H125.591L125.982 256.711L126.806 254.36L129.854 257.268H146.847V251.698H139.659ZM126.023 251.263L124.318 256.154H124.026L122.952 236.101H144.108L137.101 253.369H145.095V255.597H130.566L126.023 251.263Z" fill="#353A48"/>
<path d="M83.0382 60.2823L81.6017 59.3242C82.8864 57.5752 83.3535 56.1325 82.9973 55.1633C82.86 54.8671 82.6567 54.6031 82.4016 54.3895C82.1464 54.1759 81.8456 54.018 81.5199 53.9267L81.9462 52.3057C82.5443 52.4653 83.097 52.7515 83.5631 53.143C84.0293 53.5346 84.3967 54.0214 84.6382 54.5672C85.2339 56.0935 84.6966 58.0208 83.0382 60.2823Z" fill="#BEADD6"/>
<path d="M62.7574 56.6949C58.88 55.4639 57.5836 51.8655 57.5018 51.6817L59.1603 51.1247C59.1603 51.1247 60.2523 54.0936 63.248 55.0573L62.7574 56.6949Z" fill="#BEADD6"/>
<path d="M52.0709 77.5724L50.6694 76.5698C51.4286 75.6005 58.2609 67.1728 63.4406 69.6404L62.6581 71.1332C59.3587 69.5513 53.8987 75.2496 52.0709 77.5724Z" fill="#BEADD6"/>
<path d="M48.5614 67.8799L48.3395 66.2088C52.3221 65.7353 53.4199 60.7945 53.4316 60.7444L55.1484 61.073C55.0959 61.3348 53.7995 67.2504 48.5614 67.8799Z" fill="#BEADD6"/>
<path d="M39.4927 100.839C38.7044 99.3354 35.9072 98.6447 34.897 98.511L35.1422 96.8399C35.3291 96.8678 39.7029 97.4916 41.0577 100.082L39.4927 100.839Z" fill="#BEADD6"/>
<path d="M38.3655 90.055L37.5129 88.5956C37.5597 88.5678 42.3189 85.9943 42.3189 82.6411H44.0708C44.0708 86.9803 38.5991 89.9325 38.3655 90.055Z" fill="#BEADD6"/>
<path d="M56.3921 97.9595C54.903 94.1773 46.8912 95.141 46.8152 95.1744L46.5817 93.5033C46.9671 93.4587 56.0534 92.3893 58.0272 97.4025L56.3921 97.9595Z" fill="#BEADD6"/>
<path d="M53.7062 112.999V111.328C56.223 111.328 62.7575 110.671 62.7575 107.707H64.5094C64.5094 112.938 54.15 112.999 53.7062 112.999Z" fill="#BEADD6"/>
<path d="M46.9908 106.816L45.2974 106.376C45.42 105.947 46.5587 102.182 48.8011 101.485C49.2422 101.357 49.7109 101.341 50.1606 101.439C50.6103 101.536 51.0254 101.745 51.3647 102.042L50.2668 103.346C49.7471 102.95 49.4551 103.04 49.3442 103.073C48.3456 103.374 47.3529 105.44 46.9908 106.816Z" fill="#BEADD6"/>
<path d="M88.755 83.2815C84.9126 83.2815 80.3869 80.7247 80.1183 80.5743L81.0176 79.1372C83.26 80.4239 89.5317 83.1645 91.5288 80.4852L92.9537 81.4544C91.9551 82.8024 90.4135 83.2815 88.755 83.2815Z" fill="#BEADD6"/>
<path d="M103.541 65.7467L101.976 65.0003C102.066 64.8284 102.117 64.6401 102.125 64.448C102.133 64.2559 102.098 64.0644 102.023 63.8862C101.299 61.9979 97.4212 60.0595 95.9905 59.4746L96.6795 57.9372C97.2635 58.1823 102.519 60.4104 103.687 63.3125C103.841 63.7057 103.908 64.1251 103.883 64.5442C103.857 64.9633 103.741 65.3728 103.541 65.7467Z" fill="#BEADD6"/>
<path d="M92.189 72.6202C89.1232 72.6202 84.6968 69.7571 84.1595 69.4006L85.1523 68.0303C87.1261 69.3282 90.9043 71.2611 92.6211 70.9101C92.7497 70.8932 92.8726 70.8489 92.9808 70.7804C93.089 70.7119 93.1796 70.6211 93.2459 70.5147L94.7525 71.3725C94.5622 71.6732 94.3081 71.9327 94.0063 72.1342C93.7046 72.3356 93.3621 72.4746 93.0007 72.5422C92.7337 72.5951 92.4616 72.6213 92.189 72.6202Z" fill="#BEADD6"/>
<path d="M105.97 81.0313L104.218 80.9087C104.259 80.3517 104.691 75.5168 107.138 73.6229C107.517 73.3274 107.956 73.1107 108.428 72.987C108.899 72.8632 109.393 72.8351 109.877 72.9043L109.632 74.5754C109.385 74.539 109.132 74.5535 108.891 74.6178C108.651 74.6822 108.427 74.795 108.236 74.9486C106.659 76.1462 106.064 79.7446 105.97 81.0313Z" fill="#BEADD6"/>
<path d="M100.078 50.3949C99.8345 50.3959 99.5931 50.3544 99.3654 50.2723C97.5668 49.6373 96.7843 46.6517 96.65 46.0612L98.3552 45.6936C98.618 46.8077 99.3304 48.4787 99.9727 48.7071C100.025 48.7071 100.165 48.7739 100.481 48.5511L101.532 49.888C101.119 50.2059 100.608 50.3842 100.078 50.3949Z" fill="#BEADD6"/>
<path d="M118.817 48.1059H117.065C117.065 46.0338 112.691 43.0147 109.935 41.5999L110.764 40.1293C111.588 40.5527 118.817 44.3739 118.817 48.1059Z" fill="#BEADD6"/>
<path d="M125.451 65.3624C124.038 63.786 123.39 62.2375 123.536 60.7614C123.637 59.7107 124.155 58.7365 124.984 58.0375L126.082 59.341L125.533 58.6893L126.088 59.3354C125.615 59.7562 125.326 60.3306 125.276 60.9452C125.194 61.9478 125.696 63.0675 126.783 64.2873L125.451 65.3624Z" fill="#BEADD6"/>
<path d="M146.754 78.0012L145.189 77.2548C146.52 74.7148 140.938 71.6846 140.879 71.6846L141.72 70.2141C142.012 70.3644 148.862 74.0074 146.754 78.0012Z" fill="#BEADD6"/>
<path d="M132.505 73.7621C129.755 71.1385 132.237 66.3202 132.342 66.1141L133.907 66.8605C133.323 67.9746 132.202 71.1106 133.743 72.5812L132.505 73.7621Z" fill="#BEADD6"/>
<path d="M130.789 90.5065L129.621 89.2588C130 88.9357 133.405 86.0949 136.167 86.741C136.748 86.8923 137.279 87.184 137.707 87.5879C138.136 87.9919 138.448 88.4945 138.614 89.0471L136.978 89.6041C136.558 88.5346 135.951 88.3954 135.752 88.3452C134.17 87.9943 131.577 89.8325 130.789 90.5065Z" fill="#BEADD6"/>
<path d="M137.364 98.6165C136.873 98.6167 136.383 98.5794 135.898 98.5051L136.184 96.834C136.435 96.873 142.363 97.7253 143.355 92.4948L145.107 92.7956C144.202 97.4356 140.225 98.6165 137.364 98.6165Z" fill="#BEADD6"/>
<path d="M148.29 83.8334L147.151 82.5634C147.408 82.3517 149.738 80.5135 151.957 80.9424C152.483 81.0524 152.975 81.2806 153.39 81.608C153.805 81.9355 154.133 82.3528 154.345 82.8252L152.78 83.5716C152.679 83.3313 152.521 83.1167 152.319 82.9447C152.116 82.7726 151.874 82.6478 151.612 82.5801C150.439 82.3629 148.815 83.4101 148.29 83.8334Z" fill="#BEADD6"/>
<path d="M107.354 30.7153C106.367 30.0354 105.31 29.4513 104.201 28.9718C103.033 28.4593 103.033 28.4593 103.033 26.3816C102.963 24.5924 102.582 22.8268 101.906 21.1567C102.618 18.3716 103.126 10.9409 88.2354 10.9576C88.2354 10.9576 82.9448 9.71548 81.9929 13.6481C81.9929 13.6481 81.9929 13.6926 81.9929 13.7205C81.0936 17.7422 76.1183 16.5056 74.5066 18.6557C72.8949 20.8058 73.6306 21.9366 74.3197 24.5323C75.0088 27.128 72.7197 26.3259 70.7459 27.7408C68.7721 29.1556 66.2085 31.0829 69.6247 32.676L80.0016 34.7648L78.0921 38.3576C77.8551 38.7976 77.7153 39.2792 77.6813 39.7728C77.6473 40.2664 77.7199 40.7613 77.8945 41.2271C78.0691 41.6928 78.3421 42.1194 78.6965 42.4805C79.0509 42.8416 79.4792 43.1294 79.9549 43.3263L87.996 46.6684C88.4771 46.8677 88.9956 46.9719 89.5201 46.9748C90.0355 46.9732 90.5453 46.8717 91.0183 46.6764C91.4913 46.4811 91.9177 46.1961 92.2717 45.8386C92.6256 45.4812 92.8996 45.0589 93.0771 44.5973C93.2546 44.1357 93.3319 43.6445 93.3042 43.1536L92.8428 34.8372C93.2846 34.7763 93.7151 34.6563 94.1217 34.4807C95.459 34.5197 98.2094 34.542 99.2372 34.542C104.843 34.542 107.903 33.9181 108.347 32.676C108.516 32.1969 108.481 31.4784 107.354 30.7153ZM94.291 32.3975C93.9431 32.6956 93.534 32.9214 93.0896 33.0604C92.6452 33.1995 92.1754 33.2488 91.71 33.2052C91.0153 33.1455 90.3351 32.98 89.6953 32.715C89.5711 32.1283 89.2467 31.5975 88.7726 31.2054C86.5186 29.3004 84.6441 27.7742 86.2266 26.3482C87.8091 24.9222 87.4879 23.0729 86.3784 21.5689C86.3674 21.5549 86.3576 21.54 86.3492 21.5244C86.2294 21.3463 86.178 21.1341 86.204 20.924C86.2299 20.7138 86.3315 20.5188 86.4914 20.3722C86.6513 20.2255 86.8597 20.1364 87.0808 20.12C87.302 20.1036 87.5222 20.1609 87.704 20.2822L90.0398 21.8586L96.5159 22.048C96.5159 22.1092 96.5159 22.1761 96.5159 22.2429C96.5127 22.2688 96.5127 22.295 96.5159 22.3209V22.4546C96.5192 22.4824 96.5192 22.5104 96.5159 22.5382C96.5918 23.7079 96.5159 28.3201 95.348 31.1609C95.0637 31.622 94.7073 32.039 94.291 32.3975ZM90.6822 44.9305C90.3963 45.1223 90.0633 45.2405 89.7155 45.2736C89.3677 45.3068 89.0168 45.2539 88.6967 45.1199L80.6556 41.7777C80.3999 41.6715 80.1697 41.5165 79.9791 41.3222C79.7886 41.1279 79.6417 40.8984 79.5476 40.648C79.4536 40.3975 79.4142 40.1313 79.432 39.8658C79.4498 39.6002 79.5244 39.341 79.6512 39.104L81.7827 35.1269L88.7902 36.5362C89.1843 35.8947 89.4738 35.1997 89.6486 34.4752C90.1162 34.6293 90.5968 34.7449 91.0851 34.8205L91.5523 43.226C91.5718 43.5573 91.5021 43.8879 91.3498 44.1863C91.1975 44.4846 90.9677 44.7408 90.6822 44.9305ZM96.5218 32.8097C96.6844 32.5326 96.8287 32.2461 96.9539 31.9518C98.7466 29.0887 98.7058 25.0893 98.3087 22.1817V22.1148L100.434 22.1761C100.951 23.5263 101.242 24.9453 101.299 26.3816C101.299 29.2503 101.678 29.6903 103.459 30.4869C104.472 30.9222 105.437 31.4541 106.338 32.0744L106.478 32.1747C105.188 32.7038 100.639 32.9211 96.4926 32.7874L96.5218 32.8097Z" fill="#353A48"/>
<path d="M227.725 35.0159C226.975 35.0159 226.241 35.2282 225.617 35.6261C224.992 36.0239 224.506 36.5894 224.219 37.251C223.931 37.9125 223.856 38.6405 224.003 39.3429C224.149 40.0452 224.511 40.6904 225.041 41.1967C225.572 41.7031 226.249 42.0479 226.985 42.1876C227.721 42.3273 228.484 42.2556 229.178 41.9816C229.872 41.7075 230.464 41.2435 230.881 40.648C231.299 40.0526 231.521 39.3526 231.521 38.6365C231.52 37.6767 231.119 36.7566 230.408 36.078C229.696 35.3993 228.732 35.0173 227.725 35.0159ZM227.725 40.5861C227.321 40.5861 226.926 40.4718 226.59 40.2575C226.254 40.0433 225.992 39.7388 225.837 39.3826C225.682 39.0264 225.642 38.6344 225.721 38.2562C225.8 37.878 225.994 37.5306 226.28 37.258C226.566 36.9853 226.93 36.7996 227.327 36.7244C227.723 36.6492 228.134 36.6878 228.508 36.8353C228.881 36.9829 229.2 37.2328 229.425 37.5534C229.649 37.874 229.769 38.2509 229.769 38.6365C229.769 39.1536 229.554 39.6495 229.171 40.0151C228.787 40.3807 228.267 40.5861 227.725 40.5861Z" fill="#353A48"/>
<path d="M178.089 42.8139C177.454 42.8139 176.833 42.9936 176.305 43.3302C175.777 43.6669 175.365 44.1453 175.122 44.7051C174.879 45.2649 174.815 45.8809 174.939 46.4752C175.063 47.0695 175.369 47.6154 175.818 48.0438C176.267 48.4723 176.839 48.7641 177.462 48.8823C178.086 49.0005 178.731 48.9398 179.318 48.708C179.905 48.4761 180.407 48.0834 180.76 47.5796C181.112 47.0758 181.301 46.4835 181.301 45.8775C181.299 45.0655 180.96 44.2871 180.358 43.7128C179.756 43.1386 178.94 42.8154 178.089 42.8139ZM178.089 47.2701C177.8 47.2701 177.518 47.1884 177.278 47.0354C177.038 46.8824 176.851 46.6649 176.74 46.4104C176.63 46.156 176.601 45.876 176.657 45.6059C176.714 45.3357 176.853 45.0876 177.057 44.8928C177.261 44.6981 177.521 44.5655 177.804 44.5117C178.087 44.458 178.381 44.4856 178.648 44.591C178.915 44.6964 179.143 44.8749 179.303 45.1039C179.463 45.3329 179.549 45.6021 179.549 45.8775C179.549 46.2469 179.395 46.6011 179.121 46.8622C178.848 47.1234 178.476 47.2701 178.089 47.2701Z" fill="#353A48"/>
<path d="M223.638 95.7312C222.54 95.7312 221.468 96.0416 220.556 96.623C219.643 97.2045 218.932 98.0309 218.512 98.9979C218.092 99.9648 217.983 101.029 218.197 102.055C218.411 103.082 218.939 104.025 219.715 104.765C220.491 105.505 221.479 106.009 222.555 106.213C223.632 106.417 224.747 106.312 225.761 105.912C226.774 105.511 227.641 104.833 228.25 103.963C228.86 103.093 229.185 102.07 229.185 101.023C229.184 99.6199 228.599 98.2748 227.559 97.2827C226.519 96.2907 225.109 95.7327 223.638 95.7312ZM223.638 104.644C222.887 104.644 222.153 104.431 221.529 104.033C220.905 103.636 220.418 103.07 220.131 102.408C219.844 101.747 219.768 101.019 219.915 100.317C220.061 99.6142 220.423 98.9691 220.954 98.4627C221.485 97.9564 222.161 97.6115 222.897 97.4718C223.633 97.3321 224.397 97.4038 225.09 97.6779C225.784 97.9519 226.377 98.416 226.794 99.0114C227.211 99.6068 227.433 100.307 227.433 101.023C227.432 101.983 227.031 102.903 226.32 103.581C225.608 104.26 224.644 104.642 223.638 104.644Z" fill="#353A48"/>
<path d="M179.841 119.126C178.743 119.126 177.671 119.436 176.759 120.018C175.846 120.599 175.135 121.426 174.715 122.393C174.296 123.36 174.186 124.424 174.4 125.45C174.614 126.477 175.142 127.419 175.918 128.16C176.694 128.9 177.682 129.404 178.758 129.608C179.835 129.812 180.95 129.707 181.964 129.307C182.977 128.906 183.844 128.228 184.453 127.358C185.063 126.487 185.388 125.464 185.388 124.418C185.387 123.015 184.802 121.67 183.762 120.678C182.722 119.685 181.312 119.127 179.841 119.126ZM179.841 128.038C179.09 128.038 178.356 127.826 177.732 127.428C177.108 127.03 176.621 126.465 176.334 125.803C176.047 125.142 175.971 124.414 176.118 123.711C176.264 123.009 176.626 122.364 177.157 121.858C177.688 121.351 178.364 121.006 179.1 120.867C179.836 120.727 180.6 120.799 181.293 121.073C181.987 121.347 182.58 121.811 182.997 122.406C183.414 123.002 183.636 123.702 183.636 124.418C183.635 125.378 183.234 126.298 182.523 126.976C181.811 127.655 180.847 128.037 179.841 128.038Z" fill="#353A48"/>
<path d="M250.792 18.3051H206.726V0.201874H204.974V18.3051H164.95V135.837H200.957L180.898 256.711L180.763 257.536L182.515 257.797L182.696 256.711L202.744 135.837H208.84L208.747 256.711V257.268H210.499V256.711L210.575 135.837H217.839L238.277 256.711L238.534 258.237L240.286 257.97L240.076 256.711L219.638 135.837H250.792V18.3051ZM249.04 134.166H166.702V19.9762H249.04V134.166Z" fill="#353A48"/>
<path d="M182.889 109.841C183.385 110.097 183.905 110.359 184.448 110.621C188.254 112.399 192.152 113.99 196.127 115.389L198.142 116.113C199.995 116.77 201.918 117.44 203.912 118.124L205.588 118.681L208.32 119.617L208.852 119.8L210.604 120.402C212.239 120.959 213.884 121.516 215.538 122.073L217.43 122.736C221.138 124.034 224.876 125.387 228.584 126.813C232.876 128.484 235.755 129.264 237.577 129.264C238.704 129.264 239.428 128.958 239.825 128.356C241.694 125.499 233.401 117.634 214.014 100.884L213.687 100.6L211.602 98.8006L210.615 97.9539L209.447 96.9457L209.22 96.7508L208.864 96.4444L207.696 95.4195C205.05 93.1468 202.399 90.863 199.83 88.6238C203.147 87.2591 206.329 85.9835 209.331 84.7803L209.471 84.7246C209.961 84.5241 210.446 84.3347 210.925 84.1342C214.353 82.7639 217.477 81.4995 220.268 80.3186C221.265 79.8952 222.217 79.4812 223.124 79.0764C231.153 75.4892 235.439 72.6484 234.464 69.5402L232.782 70.0192C233.419 72.0468 229.028 74.6202 222.061 77.7061C221.24 78.0775 220.383 78.4488 219.492 78.8202C216.8 79.9621 213.815 81.1708 210.656 82.4408L209.81 82.7862L208.642 83.243C206.014 84.3013 203.259 85.4153 200.379 86.5851L198.405 87.3928L197.821 86.9026C193.044 82.7193 188.635 78.7422 185.149 75.3276C181.155 71.4285 179.537 67.0893 180.349 62.466C181.68 54.8292 189.283 47.3929 197.062 41.6054C197.523 41.2601 197.99 40.9203 198.452 40.5861C203.778 36.7865 209.407 33.3895 215.287 30.426L214.493 28.9332C208.493 31.9266 202.754 35.3725 197.33 39.2381L195.941 40.2575C187.929 46.2232 180.051 53.9992 178.62 62.1875C177.715 67.3678 179.49 72.1805 183.876 76.4974C187.38 79.9287 191.812 83.9225 196.6 88.1225C192.974 89.6264 189.196 91.2418 185.295 92.9797C178.288 96.099 175.128 99.0123 175.286 102.143C175.461 104.917 178.247 107.395 182.889 109.841ZM186.054 94.5394C189.005 93.2174 191.884 91.9678 194.691 90.7906L198.002 89.4148C201.033 92.0551 204.18 94.7622 207.304 97.447L208.233 98.2492L208.852 98.8062L210.575 100.288L211.643 101.207L212.011 101.524L214.09 103.312C219.965 108.387 225.623 113.339 229.933 117.45C238.599 125.705 238.418 127.315 238.295 127.549C238.26 127.588 237.302 128.468 229.197 125.348C225.162 123.794 221.097 122.335 217.068 120.926L215.205 120.24L210.586 118.653L208.893 118.096H208.834L205.827 117.026L204.151 116.469C202.685 115.968 201.231 115.461 199.83 114.96C199.17 114.731 198.516 114.498 197.868 114.264C193.517 112.752 189.252 111.025 185.091 109.089C184.553 108.833 184.034 108.571 183.543 108.309C179.584 106.226 177.12 104.17 177.02 102.132C176.933 99.8033 179.964 97.2577 186.054 94.5394Z" fill="#353A48"/>
<path d="M223.065 79.1265L222.02 78.4581V77.7562C221.869 74.2586 221.01 70.8219 219.492 67.6351C221.395 65.964 223.229 64.3487 224.969 62.8336C233.939 55.0352 239.352 50.3061 238.102 47.0308C237.361 45.1091 234.529 44.151 228.928 43.9282C220.087 43.578 211.231 44.1251 202.51 45.5603L198.422 40.6306L198.078 40.2184C197.803 39.8898 197.541 39.5779 197.301 39.2826C196.244 38.0238 195.438 37.0545 194.89 36.4307C193.92 35.3166 193.517 34.8487 192.816 35.3612C192.116 35.8736 192.39 36.3026 193.716 38.0182L193.885 37.8956C194.358 38.4527 195.012 39.2214 195.911 40.302L197.068 41.65C198.025 42.803 199.193 44.2123 200.571 45.9279C192.396 47.599 186.019 50.295 184.921 54.2833C183.824 58.2716 188.069 62.6386 197.535 67.2341C202.131 69.4622 206.411 71.6178 210.329 73.7067C205.908 77.904 201.724 82.3237 197.798 86.9471C196.746 88.2004 195.701 89.4816 194.679 90.7906C191.261 95.1454 188.186 99.7368 185.482 104.527C184.717 105.891 184.08 107.139 183.555 108.287C183.304 108.844 183.082 109.345 182.878 109.841C180.372 116.04 181.529 118.753 183.193 119.867C184.116 120.469 185.217 120.771 186.335 120.731C189.517 120.731 193.786 118.904 198.113 116.091C198.697 115.717 199.281 115.322 199.865 114.915C201.699 113.613 203.453 112.213 205.12 110.721C205.837 110.082 206.536 109.429 207.217 108.76C207.258 108.721 207.299 108.688 207.334 108.649C207.842 108.147 208.344 107.641 208.84 107.117C209.436 106.489 210.02 105.847 210.592 105.19C211.176 104.516 211.76 103.825 212.315 103.123C212.543 102.845 212.764 102.566 212.975 102.276C213.185 101.987 213.512 101.575 213.769 101.218L213.997 100.912C218.452 94.712 221.588 87.649 221.979 80.4467C229.758 85.4933 234.68 90.2336 235.772 94.9293C236.491 98.0375 235.545 101.129 232.853 104.399L234.231 105.424C237.244 101.753 238.318 98.1823 237.46 94.5783C236.286 89.4259 231.241 84.4405 223.065 79.1265ZM220.198 77.3496C218.049 76.0462 215.723 74.7149 213.22 73.3558C214.878 71.8035 216.51 70.3181 218.113 68.8996C219.307 71.5826 220.012 74.4403 220.198 77.3496ZM228.858 45.5993C234.575 45.8277 236.134 46.8136 236.45 47.6046C237.296 49.8326 231.036 55.2859 223.784 61.6026C222.153 63.0174 220.451 64.5028 218.68 66.0587C217.788 64.4579 216.751 62.9351 215.579 61.5079C210.907 55.7557 206.96 50.9281 203.736 47.0253C212.037 45.7261 220.455 45.2483 228.858 45.5993ZM198.341 65.7412C189.832 61.6081 185.78 57.7925 186.627 54.7066C187.52 51.448 193.564 48.9414 201.78 47.3817C204.817 51.0692 208.846 55.9933 214.189 62.5439C215.393 64.0155 216.447 65.5935 217.337 67.2563C215.48 68.9274 213.57 70.6542 211.637 72.4757C207.579 70.32 203.158 68.0807 198.341 65.7412ZM213.36 98.8229C213.138 99.1515 212.916 99.4746 212.683 99.7921C212.449 100.11 212.18 100.494 211.924 100.839L211.667 101.174C211.316 101.636 210.96 102.093 210.598 102.538C210.014 103.24 209.43 103.908 208.846 104.577C208.478 105 208.099 105.412 207.713 105.819C207.176 106.376 206.633 106.933 206.078 107.49L205.588 107.964C203.222 110.262 200.648 112.357 197.897 114.225C197.313 114.637 196.7 115.016 196.116 115.372C190.673 118.681 186.107 119.828 184.244 118.525C182.72 117.466 182.825 114.67 184.454 110.604C184.653 110.103 184.875 109.585 185.12 109.05C185.657 107.886 186.288 106.632 187.041 105.301C190.211 99.7094 193.88 94.3887 198.008 89.398C198.786 88.4585 199.565 87.5301 200.344 86.6129C204.128 82.2403 208.058 78.2241 211.924 74.5422C214.621 76.0072 217.132 77.4387 219.433 78.848L220.245 79.3493C220.245 79.6835 220.233 80.0177 220.21 80.352C219.842 86.819 217.208 93.1524 213.36 98.8229Z" fill="#BEADD6"/>
<path d="M55.9168 257.793L55.7378 258L55.5755 258.183H18.1182L17.8851 258L17.6271 257.793C9.55295 251.196 24.7024 252.259 21.0315 248.81C17.2858 245.295 16.0372 241.39 21.0315 240.609C24.2487 240.105 27.4617 242.354 29.5676 242.975C27.7107 238.236 26.338 233.341 25.4682 228.357C21.6725 228.658 4.825 229.822 6.67289 226.354C8.48333 222.952 21.9513 226.94 25.4016 228.029C24.9229 225.409 24.5068 222.523 24.1821 219.347C20.1908 219.441 2.69409 219.668 7.49696 216.2C12.0459 212.915 21.2979 217.371 24.1447 218.859C23.9282 216.664 23.7576 214.341 23.6411 211.872C20.4197 211.654 3.24763 210.31 6.26086 206.045C9.21167 201.894 20.9774 209.697 23.6244 211.513C23.5162 209.099 23.4663 206.553 23.4746 203.874C20.7152 203.042 10.2313 199.804 4.59609 196.899C4.14661 196.664 3.72625 196.434 3.34752 196.208C0.579835 194.563 -0.23174 193.107 3.34752 192.361C3.75983 192.275 4.17658 192.21 4.59609 192.165C13.5359 191.228 21.2022 200.191 23.4746 203.148C23.4746 200.457 23.5786 197.633 23.7409 194.673L24.9895 194.735L24.9271 195.95C26.4462 191.084 29.1265 181.96 32.0648 185.331C35.1779 188.9 27.52 195.743 24.8439 197.949C24.7301 201.048 24.6982 203.987 24.7481 206.768C28.0236 201.89 37.467 188.803 41.221 193.923C45.1582 199.297 29.2805 206.221 24.7731 208.049C24.7731 208.158 24.7731 208.268 24.7731 208.377C24.8397 210.955 24.9646 213.394 25.1477 215.696C27.5658 213.52 41.3209 201.402 42.4613 206.03C43.6017 210.658 27.8404 215.223 25.1727 215.938C25.414 219.035 25.747 221.886 26.1424 224.499C28.0485 222.261 35.3527 214.231 40.3845 216.59C45.6535 219.062 29.372 223.991 26.2048 224.913C27.5033 233.321 29.4261 239.261 30.9869 243.05C31.4031 242.893 31.6986 242.503 31.8525 241.78C32.6849 237.875 40.1764 230.845 50.9974 230.064C61.8184 229.283 45.1707 240.999 41.8412 246.467C38.5116 251.935 48.0841 249.591 56.4079 248.81C63.7495 248.123 57.49 255.942 55.9168 257.793Z" fill="#353A48"/>
</svg>
