<svg width="30" height="27" viewBox="0 0 30 27" fill="none" xmlns="http://www.w3.org/2000/svg">
<path d="M19.9118 22.0996C19.9118 23.0779 19.3972 24.0161 18.4811 24.7078C17.565 25.3996 16.3225 25.7882 15.0269 25.7882C13.7314 25.7882 12.4889 25.3996 11.5728 24.7078C10.6567 24.0161 10.142 23.0779 10.142 22.0996M16.2009 4.88945L13.8139 4.88576C8.36881 4.87593 3.64185 8.21663 3.60439 12.2631V16.9231C3.60439 17.8945 3.44156 18.8425 2.73977 19.6503L2.27244 20.1888C1.56087 21.0053 2.32618 22.0996 3.60439 22.0996H26.4495C27.7277 22.0996 28.4914 21.0053 27.7814 20.1888L27.3141 19.6503C26.6139 18.8425 26.4495 17.8932 26.4495 16.9219V12.2643C26.3843 8.21663 21.646 4.89929 16.2009 4.88945V4.88945Z" stroke="#573926" stroke-width="2.4" stroke-linecap="round" stroke-linejoin="round"/>
<path d="M15.0269 1.19702C15.8906 1.19702 16.719 1.45611 17.3297 1.91728C17.9404 2.37845 18.2835 3.00394 18.2835 3.65613V4.88569H11.7703V3.65613C11.7703 3.00394 12.1134 2.37845 12.7242 1.91728C13.3349 1.45611 14.1632 1.19702 15.0269 1.19702Z" stroke="#573926" stroke-width="2.4" stroke-linecap="round" stroke-linejoin="round"/>
</svg>
