<svg width="14" height="15" viewBox="0 0 14 15" fill="none" xmlns="http://www.w3.org/2000/svg">
<path d="M7 0.288536C3.13996 0.288536 0 3.4288 0 7.28854C0 11.1483 3.13996 14.2885 7 14.2885C10.86 14.2885 14 11.1483 14 7.28854C14 3.4288 10.86 0.288536 7 0.288536ZM9.7828 7.53378L5.69948 10.1588C5.65163 10.1898 5.59636 10.2052 5.54168 10.2052C5.49382 10.2052 5.4454 10.1932 5.40211 10.1696C5.30811 10.1183 5.25 10.0203 5.25 9.91354V4.66354C5.25 4.55673 5.30811 4.45873 5.40211 4.40746C5.4944 4.35677 5.61004 4.35988 5.69948 4.41829L9.7828 7.04329C9.86598 7.09683 9.91668 7.18941 9.91668 7.28854C9.91668 7.38766 9.86598 7.48022 9.7828 7.53378Z" fill="#9AC6CF"/>
</svg>
