<svg width="30" height="37" viewBox="0 0 30 37" fill="none" xmlns="http://www.w3.org/2000/svg">
<path d="M19.8163 30.0502C19.8163 31.363 19.3043 32.6221 18.3931 33.5504C17.4819 34.4787 16.2461 35.0002 14.9574 35.0002C13.6688 35.0002 12.4329 34.4787 11.5217 33.5504C10.6105 32.6221 10.0986 31.363 10.0986 30.0502M16.1252 6.95517L13.7508 6.95022C8.33482 6.93702 3.63308 11.4201 3.59583 16.8502V23.1037C3.59583 24.4072 3.43387 25.6794 2.73582 26.7634L2.27099 27.4861C1.56322 28.5817 2.32444 30.0502 3.59583 30.0502H26.319C27.5904 30.0502 28.35 28.5817 27.6438 27.4861L27.179 26.7634C26.4826 25.6794 26.319 24.4056 26.319 23.1021V16.8519C26.2542 11.4201 21.5411 6.96837 16.1252 6.95517V6.95517Z" stroke="#573926" stroke-width="2.4" stroke-linecap="round" stroke-linejoin="round"/>
<path d="M14.9574 2.00049C15.8165 2.00049 16.6404 2.34817 17.2479 2.96704C17.8554 3.58591 18.1967 4.42527 18.1967 5.30049V6.95049H11.7182V5.30049C11.7182 4.42527 12.0595 3.58591 12.6669 2.96704C13.2744 2.34817 14.0983 2.00049 14.9574 2.00049Z" stroke="#573926" stroke-width="2.4" stroke-linecap="round" stroke-linejoin="round"/>
</svg>
