<svg width="27" height="34" viewBox="0 0 27 34" fill="none" xmlns="http://www.w3.org/2000/svg">
<path d="M18.1967 27.4999C18.1967 28.6934 17.7313 29.8379 16.9029 30.6818C16.0746 31.5258 14.9511 31.9999 13.7796 31.9999C12.6081 31.9999 11.4845 31.5258 10.6562 30.6818C9.82779 29.8379 9.36242 28.6934 9.36242 27.4999M14.8411 6.50453L12.6826 6.50003C7.759 6.48803 3.48468 10.5635 3.45082 15.5V21.1849C3.45082 22.3699 3.30358 23.5264 2.66898 24.5119L2.24641 25.1689C1.60298 26.1649 2.295 27.4999 3.45082 27.4999H24.1083C25.2641 27.4999 25.9547 26.1649 25.3127 25.1689L24.8901 24.5119C24.257 23.5264 24.1083 22.3684 24.1083 21.1834V15.5015C24.0494 10.5635 19.7648 6.51653 14.8411 6.50453V6.50453Z" stroke="#573926" stroke-width="2.4" stroke-linecap="round" stroke-linejoin="round"/>
<path d="M13.7797 2C14.5607 2 15.3097 2.31607 15.862 2.87867C16.4142 3.44128 16.7245 4.20434 16.7245 4.99998V6.49997H10.835V4.99998C10.835 4.20434 11.1452 3.44128 11.6975 2.87867C12.2497 2.31607 12.9987 2 13.7797 2Z" stroke="#573926" stroke-width="2.4" stroke-linecap="round" stroke-linejoin="round"/>
</svg>
