<svg width="56" height="52" viewBox="0 0 56 52" fill="none" xmlns="http://www.w3.org/2000/svg">
<path d="M36.328 15.9692C33.8556 15.9692 31.7209 17.889 31.7209 20.3846C31.7209 22.8801 33.8556 24.8 36.328 24.8C38.8004 24.8 40.935 22.8801 40.935 20.3846C40.935 17.889 38.8004 15.9692 36.328 15.9692Z" stroke="#D9D8D8" stroke-width="2.36923"/>
<path d="M24.9197 13.8154C21.8177 13.8154 19.1718 16.2178 19.1718 19.3077C19.1718 22.3976 21.8177 24.8 24.9197 24.8C28.0217 24.8 30.6676 22.3976 30.6676 19.3077C30.6676 16.2178 28.0217 13.8154 24.9197 13.8154Z" stroke="#D9D8D8" stroke-width="2.36923"/>
<path d="M41.6102 26.3491L41.6102 26.3491C39.9508 25.2471 37.6664 24.5847 35.1874 24.5847C32.7084 24.5847 30.424 25.2471 28.7646 26.3491L28.7646 26.3491C27.1206 27.4408 26.017 29.0017 26.017 30.7825V35.4616V36.6462H27.2017H42.0962C43.3452 36.6462 44.3577 35.6337 44.3577 34.3847V30.7825C44.3577 29.0017 43.2542 27.4408 41.6102 26.3491Z" stroke="#D9D8D8" stroke-width="2.36923"/>
<path d="M33.7028 27.5343L33.7028 27.5343C31.4477 26.3696 28.3268 25.6615 24.9199 25.6615C21.5131 25.6615 18.3921 26.3696 16.137 27.5343L16.137 27.5343C13.9498 28.664 12.3271 30.3473 12.3271 32.4164V36.5384C12.3271 37.7874 13.3396 38.7999 14.5886 38.7999H35.2512C36.5002 38.7999 37.5127 37.7874 37.5127 36.5384V32.4164C37.5127 30.3473 35.89 28.664 33.7028 27.5343Z" fill="white" stroke="#D9D8D8" stroke-width="2.36923"/>
</svg>
