<svg width="52" height="52" viewBox="0 0 52 52" fill="none" xmlns="http://www.w3.org/2000/svg">
<path d="M33.5384 17.1538C31.7605 17.1538 30.3076 18.6067 30.3076 20.3846C30.3076 22.1625 31.7605 23.6153 33.5384 23.6153C35.3163 23.6153 36.7692 22.1625 36.7692 20.3846C36.7692 18.6067 35.3163 17.1538 33.5384 17.1538Z" fill="#B9DEE6" stroke="#B9DEE6"/>
<path d="M22.7696 15C20.3973 15 18.4619 16.9354 18.4619 19.3077C18.4619 21.68 20.3973 23.6154 22.7696 23.6154C25.1419 23.6154 27.0773 21.68 27.0773 19.3077C27.0773 16.9354 25.1419 15 22.7696 15Z" fill="#B9DEE6" stroke="#B9DEE6"/>
<path d="M37.9058 27.3357C39.2623 28.29 39.9998 29.5268 39.9998 30.7823V34.3844C39.9998 34.9792 39.5176 35.4614 38.9229 35.4614H24.9229V30.7823C24.9229 29.5268 25.6603 28.29 27.0169 27.3357C28.3734 26.3814 30.307 25.769 32.4613 25.769C34.6156 25.769 36.5492 26.3814 37.9058 27.3357Z" fill="#B9DEE6" stroke="#B9DEE6"/>
<path d="M30.547 28.5869C32.485 29.6473 33.5385 31.0215 33.5385 32.4165V36.5385C33.5385 37.1333 33.0563 37.6154 32.4615 37.6154H13.0769C12.4822 37.6154 12 37.1333 12 36.5385V32.4165C12 31.0215 13.0535 29.6473 14.9915 28.5869C16.9294 27.5266 19.6917 26.8462 22.7692 26.8462C25.8468 26.8462 28.6091 27.5266 30.547 28.5869Z" fill="#B9DEE6" stroke="#B9DEE6"/>
</svg>
