<svg width="36" height="34" viewBox="0 0 36 34" fill="none" xmlns="http://www.w3.org/2000/svg">
<path d="M18 0C14.4399 0 10.9598 0.991543 7.99974 2.84924C5.03966 4.70694 2.73255 7.34736 1.37018 10.4366C0.00779915 13.5258 -0.348661 16.9252 0.345873 20.2047C1.04041 23.4842 2.75474 26.4966 5.27209 28.861C7.78943 31.2254 10.9967 32.8356 14.4884 33.4879C17.98 34.1403 21.5992 33.8055 24.8883 32.5259C28.1774 31.2463 30.9886 29.0793 32.9665 26.2991C34.9443 23.5189 36 20.2502 36 16.9064C35.9954 12.4239 34.0975 8.12616 30.7229 4.95652C27.3482 1.78689 22.7725 0.00430393 18 0Z" fill="black"/>
<path d="M18 0C14.4399 0 10.9598 0.991543 7.99974 2.84924C5.03966 4.70694 2.73255 7.34736 1.37018 10.4366C0.00779912 13.5258 -0.348661 16.9252 0.345873 20.2047C1.04041 23.4842 2.75474 26.4966 5.27208 28.861C7.78943 31.2254 10.9967 32.8356 14.4884 33.4879C17.98 34.1403 21.5992 33.8055 24.8883 32.5259C28.1774 31.2463 30.9886 29.0793 32.9665 26.2991C34.9443 23.5189 36 20.2502 36 16.9064C35.9954 12.4239 34.0975 8.12616 30.7229 4.95652C27.3482 1.78689 22.7725 0.00430393 18 0ZM24.9231 18.2069H19.3846V23.4089C19.3846 23.7538 19.2387 24.0846 18.9791 24.3285C18.7194 24.5723 18.3672 24.7094 18 24.7094C17.6328 24.7094 17.2806 24.5723 17.0209 24.3285C16.7613 24.0846 16.6154 23.7538 16.6154 23.4089V18.2069H11.0769C10.7097 18.2069 10.3575 18.0699 10.0979 17.826C9.83819 17.5821 9.69231 17.2513 9.69231 16.9064C9.69231 16.5615 9.83819 16.2307 10.0979 15.9868C10.3575 15.7429 10.7097 15.6059 11.0769 15.6059H16.6154V10.4039C16.6154 10.059 16.7613 9.72824 17.0209 9.48435C17.2806 9.24046 17.6328 9.10345 18 9.10345C18.3672 9.10345 18.7194 9.24046 18.9791 9.48435C19.2387 9.72824 19.3846 10.059 19.3846 10.4039V15.6059H24.9231C25.2903 15.6059 25.6425 15.7429 25.9022 15.9868C26.1618 16.2307 26.3077 16.5615 26.3077 16.9064C26.3077 17.2513 26.1618 17.5821 25.9022 17.826C25.6425 18.0699 25.2903 18.2069 24.9231 18.2069Z" fill="#EDF1FF"/>
</svg>
