<svg width="113" height="34" viewBox="0 0 113 34" fill="none" xmlns="http://www.w3.org/2000/svg">
<path d="M56.3737 0.128052C45.2347 0.128052 34.3458 1.11959 25.084 2.97729C15.8222 4.83499 8.60357 7.47541 4.34084 10.5647C0.0781136 13.6539 -1.03721 17.0532 1.13591 20.3327C3.30903 23.6122 8.67299 26.6247 16.5495 28.9891C24.426 31.3535 34.4612 32.9637 45.3862 33.616C56.3112 34.2683 67.6353 33.9335 77.9264 32.6539C88.2176 31.3743 97.0136 29.2074 103.202 26.4271C109.391 23.6469 112.694 20.3782 112.694 17.0345C112.679 12.5519 106.741 8.25421 96.1821 5.08458C85.6232 1.91494 71.3063 0.132356 56.3737 0.128052Z" fill="black"/>
<path d="M56.3737 0.128052C45.2347 0.128052 34.3458 1.11959 25.084 2.97729C15.8222 4.83499 8.60357 7.47541 4.34084 10.5647C0.0781135 13.6539 -1.03721 17.0532 1.13591 20.3327C3.30903 23.6122 8.67299 26.6247 16.5495 28.9891C24.426 31.3535 34.4612 32.9637 45.3862 33.616C56.3112 34.2683 67.6353 33.9335 77.9265 32.6539C88.2176 31.3743 97.0136 29.2074 103.202 26.4271C109.391 23.6469 112.694 20.3782 112.694 17.0345C112.679 12.5519 106.741 8.25421 96.1821 5.08458C85.6232 1.91494 71.3063 0.132356 56.3737 0.128052ZM78.0353 18.3349H60.706V23.5369C60.706 23.8818 60.2496 24.2126 59.4371 24.4565C58.6247 24.7004 57.5227 24.8374 56.3737 24.8374C55.2247 24.8374 54.1228 24.7004 53.3103 24.4565C52.4979 24.2126 52.0414 23.8818 52.0414 23.5369V18.3349H34.7122C33.5632 18.3349 32.4613 18.1979 31.6488 17.954C30.8363 17.7102 30.3799 17.3794 30.3799 17.0345C30.3799 16.6895 30.8363 16.3588 31.6488 16.1149C32.4613 15.871 33.5632 15.734 34.7122 15.734H52.0414V10.532C52.0414 10.1871 52.4979 9.85629 53.3103 9.6124C54.1228 9.36852 55.2247 9.2315 56.3737 9.2315C57.5227 9.2315 58.6247 9.36852 59.4371 9.6124C60.2496 9.85629 60.706 10.1871 60.706 10.532V15.734H78.0353C79.1843 15.734 80.2862 15.871 81.0987 16.1149C81.9111 16.3588 82.3676 16.6895 82.3676 17.0345C82.3676 17.3794 81.9111 17.7102 81.0987 17.954C80.2862 18.1979 79.1843 18.3349 78.0353 18.3349Z" fill="#EDF1FF"/>
</svg>
