<svg width="52" height="52" viewBox="0 0 52 52" fill="none" xmlns="http://www.w3.org/2000/svg">
<path d="M33.5384 15.9692C31.1062 15.9692 29.123 17.9524 29.123 20.3846C29.123 22.8167 31.1062 24.8 33.5384 24.8C35.9706 24.8 37.9538 22.8167 37.9538 20.3846C37.9538 17.9524 35.9706 15.9692 33.5384 15.9692Z" stroke="#D9D8D8" stroke-width="2.36923"/>
<path d="M22.7696 13.8154C19.7431 13.8154 17.2773 16.2812 17.2773 19.3077C17.2773 22.3342 19.7431 24.8 22.7696 24.8C25.7961 24.8 28.2619 22.3342 28.2619 19.3077C28.2619 16.2812 25.7961 13.8154 22.7696 13.8154Z" stroke="#D9D8D8" stroke-width="2.36923"/>
<path d="M38.5874 26.3669L38.5873 26.3669C37.0058 25.2544 34.8265 24.5845 32.4613 24.5845C30.0961 24.5845 27.9168 25.2544 26.3353 26.3669L26.3353 26.3669C24.7637 27.4725 23.7382 29.0331 23.7382 30.7824V35.4615V36.6461H24.9229H38.9229C40.1719 36.6461 41.1844 35.6336 41.1844 34.3846V30.7824C41.1844 29.0331 40.159 27.4725 38.5874 26.3669Z" stroke="#D9D8D8" stroke-width="2.36923"/>
<path d="M31.1156 27.5476L31.1156 27.5476C28.9699 26.3736 26.0036 25.6615 22.7692 25.6615C19.5349 25.6615 16.5685 26.3736 14.4229 27.5476L14.4228 27.5476C12.3284 28.6935 10.8154 30.3827 10.8154 32.4164V36.5384C10.8154 37.7874 11.8279 38.7999 13.0769 38.7999H32.4615C33.7105 38.7999 34.7231 37.7874 34.7231 36.5384V32.4164C34.7231 30.3827 33.21 28.6935 31.1156 27.5476Z" fill="white" stroke="#D9D8D8" stroke-width="2.36923"/>
</svg>
