<svg width="40" height="40" viewBox="0 0 40 40" fill="none" xmlns="http://www.w3.org/2000/svg">
<circle opacity="0.05" cx="20" cy="20" r="20" fill="#161455"/>
<path fill-rule="evenodd" clip-rule="evenodd" d="M25.7212 14.2699C26.0853 14.3974 26.3287 14.7407 26.3287 15.1266V20.7707C26.3287 22.3482 25.7553 23.8541 24.7428 25.0207C24.2337 25.6082 23.5895 26.0657 22.9053 26.4357L19.9403 28.0374L16.9703 26.4349C16.2853 26.0649 15.6403 25.6082 15.1303 25.0199C14.117 23.8532 13.542 22.3466 13.542 20.7674V15.1266C13.542 14.7407 13.7853 14.3974 14.1495 14.2699L19.6345 12.3424C19.8295 12.2741 20.042 12.2741 20.2362 12.3424L25.7212 14.2699Z" stroke="#161455" stroke-linecap="round" stroke-linejoin="round"/>
<path opacity="0.4" d="M17.7695 19.9316L19.3462 21.5091L22.5945 18.2607" stroke="#161455" stroke-linecap="round" stroke-linejoin="round"/>
</svg>
