<svg width="30" height="37" viewBox="0 0 30 37" fill="none" xmlns="http://www.w3.org/2000/svg">
<path d="M19.8164 30.05C19.8164 31.3628 19.3045 32.6219 18.3932 33.5502C17.482 34.4785 16.2462 35 14.9575 35C13.6689 35 12.433 34.4785 11.5218 33.5502C10.6106 32.6219 10.0987 31.3628 10.0987 30.05M16.1253 6.95493L13.7509 6.94998C8.3349 6.93678 3.63315 11.4198 3.5959 16.85V23.1035C3.5959 24.407 3.43394 25.6791 2.73588 26.7632L2.27105 27.4859C1.56328 28.5815 2.3245 30.05 3.5959 30.05H26.3191C27.5905 30.05 28.3501 28.5815 27.644 27.4859L27.1792 26.7632C26.4827 25.6791 26.3191 24.4053 26.3191 23.1018V16.8516C26.2543 11.4198 21.5413 6.96813 16.1253 6.95493V6.95493Z" stroke="#573926" stroke-width="2.4" stroke-linecap="round" stroke-linejoin="round"/>
<path d="M14.9573 2C15.8164 2 16.6403 2.34768 17.2477 2.96655C17.8552 3.58542 18.1965 4.42479 18.1965 5.3V6.95H11.718V5.3C11.718 4.42479 12.0593 3.58542 12.6668 2.96655C13.2742 2.34768 14.0982 2 14.9573 2Z" stroke="#573926" stroke-width="2.4" stroke-linecap="round" stroke-linejoin="round"/>
</svg>
