<svg width="15" height="14" viewBox="0 0 15 14" fill="none" xmlns="http://www.w3.org/2000/svg">
<path d="M0.928019 13.2844C0.75823 13.2746 0.593867 13.221 0.450948 13.1288C0.308028 13.0367 0.191421 12.909 0.112486 12.7584C0.0335503 12.6077 -0.00502384 12.4392 0.000524149 12.2692C0.00607214 12.0993 0.0555571 11.9336 0.144148 11.7884L7.03931 0.472315C7.13215 0.319935 7.26466 0.195648 7.42267 0.11274C7.58068 0.0298322 7.75825 -0.00858076 7.9364 0.00160622C8.11455 0.0117932 8.28658 0.0701996 8.43411 0.170579C8.58163 0.270958 8.69911 0.409539 8.77398 0.57151L14.3296 12.6021C14.4012 12.7565 14.4315 12.9267 14.4176 13.0963C14.4037 13.2658 14.3461 13.4288 14.2504 13.5695C14.1547 13.7101 14.0242 13.8235 13.8715 13.8986C13.7189 13.9738 13.5494 14.008 13.3796 13.9981L0.928019 13.2844Z" fill="#EC5865"/>
<path d="M7.69861 8.73431C7.67426 8.81056 7.62529 8.87656 7.55938 8.92197C7.49347 8.96737 7.41435 8.9896 7.33444 8.98517C7.25452 8.98074 7.17834 8.94991 7.11785 8.8975C7.05736 8.84509 7.01599 8.77408 7.00022 8.69561C6.29216 5.03432 6.34054 5.29158 6.34054 5.25367C6.33944 5.08832 6.37224 4.92449 6.43693 4.77232C6.50162 4.62014 6.59683 4.48283 6.71667 4.36889C6.8365 4.25495 6.97843 4.1668 7.13368 4.10986C7.28893 4.05293 7.4542 4.02842 7.61929 4.03786C7.78437 4.04731 7.94577 4.0905 8.09351 4.16477C8.24125 4.23904 8.3722 4.34281 8.47826 4.46967C8.58432 4.59654 8.66325 4.7438 8.71017 4.90237C8.75708 5.06093 8.77098 5.22743 8.75103 5.39158C8.74377 5.42867 8.82199 5.17625 7.69861 8.73431Z" fill="#FFFDFC"/>
<path d="M8.15835 10.7892C8.14767 10.9754 8.08204 11.1542 7.96974 11.303C7.85744 11.4519 7.70351 11.5641 7.52744 11.6254C7.35137 11.6868 7.16105 11.6946 6.98056 11.6478C6.80006 11.601 6.6375 11.5017 6.51342 11.3625C6.38935 11.2234 6.30934 11.0505 6.28351 10.8658C6.25767 10.6812 6.28718 10.493 6.3683 10.3251C6.44942 10.1572 6.5785 10.0171 6.73923 9.92261C6.89995 9.82808 7.0851 9.78333 7.27125 9.79403C7.52085 9.80838 7.75452 9.92128 7.92088 10.1079C8.08724 10.2945 8.17266 10.5396 8.15835 10.7892Z" fill="#FFFDFC"/>
</svg>
