<svg width="360" height="519" viewBox="0 0 360 519" fill="none" xmlns="http://www.w3.org/2000/svg">
<path d="M255.59 68.6188L259.442 107.813L284.139 132.561L289.804 130.666L307.704 110.062C307.704 110.062 339.652 43.9894 339.199 43.2789C338.746 42.6869 313.935 1.47998 313.935 1.47998L260.688 57.9618L255.59 68.6188Z" fill="#F9F9F9"/>
<path d="M277.732 336.526L271.03 349.7L307.344 369.881L314.046 356.707L277.732 336.526Z" fill="#F9F9F9"/>
<path d="M317.781 357.688L311.079 370.862L324.484 378.311L331.186 365.137L317.781 357.688Z" fill="#F9F9F9"/>
<path d="M332.677 364.951L324.22 381.574L351.527 396.751L359.984 380.128L332.677 364.951Z" fill="#F9F9F9"/>
<path d="M228.852 2.90166L226.812 23.0315L229.192 27.2942L239.388 25.3997L260.233 0.415039L228.852 2.90166Z" fill="#F9F9F9"/>
<path d="M322.884 3.375C327.076 8.46666 332.174 20.6629 332.174 20.6629L346.448 23.268C346.448 23.268 350.187 4.5591 350.074 4.32228C349.96 3.96705 322.884 3.375 322.884 3.375Z" fill="#F9F9F9"/>
<path d="M346.222 34.2803L340.558 43.0427L346.562 46.2397L346.222 34.2803Z" fill="#F9F9F9"/>
<path d="M333.873 140.139L341.01 175.189C341.01 175.189 349.054 178.386 349.054 178.149C349.054 177.794 352.679 126.64 352.679 126.048C352.679 125.575 347.695 118.115 347.695 118.115L333.873 140.139Z" fill="#F9F9F9"/>
<path d="M336.251 421.365C332.739 428.114 324.582 430.482 318.125 426.812L274.394 401.472C267.937 397.801 265.671 389.275 269.183 382.526C272.695 375.777 280.852 373.408 287.309 377.079L331.04 402.419C337.498 406.208 339.763 414.615 336.251 421.365Z" fill="#F9F9F9"/>
<path d="M18.0166 388.447C19.2628 389.039 122.018 450.139 122.018 450.139L130.062 467.19L115.221 513.37C115.221 513.37 14.0514 519.409 12.8052 516.093C11.559 512.778 -0.223358 443.863 0.00322555 441.968C0.116517 440.074 18.0166 388.447 18.0166 388.447Z" fill="#F9F9F9"/>
<path d="M306.004 510.646C306.004 510.646 300.679 505.554 300.566 505.081C300.453 504.607 300.679 498.687 300.679 498.687C300.679 498.687 301.812 485.069 313.821 485.188C316.653 485.188 317.56 486.135 321.525 496.2C322.544 498.805 324.81 500.699 327.416 500.936C329.682 501.173 332.174 500.226 333.76 495.963C334.78 493.358 334.213 490.279 332.401 488.148L322.544 476.307C319.599 472.755 319.146 467.545 321.525 463.637L350.527 414.497L355.626 504.725C355.626 504.725 348.148 520 344.636 518.461C341.124 516.803 306.004 510.646 306.004 510.646Z" fill="#F9F9F9"/>
<path d="M180.251 417.457L185.462 416.036L205.175 427.996L195.885 446.468L200.19 448.717L198.264 453.099L172.094 436.995L180.251 417.457Z" fill="#F9F9F9"/>
<path d="M198.943 386.551C198.943 386.551 208.573 356.83 213.898 356.593C213.898 356.593 218.203 356.712 222.281 359.435C226.247 362.159 227.606 367.605 225.34 371.987L219.789 382.762C216.957 388.327 210.952 391.524 205.061 390.34C202.682 389.748 200.529 388.683 198.943 386.551Z" fill="#F9F9F9"/>
<path d="M225.793 333.622L222.055 343.095L232.138 347.002L242.9 338.95L248.678 342.858L257.062 340.371L263.859 331.727L261.933 327.82L225.793 333.622Z" fill="#F9F9F9"/>
<path d="M245.732 306.388L240.634 302.954L288.103 200.766L291.842 200.174L296.713 206.686L288.896 214.028L245.732 306.388Z" fill="#F9F9F9"/>
<path d="M242.333 445.757C245.052 448.126 248.338 449.665 251.623 451.323C253.776 452.388 256.268 453.454 258.421 452.388C260.913 451.204 261.706 447.652 260.686 444.928C259.78 442.205 257.628 440.192 255.475 438.297C251.623 434.745 245.845 430.364 240.521 433.561C235.762 436.166 239.274 443.034 242.333 445.757Z" fill="#F9F9F9"/>
<path d="M265.333 437.468C268.958 438.652 272.923 438.415 276.775 437.705C279.381 437.231 281.873 436.521 284.366 435.692C285.612 435.218 286.858 434.744 287.538 433.56C288.557 431.784 287.424 429.416 285.725 428.35C284.026 427.285 281.986 427.285 279.947 427.285C278.021 427.285 275.869 427.285 274.169 426.337C271.79 425.035 270.657 422.311 268.505 420.772C266.352 419.233 263.293 418.996 260.801 419.706C256.156 421.127 256.043 428.232 258.082 431.903C259.781 434.626 262.5 436.521 265.333 437.468Z" fill="#F9F9F9"/>
</svg>
