<svg width="277" height="194" viewBox="0 0 277 194" fill="none" xmlns="http://www.w3.org/2000/svg">
<path d="M6.7995 60.7828L0.0205078 66.5205L5.79536 73.9739L12.5743 68.2362L6.7995 60.7828Z" fill="#E2E0E1"/>
<path d="M23.3642 62.8789L16.8818 68.9795L23.0219 76.1067L29.5043 70.0062L23.3642 62.8789Z" fill="#E2E0E1"/>
<path d="M41.045 34.5824L32.8789 42.2676L37.1239 47.1951L45.29 39.5099L41.045 34.5824Z" fill="#E2E0E1"/>
<path d="M200.773 152.793L270.674 194V154.569L204.965 151.728L200.773 152.793Z" fill="#E2E0E1"/>
<path d="M232.041 56.5252L235.326 52.144L259.004 67.8927C259.004 67.8927 260.704 63.8667 261.157 63.9851C261.61 64.1035 276.565 72.9843 276.565 72.9843L274.185 82.694L232.041 56.5252Z" fill="#E2E0E1"/>
<path d="M248.129 4.5433L251.981 0.398926L258.099 6.79309L254.133 10.9375L248.129 4.5433Z" fill="#E2E0E1"/>
<path d="M224.338 97.377L223.998 114.783L235.214 115.494L234.647 131.124L207.57 130.769L206.664 147.465L273.506 150.662L271.127 132.308L243.824 131.598L244.39 115.612L256.512 116.086L256.626 97.969L224.338 97.377Z" fill="#E2E0E1"/>
<path d="M162.934 173.634L168.258 177.068L171.884 171.029L166.672 167.95L162.934 173.634Z" fill="#E2E0E1"/>
<path d="M186.272 160.846L181.74 169.49L186.272 172.332L190.69 163.688L186.272 160.846Z" fill="#E2E0E1"/>
<path d="M2.85254 150.07L10.7829 159.78L15.4279 155.28L7.61079 146.044L2.85254 150.07Z" fill="#E2E0E1"/>
<path d="M121.129 62.3271L124.528 65.1689L131.778 58.0643L128.04 54.6304L121.129 62.3271Z" fill="#E2E0E1"/>
<path d="M211.536 45.1584L236.46 22.3052L240.312 25.8575L230.909 34.1462L232.495 37.9354L220.146 49.066L211.536 45.1584Z" fill="#E2E0E1"/>
</svg>
