<svg width="30" height="37" viewBox="0 0 30 37" fill="none" xmlns="http://www.w3.org/2000/svg">
<path d="M19.8163 30.0496C19.8163 31.3624 19.3044 32.6214 18.3932 33.5497C17.482 34.478 16.2461 34.9995 14.9575 34.9995C13.6688 34.9995 12.4329 34.478 11.5217 33.5497C10.6105 32.6214 10.0986 31.3624 10.0986 30.0496M16.1252 6.95469L13.7508 6.94974C8.33487 6.93654 3.63314 11.4196 3.59589 16.8497V23.1031C3.59589 24.4066 3.43393 25.6788 2.73588 26.7628L2.27105 27.4855C1.56328 28.5811 2.3245 30.0496 3.59589 30.0496H26.319C27.5904 30.0496 28.35 28.5811 27.6439 27.4855L27.179 26.7628C26.4826 25.6788 26.319 24.405 26.319 23.1015V16.8513C26.2542 11.4196 21.5412 6.96789 16.1252 6.95469V6.95469Z" stroke="#573926" stroke-width="2.4" stroke-linecap="round" stroke-linejoin="round"/>
<path d="M14.9572 2C15.8163 2 16.6402 2.34768 17.2477 2.96654C17.8552 3.58541 18.1965 4.42477 18.1965 5.29998V6.94997H11.718V5.29998C11.718 4.42477 12.0593 3.58541 12.6668 2.96654C13.2742 2.34768 14.0981 2 14.9572 2Z" stroke="#573926" stroke-width="2.4" stroke-linecap="round" stroke-linejoin="round"/>
</svg>
