<svg width="58" height="52" viewBox="0 0 58 52" fill="none" xmlns="http://www.w3.org/2000/svg">
<path d="M37.3605 15.9692C34.8669 15.9692 32.6562 17.8589 32.6562 20.3846C32.6562 22.9102 34.8669 24.8 37.3605 24.8C39.8541 24.8 42.0647 22.9102 42.0647 20.3846C42.0647 17.8589 39.8541 15.9692 37.3605 15.9692Z" stroke="#D9D8D8" stroke-width="2.36923"/>
<path d="M25.6284 13.8154C22.4873 13.8154 19.7509 16.1877 19.7509 19.3077C19.7509 22.4277 22.4873 24.8 25.6284 24.8C28.7695 24.8 31.5059 22.4277 31.5059 19.3077C31.5059 16.1877 28.7695 13.8154 25.6284 13.8154Z" stroke="#D9D8D8" stroke-width="2.36923"/>
<path d="M42.761 26.3405L42.7609 26.3405C41.0623 25.2437 38.7245 24.5844 36.1871 24.5844C33.6497 24.5844 31.3119 25.2437 29.6132 26.3405L29.6132 26.3405C27.9335 27.4252 26.79 28.9857 26.79 30.7823V35.4614V36.646H27.9746H43.3227C44.5717 36.646 45.5842 35.6334 45.5842 34.3844V30.7823C45.5842 28.9857 44.4407 27.4252 42.761 26.3405Z" stroke="#D9D8D8" stroke-width="2.36923"/>
<path d="M34.6335 27.5283L34.6335 27.5283C32.323 26.3679 29.1234 25.6616 25.6286 25.6616C22.1338 25.6616 18.9342 26.3679 16.6237 27.5283L16.6237 27.5283C14.3902 28.6501 12.7119 30.33 12.7119 32.4165V36.5385C12.7119 37.7875 13.7244 38.8 14.9734 38.8H36.2838C37.5328 38.8 38.5454 37.7875 38.5454 36.5385V32.4165C38.5454 30.33 36.8671 28.6501 34.6335 27.5283Z" fill="white" stroke="#D9D8D8" stroke-width="2.36923"/>
</svg>
