<svg width="54" height="52" viewBox="0 0 54 52" fill="none" xmlns="http://www.w3.org/2000/svg">
<path d="M34.5622 15.9692C32.1139 15.9692 30.069 17.926 30.069 20.3846C30.069 22.8431 32.1139 24.8 34.5622 24.8C37.0104 24.8 39.0553 22.8431 39.0553 20.3846C39.0553 17.926 37.0104 15.9692 34.5622 15.9692Z" stroke="#D9D8D8" stroke-width="2.36923"/>
<path d="M23.5339 13.8154C20.477 13.8154 17.9379 16.2548 17.9379 19.3077C17.9379 22.3606 20.477 24.8 23.5339 24.8C26.5907 24.8 29.1298 22.3606 29.1298 19.3077C29.1298 16.2548 26.5907 13.8154 23.5339 13.8154Z" stroke="#D9D8D8" stroke-width="2.36923"/>
<path d="M39.7056 26.3598L39.7056 26.3597C38.0924 25.2516 35.8706 24.5849 33.4594 24.5849C31.0483 24.5849 28.8265 25.2516 27.2133 26.3597L27.2133 26.3598C25.612 27.4597 24.555 29.0206 24.555 30.7828V35.4618V36.6465H25.7396H40.1023C41.3513 36.6465 42.3639 35.6339 42.3639 34.3849V30.7828C42.3639 29.0206 41.3069 27.4597 39.7056 26.3598Z" stroke="#D9D8D8" stroke-width="2.36923"/>
<path d="M32.0571 27.5421L32.057 27.5421C29.867 26.372 26.8381 25.6616 23.5339 25.6616C20.2298 25.6616 17.2008 26.372 15.0108 27.5421L15.0108 27.5421C12.8785 28.6814 11.321 30.3683 11.321 32.4165V36.5385C11.321 37.7875 12.3335 38.8 13.5825 38.8H33.4853C34.7343 38.8 35.7468 37.7875 35.7468 36.5385V32.4165C35.7468 30.3683 34.1894 28.6814 32.0571 27.5421ZM15.5686 28.5861L15.5681 28.5852L15.5686 28.5861Z" fill="white" stroke="#D9D8D8" stroke-width="2.36923"/>
</svg>
