<svg width="344" height="522" viewBox="0 0 344 522" fill="none" xmlns="http://www.w3.org/2000/svg">
<path d="M183.43 102.3C182.75 103.011 182.75 104.195 183.543 104.905L212.546 133.561L216.624 167.426L208.354 206.146L179.351 174.412L186.262 167.308C186.942 166.597 186.942 165.413 186.262 164.703C185.583 163.992 184.45 163.992 183.77 164.703L164.963 184.004L124.065 139.126C123.385 138.416 122.253 138.416 121.573 139.008C120.893 139.718 120.893 140.902 121.46 141.613L162.811 186.964L159.639 194.068L127.351 224.145L99.5942 189.806C99.481 189.687 99.4809 189.569 99.3676 189.332C99.2544 189.214 99.1411 189.095 98.9145 188.977L78.522 163.755C78.1821 163.4 77.729 163.163 77.2758 163.045C76.8226 163.045 76.3695 163.163 76.0296 163.519L40.5693 195.489C38.0769 197.739 37.737 201.528 39.7763 204.133L53.3713 222.132C55.4105 224.855 59.0359 225.329 61.7549 223.197L97.6683 193.003L124.632 226.513L44.0814 301.467L34.9048 289.507L60.9618 266.181C64.927 262.628 65.4935 256.471 62.208 252.09L36.0377 217.987C35.6978 217.632 35.3579 217.395 34.9048 217.277L18.9306 215.264C18.0243 215.146 17.118 215.856 17.0047 216.922C16.8914 217.987 17.5711 218.816 18.5908 218.935L33.8851 220.829L41.589 230.776L11.9066 258.01C10.0939 259.668 9.86732 262.628 11.3401 264.641L41.8155 304.19L4.7692 338.648C4.08945 339.358 3.97616 340.542 4.65591 341.253C4.99578 341.608 5.44895 341.845 6.01541 341.845C6.46857 341.845 6.80845 341.727 7.14832 341.371L70.4783 282.403L161.338 316.742L158.846 329.53C158.619 330.478 159.299 331.543 160.205 331.662C160.319 331.662 160.432 331.662 160.545 331.662C161.338 331.662 162.131 331.07 162.244 330.241L175.046 265.588C175.273 264.641 174.593 263.576 173.687 263.457C172.781 263.22 171.761 263.931 171.648 264.878L162.018 313.071L73.4239 279.561L82.7138 270.917C84.0733 273.048 87.3588 277.074 93.0233 277.074C93.2499 277.074 93.3632 277.074 93.5898 277.074C93.9297 277.074 94.3828 276.956 94.6094 276.601L100.84 271.272C101.633 270.68 101.747 269.496 101.067 268.667C100.501 267.838 99.3677 267.72 98.5746 268.43L92.7968 273.404C88.3784 273.285 85.9993 269.733 85.3195 268.549L143.325 214.554L163.604 238.709C165.303 240.722 167.796 241.788 170.288 241.788C172.327 241.788 174.367 241.077 176.066 239.538L183.77 232.552C185.583 230.894 186.715 228.644 186.829 226.158C186.942 223.671 186.149 221.185 184.563 219.408L163.377 195.134L166.55 187.911L176.972 177.254L207.561 210.764L200.31 244.867C200.084 245.814 200.65 246.88 201.67 247.116C201.783 247.116 201.897 247.116 202.01 247.116C202.803 247.116 203.596 246.524 203.709 245.696L220.136 168.255C220.136 168.018 220.136 167.781 220.136 167.663L215.945 132.85C215.945 132.377 215.718 132.021 215.378 131.785L185.809 102.656C185.243 101.471 184.11 101.59 183.43 102.3ZM59.7156 220.592C58.5827 221.421 57.1099 221.185 56.3169 220.119L42.7219 202.12C41.9288 201.055 42.0421 199.397 43.0617 198.568L77.1625 167.781L95.5157 190.516L59.7156 220.592ZM13.9458 262.273C13.6059 261.799 13.6059 261.207 14.0591 260.734L43.6282 233.618L59.7156 254.695C61.7549 257.418 61.415 261.326 58.9226 263.576L32.8655 286.784L13.9458 262.273ZM181.957 221.777C182.977 222.842 183.43 224.382 183.317 225.803C183.203 227.342 182.524 228.644 181.504 229.71L173.8 236.696C171.648 238.709 168.249 238.472 166.323 236.104L146.044 211.948L161.225 197.858L181.957 221.777Z" fill="white" stroke="#BBB4B5" stroke-width="0.5206" stroke-miterlimit="10"/>
<path d="M341.245 295.191L323.232 294.718L323.571 268.904L335.92 274.233C336.827 274.588 337.846 274.114 338.299 273.285C338.639 272.338 338.186 271.272 337.393 270.917L323.232 264.76C323.005 264.641 322.892 264.641 322.665 264.641C322.665 264.641 322.665 264.641 322.552 264.641H321.306L281.767 263.221C281.087 263.221 280.521 263.576 280.181 264.168L266.926 289.389C266.812 289.626 266.699 289.863 266.699 290.218L265.226 322.189L257.183 323.018L221.496 304.072L283.013 167.9L306.464 179.504L319.946 194.661L289.244 220.83C288.451 221.422 288.338 222.606 289.018 223.435C289.357 223.908 289.924 224.145 290.377 224.145C290.717 224.145 291.17 224.027 291.51 223.671L300.347 216.212L321.192 234.447C321.532 234.684 321.872 234.92 322.325 234.92C322.778 234.92 323.345 234.684 323.685 234.21C324.365 233.381 324.251 232.315 323.458 231.605L303.066 213.725L310.656 207.212L333.428 232.671C333.768 233.026 334.221 233.263 334.674 233.263C335.127 233.263 335.58 233.144 335.92 232.789C336.6 232.079 336.713 230.894 336.034 230.184L313.375 204.963L336.26 185.425C337.053 184.833 337.166 183.649 336.487 182.82C335.92 181.991 334.787 181.872 333.994 182.583L322.552 192.293L308.73 176.781C308.617 176.662 308.39 176.426 308.164 176.426L284.373 164.703L285.732 161.624C287.998 156.533 286.752 150.494 282.673 146.823L280.634 144.928L306.464 100.051C306.918 99.2219 306.691 98.0378 305.898 97.5642C305.105 97.0905 303.972 97.3273 303.519 98.1562L278.028 142.442L245.174 113.076C243.928 112.01 242.115 112.129 240.982 113.431C239.962 114.734 240.076 116.628 241.322 117.812L278.935 151.441C280.974 153.336 281.654 156.296 280.407 158.901L215.944 301.467L214.585 304.546L143.778 461.085L132.335 448.77C132.109 448.533 131.882 448.415 131.656 448.178L108.657 434.798C109.111 434.679 109.45 434.324 109.677 433.85L113.529 425.917C113.642 425.798 113.642 425.68 113.642 425.561L130.296 355.462C130.409 354.989 130.296 354.515 130.069 354.041C129.843 353.568 129.39 353.331 128.937 353.213L75.3497 340.187C74.4433 339.951 73.4237 340.543 73.1971 341.608C72.9705 342.556 73.537 343.621 74.5566 343.858L126.444 356.41L110.243 424.496L106.505 432.311C106.278 432.785 106.278 433.14 106.392 433.613L64.9268 409.576L80.7877 377.368C82.0339 375 82.1472 372.158 81.3541 369.553C80.4478 366.948 78.7484 364.935 76.3693 363.751L60.3952 356.173C59.4888 355.699 58.4692 356.173 58.0161 357.12C57.5629 358.067 58.0161 359.133 58.9224 359.607L74.8965 367.185C76.3693 367.896 77.5022 369.198 78.0687 370.737C78.6351 372.395 78.5218 374.053 77.7288 375.592L61.868 407.8L5.33549 374.882C3.8627 374.053 2.16333 374.645 1.37029 376.066C0.577245 377.605 1.1437 379.381 2.5032 380.21L128.37 453.388L140.945 466.887L141.059 467.005L119.873 513.896C119.193 515.435 119.76 517.33 121.233 518.04C121.686 518.277 122.026 518.395 122.479 518.395C123.612 518.395 124.631 517.685 125.198 516.619L144.344 474.347L224.215 520.645C224.668 520.882 225.121 521 225.688 521C226.707 521 227.727 520.408 228.293 519.461C229.086 517.922 228.52 516.146 227.16 515.317L146.95 468.781L201.67 347.647L223.422 359.133L192.267 415.141C191.813 415.97 192.04 417.154 192.946 417.628C193.173 417.746 193.513 417.865 193.853 417.865C194.419 417.865 195.099 417.51 195.439 416.918L209.487 391.696L231.919 405.195L216.398 434.679C214.585 438.113 215.718 442.376 218.89 444.389L257.862 469.61C258.995 470.321 260.241 470.676 261.601 470.676C262.167 470.676 262.847 470.558 263.414 470.439C265.226 469.965 266.812 468.545 267.719 466.887L283.58 436.1L301.933 447.112C303.745 448.178 304.992 449.954 305.445 451.967C305.898 454.098 305.671 456.23 304.538 458.006L286.752 487.727C286.638 487.845 286.638 487.964 286.525 488.082L278.255 513.067C277.915 514.014 278.481 515.08 279.388 515.435C279.614 515.554 279.728 515.554 279.954 515.554C280.634 515.554 281.427 515.08 281.654 514.251L289.811 489.503L307.484 460.019C309.07 457.296 309.523 454.217 308.844 451.138C308.164 448.059 306.238 445.573 303.632 443.915L236.677 403.656L248.006 382.105C248.459 381.158 248.119 380.092 247.326 379.618C246.42 379.145 245.4 379.5 244.947 380.329L233.618 401.761L211.186 388.262L227.5 359.015C227.727 358.541 227.84 358.067 227.614 357.594C227.5 357.12 227.16 356.647 226.707 356.41L203.256 344.095L219.796 307.388L255.823 326.452C256.05 326.57 256.39 326.689 256.616 326.689C256.729 326.689 256.729 326.689 256.843 326.689L266.926 325.623L333.768 328.11H333.881C334.787 328.11 335.58 327.281 335.694 326.333C335.694 325.268 335.014 324.439 333.994 324.439L268.738 321.952L270.098 290.692L282.673 266.891L320.059 268.194L319.72 294.599L308.051 294.363C307.144 294.363 306.238 295.191 306.238 296.139C306.238 297.204 307.031 298.033 307.937 298.033L320.626 298.389H321.985L341.018 298.862C341.925 298.862 342.718 298.033 342.831 297.086C342.944 296.02 342.151 295.191 341.245 295.191ZM235.091 406.853L280.521 434.205L264.66 465.111C264.207 466.058 263.414 466.65 262.507 466.887C261.601 467.124 260.581 467.005 259.788 466.413L220.816 441.192C219.23 440.126 218.663 438.113 219.57 436.337L235.091 406.853Z" fill="white" stroke="#BBB4B5" stroke-width="0.5206" stroke-miterlimit="10"/>
<path d="M238.716 112.72C239.056 113.076 239.51 113.194 239.963 113.194C240.416 113.194 240.869 112.957 241.209 112.602C241.889 111.892 241.889 110.707 241.096 109.997L196.459 65.4746L210.733 49.4891L234.411 69.6189C235.091 70.211 236.111 70.211 236.791 69.5005L297.175 4.13788C297.855 3.42742 297.855 2.24331 297.175 1.53285C296.495 0.822384 295.362 0.822384 294.682 1.53285L235.544 65.8298L211.753 45.7C211.073 45.1079 209.94 45.1079 209.374 45.8184L192.833 64.4089C192.154 65.1193 192.154 66.3034 192.947 67.0139L238.716 112.72Z" fill="white" stroke="#BBB4B5" stroke-width="0.5206" stroke-miterlimit="10"/>
<path d="M158.166 10.7693L59.3756 122.43C58.6959 123.141 58.8092 124.325 59.4889 125.035C59.8288 125.391 60.282 125.509 60.7351 125.509C61.1883 125.509 61.6415 125.272 61.9813 124.917L160.772 13.2559L179.691 31.0175C182.637 33.8593 182.977 38.5957 180.484 41.9112L173.913 50.2C173.347 51.0289 173.347 52.0946 174.14 52.805C174.48 53.0418 174.82 53.2787 175.273 53.2787C175.726 53.2787 176.293 53.0418 176.632 52.5682L183.203 44.2795C186.942 39.543 186.489 32.4384 182.07 28.294L153.747 1.65164C153.068 0.941178 151.935 1.05959 151.255 1.77005C150.575 2.48052 150.689 3.66462 151.368 4.37509L158.166 10.7693Z" fill="white" stroke="#BBB4B5" stroke-width="0.5206" stroke-miterlimit="10"/>
<path d="M41.0222 61.3306C41.4754 61.3306 41.9286 61.0938 42.3817 60.7385L92.1167 4.25668C92.7965 3.54621 92.6832 2.36211 92.0034 1.65164C91.3237 0.941178 90.1908 1.05959 89.511 1.77005L39.776 58.2519C39.0963 58.9624 39.2096 60.1465 39.8893 60.8569C40.2292 61.2122 40.5691 61.3306 41.0222 61.3306Z" fill="white" stroke="#BBB4B5" stroke-width="0.5206" stroke-miterlimit="10"/>
<path d="M18.7043 117.101L4.31629 126.811C3.52325 127.403 3.29667 128.468 3.74983 129.416C4.08971 130.008 4.65617 130.245 5.22262 130.245C5.5625 130.245 5.90237 130.126 6.12895 130.008L21.8765 119.351L35.3582 116.983L52.4652 146.112C53.938 148.717 53.145 152.269 50.6525 153.927L5.67579 183.174C4.88275 183.766 4.54288 184.832 5.10933 185.779C5.44921 186.371 6.01566 186.608 6.58212 186.608C6.922 186.608 7.26187 186.49 7.48845 186.371L52.4652 157.124C56.657 154.4 57.9032 148.717 55.4108 144.335L38.6436 114.97L59.376 93.5373C60.0557 92.8269 60.0557 91.6427 59.376 90.9323L47.2538 77.7887C46.574 77.0782 45.4411 77.0782 44.7614 77.7887C44.0816 78.4992 44.0816 79.6833 44.7614 80.3937L55.7507 92.3532L36.1512 112.601C35.9246 112.601 35.5848 112.72 35.3582 112.838C35.1316 112.957 34.905 113.193 34.7917 113.43L22.2164 115.562L4.42958 95.4319C3.74983 94.7214 2.61692 94.603 1.93717 95.3135C1.25742 96.0239 1.14413 97.208 1.82388 97.9185L18.7043 117.101Z" fill="white" stroke="#BBB4B5" stroke-width="0.5206" stroke-miterlimit="10"/>
</svg>
