<svg width="34" height="34" viewBox="0 0 34 34" fill="none" xmlns="http://www.w3.org/2000/svg">
<g clip-path="url(#clip0_475_815)">
<path d="M0.761658 16.7478C0.761658 7.58518 8.18924 0.157593 17.3519 0.157593C26.5145 0.157593 33.9421 7.58518 33.9421 16.7478C33.9421 25.9104 26.5145 33.338 17.3519 33.338C8.18924 33.338 0.761658 25.9104 0.761658 16.7478Z" fill="#EEA6A6"/>
<path d="M12.4654 12.7226C12.4654 13.8609 11.9182 14.7834 11.2432 14.7834C10.5681 14.7834 10.0203 13.8609 10.0203 12.7226C10.0203 11.5842 10.5681 10.6624 11.2432 10.6624C11.9182 10.6624 12.4654 11.5848 12.4654 12.7226Z" fill="#FECECE"/>
<path d="M24.6866 12.7226C24.6866 13.8609 24.1388 14.7834 23.4638 14.7834C22.7887 14.7834 22.2415 13.8609 22.2415 12.7226C22.2415 11.5842 22.7887 10.6624 23.4638 10.6624C24.1388 10.6624 24.6866 11.5848 24.6866 12.7226Z" fill="#FECECE"/>
<path d="M6.20398 18.3163C6.83622 23.9153 11.5846 28.2668 17.352 28.2668C23.1193 28.2668 27.8678 23.9153 28.5 18.3163H6.20398Z" fill="#FECECE"/>
</g>
<defs>
<clipPath id="clip0_475_815">
<rect width="33.1804" height="33.1804" fill="white" transform="translate(0.761658 0.157593)"/>
</clipPath>
</defs>
</svg>
