<svg width="44" height="42" viewBox="0 0 44 42" fill="none" xmlns="http://www.w3.org/2000/svg">
<path d="M27.5363 18L35.6957 14.017C35.9689 13.8837 36.2724 13.8208 36.5774 13.8342C36.8825 13.8476 37.179 13.9369 37.4388 14.0937C37.6985 14.2504 37.913 14.4693 38.0618 14.7297C38.2106 14.9901 38.2888 15.2833 38.2889 15.5815V27.4185C38.2888 27.7167 38.2106 28.0099 38.0618 28.2703C37.913 28.5307 37.6985 28.7496 37.4388 28.9063C37.179 29.0631 36.8825 29.1524 36.5774 29.1658C36.2724 29.1792 35.9689 29.1163 35.6957 28.983L27.5363 25V18ZM9.61533 32H23.9521C24.9027 32 25.8144 31.6313 26.4865 30.9749C27.1587 30.3185 27.5363 29.4283 27.5363 28.5V14.5C27.5363 13.5717 27.1587 12.6815 26.4865 12.0251C25.8144 11.3687 24.9027 11 23.9521 11H9.61533C8.66474 11 7.75308 11.3687 7.08092 12.0251C6.40875 12.6815 6.03113 13.5717 6.03113 14.5V28.5C6.03113 29.4283 6.40875 30.3185 7.08092 30.9749C7.75308 31.6313 8.66474 32 9.61533 32Z" stroke="#D9D8D8" stroke-width="2.6" stroke-linecap="round" stroke-linejoin="round"/>
</svg>
