<svg width="47" height="42" viewBox="0 0 47 42" fill="none" xmlns="http://www.w3.org/2000/svg">
<path d="M29.1433 18L37.8234 14.017C38.114 13.8837 38.4369 13.8208 38.7614 13.8342C39.0859 13.8476 39.4013 13.9369 39.6777 14.0937C39.954 14.2504 40.1822 14.4693 40.3405 14.7297C40.4987 14.9901 40.5819 15.2833 40.5821 15.5815V27.4185C40.5819 27.7167 40.4987 28.0099 40.3405 28.2703C40.1822 28.5307 39.954 28.7496 39.6777 28.9063C39.4013 29.0631 39.0859 29.1524 38.7614 29.1658C38.4369 29.1792 38.114 29.1163 37.8234 28.983L29.1433 25V18ZM10.0786 32H25.3303C26.3416 32 27.3114 31.6313 28.0265 30.9749C28.7416 30.3185 29.1433 29.4283 29.1433 28.5V14.5C29.1433 13.5717 28.7416 12.6815 28.0265 12.0251C27.3114 11.3687 26.3416 11 25.3303 11H10.0786C9.06731 11 8.09747 11.3687 7.38241 12.0251C6.66734 12.6815 6.26563 13.5717 6.26562 14.5V28.5C6.26563 29.4283 6.66734 30.3185 7.38241 30.9749C8.09747 31.6313 9.06731 32 10.0786 32Z" stroke="#D9D8D8" stroke-width="2.6" stroke-linecap="round" stroke-linejoin="round"/>
</svg>
