<svg width="45" height="42" viewBox="0 0 45 42" fill="none" xmlns="http://www.w3.org/2000/svg">
<path d="M27.7223 18L36.1628 14.017C36.4453 13.8837 36.7593 13.8208 37.0749 13.8342C37.3904 13.8476 37.6971 13.9369 37.9658 14.0937C38.2346 14.2504 38.4564 14.4693 38.6103 14.7297C38.7642 14.9901 38.8451 15.2833 38.8453 15.5815V27.4185C38.8451 27.7167 38.7642 28.0099 38.6103 28.2703C38.4564 28.5307 38.2346 28.7496 37.9658 28.9063C37.6971 29.0631 37.3904 29.1524 37.0749 29.1658C36.7593 29.1792 36.4453 29.1163 36.1628 28.983L27.7223 25V18ZM9.18398 32H24.0146C24.998 32 25.941 31.6313 26.6363 30.9749C27.3317 30.3185 27.7223 29.4283 27.7223 28.5V14.5C27.7223 13.5717 27.3317 12.6815 26.6363 12.0251C25.941 11.3687 24.998 11 24.0146 11H9.18398C8.20065 11 7.25759 11.3687 6.56227 12.0251C5.86695 12.6815 5.47632 13.5717 5.47632 14.5V28.5C5.47632 29.4283 5.86695 30.3185 6.56227 30.9749C7.25759 31.6313 8.20065 32 9.18398 32Z" stroke="#D9D8D8" stroke-width="2.6" stroke-linecap="round" stroke-linejoin="round"/>
</svg>
