<svg width="50" height="50" viewBox="0 0 50 50" fill="none" xmlns="http://www.w3.org/2000/svg">
<rect width="50" height="50" rx="25" fill="#EBEBF1"/>
<path fill-rule="evenodd" clip-rule="evenodd" d="M34.8579 33.1087C34.8889 33.208 34.9184 33.3078 34.9466 33.4081C34.9816 33.5654 35 33.7288 35 33.8962C35 35.1486 33.9711 36.1729 32.6783 36.2376L32.4362 36.2385C28.4095 36.2519 17.3522 36.2499 17.3522 36.2499C16.0447 36.1996 15 35.1691 15 33.907C15 33.7217 15.0224 33.5413 15.0654 33.3684C15.0834 33.3046 15.102 33.241 15.1216 33.1777C16.4215 28.909 20.355 25.6512 25.0005 25.6512C29.6161 25.6512 33.5289 28.8676 34.854 33.0963L34.8579 33.1087ZM24.9973 13.75C28.1009 13.75 30.6211 16.2524 30.6211 19.3346C30.6211 22.4168 28.1009 24.9192 24.9973 24.9192C21.8931 24.9192 19.3735 22.4168 19.3735 19.3346C19.3735 16.2524 21.8931 13.75 24.9973 13.75Z" fill="white"/>
</svg>
