<svg width="20" height="20" viewBox="0 0 20 20" fill="none" xmlns="http://www.w3.org/2000/svg">
<rect width="20" height="20" rx="10" fill="#FFB0FE"/>
<path fill-rule="evenodd" clip-rule="evenodd" d="M9.99967 5.83337C9.67093 5.83337 9.40444 6.09987 9.40444 6.42861V9.4048H6.42825C6.0995 9.4048 5.83301 9.6713 5.83301 10C5.83301 10.3288 6.0995 10.5953 6.42825 10.5953H9.40444V13.5715C9.40444 13.9002 9.67093 14.1667 9.99967 14.1667C10.3284 14.1667 10.5949 13.9002 10.5949 13.5715V10.5953H13.5711C13.8998 10.5953 14.1663 10.3288 14.1663 10C14.1663 9.6713 13.8998 9.4048 13.5711 9.4048H10.5949V6.42861C10.5949 6.09987 10.3284 5.83337 9.99967 5.83337Z" fill="white"/>
</svg>
