<svg width="40" height="40" viewBox="0 0 40 40" fill="none" xmlns="http://www.w3.org/2000/svg">
<path d="M31.6667 18.3333H8.33333C6.49238 18.3333 5 19.8257 5 21.6667V33.3333C5 35.1743 6.49238 36.6667 8.33333 36.6667H31.6667C33.5076 36.6667 35 35.1743 35 33.3333V21.6667C35 19.8257 33.5076 18.3333 31.6667 18.3333Z" stroke="#353A48" stroke-width="1.5" stroke-linecap="round" stroke-linejoin="round"/>
<path d="M11.6666 18.3333V11.6667C11.6666 9.45654 12.5446 7.33692 14.1074 5.77412C15.6702 4.21132 17.7898 3.33334 20 3.33334C22.2101 3.33334 24.3297 4.21132 25.8925 5.77412C27.4553 7.33692 28.3333 9.45654 28.3333 11.6667V18.3333" stroke="#353A48" stroke-width="1.5" stroke-linecap="round" stroke-linejoin="round"/>
</svg>
