<svg width="17" height="15" viewBox="0 0 17 15" fill="none" xmlns="http://www.w3.org/2000/svg">
<path d="M4.95833 6.81639H6.375V7.94246H4.95833V6.81639ZM14.875 4.00122V11.8837C14.875 12.503 14.2375 13.0098 13.4583 13.0098H3.54167C3.16594 13.0098 2.80561 12.8911 2.53993 12.6799C2.27426 12.4688 2.125 12.1824 2.125 11.8837L2.13208 4.00122C2.13208 3.38188 2.75542 2.87515 3.54167 2.87515H4.25V1.74908H5.66667V2.87515H11.3333V1.74908H12.75V2.87515H13.4583C14.2375 2.87515 14.875 3.38188 14.875 4.00122ZM3.54167 5.12729H13.4583V4.00122H3.54167V5.12729ZM13.4583 11.8837V6.25336H3.54167V11.8837H13.4583ZM10.625 7.94246H12.0417V6.81639H10.625V7.94246ZM7.79167 7.94246H9.20833V6.81639H7.79167V7.94246Z" fill="#708F65"/>
</svg>
