<svg width="17" height="17" viewBox="0 0 17 17" fill="none" xmlns="http://www.w3.org/2000/svg">
<path d="M4.95833 7.7915H6.375V9.20817H4.95833V7.7915ZM14.875 4.24984V14.1665C14.875 14.9457 14.2375 15.5832 13.4583 15.5832H3.54167C3.16594 15.5832 2.80561 15.4339 2.53993 15.1682C2.27426 14.9026 2.125 14.5422 2.125 14.1665L2.13208 4.24984C2.13208 3.47067 2.75542 2.83317 3.54167 2.83317H4.25V1.4165H5.66667V2.83317H11.3333V1.4165H12.75V2.83317H13.4583C14.2375 2.83317 14.875 3.47067 14.875 4.24984ZM3.54167 5.6665H13.4583V4.24984H3.54167V5.6665ZM13.4583 14.1665V7.08317H3.54167V14.1665H13.4583ZM10.625 9.20817H12.0417V7.7915H10.625V9.20817ZM7.79167 9.20817H9.20833V7.7915H7.79167V9.20817Z" fill="#D9D8D8"/>
</svg>
