<svg width="18" height="15" viewBox="0 0 18 15" fill="none" xmlns="http://www.w3.org/2000/svg">
<path d="M5.80599 6.81633H7.22266V7.9424H5.80599V6.81633ZM15.7227 4.00116V11.8836C15.7227 12.503 15.0852 13.0097 14.306 13.0097H4.38932C4.0136 13.0097 3.65326 12.8911 3.38759 12.6799C3.12191 12.4687 2.97266 12.1823 2.97266 11.8836L2.97974 4.00116C2.97974 3.38182 3.60307 2.87509 4.38932 2.87509H5.09766V1.74902H6.51432V2.87509H12.181V1.74902H13.5977V2.87509H14.306C15.0852 2.87509 15.7227 3.38182 15.7227 4.00116ZM4.38932 5.12723H14.306V4.00116H4.38932V5.12723ZM14.306 11.8836V6.2533H4.38932V11.8836H14.306ZM11.4727 7.9424H12.8893V6.81633H11.4727V7.9424ZM8.63932 7.9424H10.056V6.81633H8.63932V7.9424Z" fill="#CD7D7D"/>
</svg>
