<svg width="17" height="15" viewBox="0 0 17 15" fill="none" xmlns="http://www.w3.org/2000/svg">
<path d="M4.95833 6.81633H6.375V7.9424H4.95833V6.81633ZM14.875 4.00116V11.8836C14.875 12.503 14.2375 13.0097 13.4583 13.0097H3.54167C3.16594 13.0097 2.80561 12.8911 2.53993 12.6799C2.27426 12.4687 2.125 12.1823 2.125 11.8836L2.13208 4.00116C2.13208 3.38182 2.75542 2.87509 3.54167 2.87509H4.25V1.74902H5.66667V2.87509H11.3333V1.74902H12.75V2.87509H13.4583C14.2375 2.87509 14.875 3.38182 14.875 4.00116ZM3.54167 5.12723H13.4583V4.00116H3.54167V5.12723ZM13.4583 11.8836V6.2533H3.54167V11.8836H13.4583ZM10.625 7.9424H12.0417V6.81633H10.625V7.9424ZM7.79167 7.9424H9.20833V6.81633H7.79167V7.9424Z" fill="#D27E00"/>
</svg>
