<svg width="24" height="28" viewBox="0 0 24 28" fill="none" xmlns="http://www.w3.org/2000/svg">
<path d="M19 4.24203H5C3.9 4.24203 3 5.23375 3 6.44586V21.8726C3 23.0847 3.9 24.0764 5 24.0764H19C20.1 24.0764 21 23.0847 21 21.8726V6.44586C21 5.23375 20.1 4.24203 19 4.24203ZM13 19.6688H8C7.45 19.6688 7 19.1729 7 18.5669C7 17.9608 7.45 17.465 8 17.465H13C13.55 17.465 14 17.9608 14 18.5669C14 19.1729 13.55 19.6688 13 19.6688ZM16 15.2611H8C7.45 15.2611 7 14.7653 7 14.1592C7 13.5532 7.45 13.0573 8 13.0573H16C16.55 13.0573 17 13.5532 17 14.1592C17 14.7653 16.55 15.2611 16 15.2611ZM16 10.8535H8C7.45 10.8535 7 10.3576 7 9.75159C7 9.14554 7.45 8.64968 8 8.64968H16C16.55 8.64968 17 9.14554 17 9.75159C17 10.3576 16.55 10.8535 16 10.8535Z" fill="#D6CCC6"/>
</svg>
