<svg width="27" height="24" viewBox="0 0 27 24" fill="none" xmlns="http://www.w3.org/2000/svg">
<path d="M20.8243 3H5.99366C4.8284 3 3.875 3.9 3.875 5V19C3.875 20.1 4.8284 21 5.99366 21H20.8243C21.9896 21 22.943 20.1 22.943 19V5C22.943 3.9 21.9896 3 20.8243 3ZM14.4683 17H9.17166C8.58903 17 8.11233 16.55 8.11233 16C8.11233 15.45 8.58903 15 9.17166 15H14.4683C15.051 15 15.5277 15.45 15.5277 16C15.5277 16.55 15.051 17 14.4683 17ZM17.6463 13H9.17166C8.58903 13 8.11233 12.55 8.11233 12C8.11233 11.45 8.58903 11 9.17166 11H17.6463C18.229 11 18.7057 11.45 18.7057 12C18.7057 12.55 18.229 13 17.6463 13ZM17.6463 9H9.17166C8.58903 9 8.11233 8.55 8.11233 8C8.11233 7.45 8.58903 7 9.17166 7H17.6463C18.229 7 18.7057 7.45 18.7057 8C18.7057 8.55 18.229 9 17.6463 9Z" fill="#D6CCC6"/>
</svg>
