<svg width="331" height="188" viewBox="0 0 331 188" fill="none" xmlns="http://www.w3.org/2000/svg">
<path d="M227.354 73.7917L213.609 67.138L217.881 73.3777L205.356 67.5098L206.038 66.3945L213.943 70.091L209.589 63.7457L226.522 71.9456L229.347 64.3794L210.799 59.1071L211.239 57.8989L231.181 63.5683L227.354 73.7917Z" fill="#353A48"/>
<path d="M86.2459 187.394C1.29173 187.394 0.430576 187.01 0 186.824L0.648284 185.687C0.61414 185.673 0.578495 185.662 0.541849 185.654C5.0121 186.499 218.176 186.013 330.267 185.624V186.891C329.444 186.891 247.494 187.174 166.261 187.314C133.585 187.369 107.32 187.394 86.2459 187.394Z" fill="#353A48"/>
<path d="M242.187 150.387L216.759 150.243L212.913 150.222L206.227 155.097L208.539 158.236L214.292 166.052L221.137 162.207L219.773 159.715L224.437 160.353L242.187 150.387ZM217.272 158.093L219.275 161.747L214.727 164.282L209.546 157.239L208.143 155.334L213.435 151.477H215.462L237.296 151.599L224.118 158.997L217.272 158.093Z" fill="#353A48"/>
<path d="M151.51 94.8342L145.22 134.967L136.512 172.988L104.098 170.454L122.724 125.885L127.32 77.5136L166.024 75.8237L196.503 107.508L225.53 141.727L199.889 166.652L180.537 118.492L151.51 94.8342Z" fill="#353A48"/>
<path d="M124.064 172.017L123.208 171.51L113.745 170.91V171.193L113.261 184.023L121.394 184.264L121.877 181.539L125.298 184.382L146.498 185.028L124.064 172.017ZM120.871 178.975L120.141 182.975L114.737 182.815L115.143 172.283L122.724 172.777L141.427 183.617L125.888 183.157L120.871 178.975Z" fill="#353A48"/>
<path d="M164.814 5.06247C164.81 2.89713 163.232 0.972824 160.886 0.272649C158.539 -0.427526 155.942 0.251031 154.422 1.96165C153.08 1.18595 151.385 1.04344 149.899 1.58144C148.849 1.11584 147.597 1.15978 146.594 1.69747C145.59 2.23516 144.979 3.18942 144.978 4.21756C144.978 4.46579 145.016 4.71293 145.09 4.95263C143.441 5.53905 142.295 6.86856 142.105 8.41401C141.915 9.95946 142.712 11.4712 144.18 12.3498C143.198 13.0117 142.806 14.1456 143.205 15.1714C143.604 16.1973 144.705 16.8884 145.946 16.8912C146.236 16.8925 146.525 16.854 146.802 16.7772L146.391 21.9776L146.289 23.2449L146.115 25.4164C145.967 26.1569 146.173 26.9181 146.685 27.5225C147.197 28.1269 147.97 28.5215 148.825 28.6144L156.033 29.4043C156.167 29.4105 156.301 29.4105 156.435 29.4043C157.454 29.4035 158.409 28.9705 158.997 28.2432C159.585 27.5159 159.731 26.5848 159.391 25.7459L158.583 23.735L158.041 22.4085L157.359 20.7187C158.072 20.576 158.73 20.2715 159.265 19.8357C162.395 17.3137 161.718 12.316 161.123 9.78552C163.349 9.02517 164.815 7.15039 164.814 5.06247ZM158.041 26.1852C158.239 26.6683 158.136 27.2068 157.768 27.6068C157.399 28.0069 156.819 28.2109 156.236 28.1454L149.023 27.3554C148.56 27.3042 148.141 27.0884 147.867 26.7589C147.592 26.4294 147.485 26.0155 147.572 25.6149L148.273 16.849C149.531 17.9516 152.782 20.5328 155.864 20.782L158.041 26.1852ZM159.724 10.077C160.266 12.3921 160.866 16.8363 158.273 18.881C157.884 19.2033 157.394 19.4167 156.865 19.4935C156.645 19.5249 156.421 19.5348 156.198 19.5231C153.324 19.4048 149.908 16.473 149.047 15.6914L149.27 12.5526C150.522 11.9537 151.407 10.9023 151.689 9.67991H151.785C152.932 9.67933 154.042 9.323 154.916 8.67447H155.017C156.081 9.59379 157.512 10.1164 159.008 10.1319C159.241 10.1301 159.474 10.1174 159.705 10.0939L159.724 10.077Z" fill="#353A48"/>
<path d="M101.844 84.3784L101.631 85.6964L100.591 92.0164L100.528 92.4008L100.286 91.9361L97.0927 85.8232L96.4057 90.88L96.2315 92.16L95.5203 97.3815L82.8159 93.5245L84.9156 89.0803L85.4671 87.9017H85.4719L88.9746 80.4791L89.531 79.3047L89.5939 79.1653L90.934 79.6511L90.8421 79.8454L90.2857 81.0199L86.8604 88.2819L86.3041 89.4605L84.7414 92.7641L94.2915 95.6664L94.8285 91.7756L94.9978 90.4955L95.9654 83.3603L96.1493 82.0295L96.2654 81.1762L96.8701 82.3252L97.799 84.1165L99.7922 87.9397L100.257 85.1303L100.47 83.8123L101.844 84.3784Z" fill="#353A48"/>
<path d="M187.852 46.3786L167.073 23.887L166.899 23.6969L158.031 22.4296H157.92L157.678 23.6969L158.583 23.8279L166.115 24.9263L187.011 47.5403L213.774 54.2996L201.099 72.4652L178.583 60.5899L167.615 50.1807C167.591 46.3574 167.693 42.644 168.002 39.2517L166.551 39.1503C165.757 47.8656 166.328 58.5833 166.836 68.059C166.972 70.5472 167.098 72.913 167.199 75.1942C164.558 75.1646 156.87 75.5237 144.282 76.2926C139.289 76.5968 133.779 76.9516 129.158 77.2643C126.227 77.4628 124.5 77.5811 123.469 77.6867C125.099 72.6679 133.029 48.2754 136.744 37.6042L141.007 31.0054L139.739 30.3802L138.191 32.7797L135.409 37.093L124.737 53.6363L105.704 86.0386L101.834 84.446L100.469 83.8123L96.8652 82.3253L96.1492 82.0295L90.8275 79.8455L89.5164 79.3047L88.5488 78.9118L109.352 51.6677L132.526 24.4658L146.265 23.2618L146.72 23.2238L146.575 21.9564H146.367L131.742 23.2238L108.21 50.9368L86.4395 79.4146L88.9794 80.4622L90.3098 81.0199L95.9895 83.3603L97.8231 84.1165L100.281 85.1304L101.655 85.6965L106.381 87.644L126.043 54.1686L133.551 42.5427C129.27 55.1825 122.821 75.0717 121.902 77.9022C121.877 77.9203 121.856 77.9417 121.839 77.9655L121.553 78.2824L121.761 78.6415C121.895 78.8731 122.176 79.0115 122.472 78.9921H122.526H123.058V78.9287C123.842 78.8527 125.298 78.7386 127.223 78.6034C137.455 77.881 160.876 76.4912 166.594 76.4236C166.998 76.4061 167.402 76.4159 167.804 76.4531L168.723 76.639L168.689 75.7941C168.583 73.2889 168.443 70.6951 168.297 67.9491C168.022 62.8332 167.726 57.3455 167.639 52.0183L177.659 61.5278L201.582 74.1592L206.004 67.8224L206.759 66.7409L211.863 59.4197L212.637 58.3045L215.999 53.4842L187.852 46.3786Z" fill="#353A48"/>
<path d="M106.372 100.854L108.733 94.2343L100.59 92.0164L100.286 91.9362L96.4153 90.88L95.0075 90.4956L94.8333 91.763L96.2412 92.1474L106.923 95.0539L104.988 100.466L75.9992 92.5276L77.9344 87.1624L84.9397 89.0677L86.3282 89.4479L86.8846 88.2692L85.4961 87.889L76.9862 85.574L74.6398 92.1516L65.6944 89.7014L54.4656 120.963L105.873 135.039L117.102 103.756L106.372 100.854ZM104.891 133.489L56.2556 120.165L66.604 91.3025L74.1657 93.3725L75.5493 93.7527L104.533 101.686L105.922 102.067L115.24 104.601L104.891 133.489Z" fill="#353A48"/>
<path d="M247.03 186.296H290.571C290.571 186.296 301.214 175.312 291.539 176.157C281.863 177.002 270.735 179.536 274.606 173.622C278.476 167.708 297.828 155.034 285.249 155.879C272.671 156.724 263.962 164.328 262.995 168.553C262.027 172.777 256.222 166.44 250.416 167.285C244.611 168.13 246.062 172.355 250.416 176.157C254.77 179.959 236.386 178.692 247.03 186.296Z" fill="#353A48"/>
</svg>
