<svg width="22" height="25" viewBox="0 0 22 25" fill="none" xmlns="http://www.w3.org/2000/svg">
<path d="M12.4609 22.7091H6.1875C5.4584 22.7083 4.75939 22.3984 4.24384 21.8475C3.72828 21.2966 3.4383 20.5497 3.4375 19.7707V5.07854C3.4383 4.29948 3.72828 3.55257 4.24384 3.00169C4.75939 2.45082 5.4584 2.14096 6.1875 2.14011H12.4609V22.7091ZM15.8125 22.7091H15.0391V2.14011H15.8125C16.5416 2.14096 17.2406 2.45082 17.7562 3.00169C18.2717 3.55257 18.5617 4.29948 18.5625 5.07854V19.7707C18.5617 20.5497 18.2717 21.2966 17.7562 21.8475C17.2406 22.3984 16.5416 22.7083 15.8125 22.7091Z" fill="#D6CCC6"/>
</svg>
