<svg width="24" height="22" viewBox="0 0 24 22" fill="none" xmlns="http://www.w3.org/2000/svg">
<path d="M13.5735 20.6667H6.92781C6.15545 20.666 5.41497 20.3848 4.86883 19.8848C4.32268 19.3849 4.01549 18.7071 4.01465 18.0001V4.66675C4.01549 3.95974 4.32268 3.28191 4.86883 2.78198C5.41497 2.28205 6.15545 2.00085 6.92781 2.00008H13.5735V20.6667ZM17.1239 20.6667H16.3046V2.00008H17.1239C17.8962 2.00085 18.6367 2.28205 19.1829 2.78198C19.729 3.28191 20.0362 3.95974 20.037 4.66675V18.0001C20.0362 18.7071 19.729 19.3849 19.1829 19.8848C18.6367 20.3848 17.8962 20.666 17.1239 20.6667Z" fill="#D6CCC6"/>
</svg>
