<svg width="26" height="24" viewBox="0 0 26 24" fill="none" xmlns="http://www.w3.org/2000/svg">
<path d="M20.5833 11H5.41667C4.22005 11 3.25 11.8954 3.25 13V20C3.25 21.1046 4.22005 22 5.41667 22H20.5833C21.78 22 22.75 21.1046 22.75 20V13C22.75 11.8954 21.78 11 20.5833 11Z" stroke="#353A48" stroke-width="1.5" stroke-linecap="round" stroke-linejoin="round"/>
<path d="M7.58325 11V7C7.58325 5.67392 8.15393 4.40215 9.16976 3.46447C10.1856 2.52678 11.5633 2 12.9999 2C14.4365 2 15.8143 2.52678 16.8301 3.46447C17.8459 4.40215 18.4166 5.67392 18.4166 7V11" stroke="#353A48" stroke-width="1.5" stroke-linecap="round" stroke-linejoin="round"/>
</svg>
