<svg width="83" height="26" viewBox="0 0 83 26" fill="none" xmlns="http://www.w3.org/2000/svg">
<path d="M65.2 11.9902H17.4133C13.6431 11.9902 10.5867 12.9077 10.5867 14.0394V21.2118C10.5867 22.3436 13.6431 23.2611 17.4133 23.2611H65.2C68.9703 23.2611 72.0267 22.3436 72.0267 21.2118V14.0394C72.0267 12.9077 68.9703 11.9902 65.2 11.9902Z" stroke="#353A48" stroke-width="1.5" stroke-linecap="round" stroke-linejoin="round"/>
<path d="M24.24 11.9902V7.89165C24.24 6.5329 26.0381 5.22981 29.2387 4.26903C32.4393 3.30825 36.7803 2.76849 41.3067 2.76849C45.833 2.76849 50.174 3.30825 53.3746 4.26903C56.5752 5.22981 58.3733 6.5329 58.3733 7.89165V11.9902" stroke="#353A48" stroke-width="1.5" stroke-linecap="round" stroke-linejoin="round"/>
</svg>
