<svg width="80" height="63" viewBox="0 0 80 63" fill="none" xmlns="http://www.w3.org/2000/svg">
<g clip-path="url(#clip0_220_369)">
<path d="M80 52.2641C78.6919 54.3534 76.785 55.7746 74.8447 57.1109C69.3813 60.8833 63.3706 62.5323 56.8126 62.0579C53.8995 61.8585 51.0357 61.1745 48.3297 60.0316C59.2495 59.555 68.3855 55.1413 75.746 46.6142C77.2815 47.9701 79.0466 49.0213 80 50.967V52.2641Z" fill="#C2E1A3"/>
<path d="M27.8771 27.6862C28.0649 16.9196 31.4406 8.22491 38.1544 0.962298C39.3436 -0.323947 40.6997 -0.317418 41.8951 0.962298C47.3029 6.79284 50.6973 13.6898 51.728 21.7403C53.2718 33.7605 49.9087 44.1723 41.9661 52.9954C40.7038 54.397 39.3436 54.3687 38.0605 52.9823C32.9162 47.498 29.5314 40.4826 28.3737 32.9052C28.0545 30.9595 27.9919 28.9702 27.8771 27.6862Z" fill="#C2E1A3"/>
<path d="M51.0079 48.9691C51.9969 46.7753 53.0943 44.6011 53.9747 42.3311C56.2696 36.3482 57.1042 30.1172 56.6264 23.686C56.3383 19.7944 55.5228 15.965 54.2042 12.3122C53.9955 11.755 54.0727 11.4699 54.5922 11.2501C57.0186 10.2316 59.4158 9.12596 61.8714 8.20317C63.4445 7.60684 64.7422 8.42081 65.1136 10.138C68.0942 23.813 64.8041 35.5836 55.2432 45.4499C54.1166 46.6056 52.8022 47.5588 51.5671 48.5991C51.3876 48.7335 51.2009 48.857 51.0079 48.9691Z" fill="#C2E1A3"/>
<path d="M28.9553 49.1433C27.2403 47.5872 25.4273 46.1312 23.825 44.4554C18.4172 38.7967 15.2502 31.9433 14.1424 24.0582C13.511 19.4264 13.7706 14.7098 14.906 10.1837C15.3232 8.42958 16.575 7.59602 18.1919 8.20106C20.5787 9.09555 22.9028 10.1598 25.2646 11.137C25.9384 11.4134 26.0511 11.7747 25.7882 12.4864C23.7916 17.9056 23.0322 23.5424 23.3305 29.3164C23.6502 35.9214 25.4885 42.3493 28.6903 48.0573L29.1597 48.8995L28.9553 49.1433Z" fill="#C2E1A3"/>
<path d="M9.69702 26.0192C12.0441 38.6422 18.4971 48.2009 29.0393 54.889C28.6074 54.8367 28.1735 54.7889 27.7416 54.7279C27.3097 54.667 26.8654 54.6191 26.4335 54.5255C15.2731 52.0967 7.32835 45.4725 2.59936 34.6529C1.97346 33.2078 1.5562 31.6582 1.10138 30.1347C1.00754 29.8436 0.970206 29.5359 0.991557 29.2296C1.01291 28.9232 1.09252 28.6244 1.22574 28.3505C1.35896 28.0766 1.54313 27.8332 1.7675 27.6343C1.99188 27.4354 2.25197 27.2851 2.5326 27.1922C4.85601 26.4518 7.26789 26.0569 9.69702 26.0192Z" fill="#C2E1A3"/>
<path d="M51.0065 54.9192C61.5174 48.2356 67.9767 38.6725 70.3655 25.9058C72.0012 26.1234 73.6369 26.3411 75.2684 26.6022C75.9334 26.7165 76.5906 26.8757 77.2358 27.0789C78.6399 27.5141 79.343 28.7808 78.9194 30.2325C75.0618 43.4366 66.6227 51.4849 53.7438 54.5057C52.8467 54.7168 51.9203 54.7865 51.0065 54.9192Z" fill="#C2E1A3"/>
<path d="M4.26205 46.5748C11.6539 55.1388 20.7857 59.546 31.7472 60.1532C30.4537 60.5559 29.179 61.0586 27.8625 61.3459C17.6813 63.5702 8.72886 61.0673 1.0825 53.6567C-0.352893 52.266 -0.365411 50.8884 1.07206 49.4824C2.08602 48.4813 3.17716 47.5563 4.26205 46.5748Z" fill="#C2E1A3"/>
</g>
<defs>
<clipPath id="clip0_220_369">
<rect width="80" height="62.1359" fill="white"/>
</clipPath>
</defs>
</svg>
