<svg width="80" height="63" viewBox="0 0 80 63" fill="none" xmlns="http://www.w3.org/2000/svg">
<g clip-path="url(#clip0_220_471)">
<path d="M80 52.2642C78.6919 54.3535 76.785 55.7747 74.8447 57.111C69.3813 60.8834 63.3706 62.5324 56.8126 62.0579C53.8995 61.8586 51.0357 61.1745 48.3297 60.0317C59.2495 59.5551 68.3855 55.1413 75.746 46.6143C77.2815 47.9701 79.0466 49.0213 80 50.967V52.2642Z" fill="#FFC4AA"/>
<path d="M27.8771 27.6861C28.0649 16.9195 31.4406 8.22485 38.1544 0.962237C39.3436 -0.324008 40.6997 -0.317479 41.8951 0.962237C47.3029 6.79278 50.6973 13.6898 51.728 21.7402C53.2718 33.7604 49.9087 44.1723 41.9661 52.9953C40.7038 54.3969 39.3436 54.3686 38.0605 52.9823C32.9162 47.4979 29.5314 40.4825 28.3737 32.9051C28.0545 30.9594 27.9919 28.9702 27.8771 27.6861Z" fill="#FFC4AA"/>
<path d="M51.0079 48.9692C51.9969 46.7754 53.0943 44.6012 53.9747 42.3312C56.2696 36.3483 57.1042 30.1173 56.6264 23.6861C56.3383 19.7944 55.5228 15.9651 54.2042 12.3123C53.9955 11.7551 54.0727 11.47 54.5922 11.2502C57.0186 10.2316 59.4158 9.12602 61.8714 8.20324C63.4445 7.6069 64.7422 8.42088 65.1136 10.138C68.0942 23.813 64.8041 35.5837 55.2432 45.45C54.1166 46.6056 52.8022 47.5589 51.5671 48.5992C51.3876 48.7335 51.2009 48.8571 51.0079 48.9692Z" fill="#FFC4AA"/>
<path d="M28.9553 49.1433C27.2403 47.5872 25.4273 46.1312 23.825 44.4554C18.4172 38.7968 15.2502 31.9433 14.1424 24.0583C13.511 19.4264 13.7706 14.7098 14.906 10.1838C15.3232 8.42961 16.575 7.59605 18.1919 8.20109C20.5787 9.09558 22.9028 10.1598 25.2646 11.137C25.9384 11.4134 26.0511 11.7747 25.7882 12.4864C23.7916 17.9056 23.0322 23.5425 23.3305 29.3164C23.6502 35.9214 25.4885 42.3493 28.6903 48.0573L29.1597 48.8996L28.9553 49.1433Z" fill="#FFC4AA"/>
<path d="M9.69702 26.0193C12.0441 38.6424 18.4971 48.2011 29.0393 54.8891C28.6074 54.8369 28.1735 54.789 27.7416 54.7281C27.3097 54.6671 26.8654 54.6192 26.4335 54.5256C15.2731 52.0968 7.32835 45.4726 2.59936 34.653C1.97346 33.2079 1.5562 31.6583 1.10138 30.1348C1.00754 29.8437 0.970206 29.536 0.991557 29.2297C1.01291 28.9234 1.09252 28.6245 1.22574 28.3507C1.35896 28.0768 1.54313 27.8333 1.7675 27.6344C1.99188 27.4355 2.25197 27.2853 2.5326 27.1924C4.85601 26.452 7.26789 26.0571 9.69702 26.0193Z" fill="#FFC4AA"/>
<path d="M51.0065 54.9192C61.5174 48.2355 67.9767 38.6725 70.3655 25.9058C72.0012 26.1234 73.6369 26.341 75.2684 26.6022C75.9334 26.7164 76.5906 26.8756 77.2358 27.0788C78.6399 27.5141 79.343 28.7808 78.9194 30.2324C75.0618 43.4366 66.6227 51.4849 53.7438 54.5057C52.8467 54.7168 51.9203 54.7865 51.0065 54.9192Z" fill="#FFC4AA"/>
<path d="M4.26205 46.5747C11.6539 55.1388 20.7857 59.546 31.7472 60.1532C30.4537 60.5558 29.179 61.0585 27.8625 61.3458C17.6813 63.5701 8.72886 61.0673 1.0825 53.6567C-0.352893 52.266 -0.365411 50.8883 1.07206 49.4824C2.08602 48.4812 3.17716 47.5563 4.26205 46.5747Z" fill="#FFC4AA"/>
</g>
<defs>
<clipPath id="clip0_220_471">
<rect width="80" height="62.1359" fill="white"/>
</clipPath>
</defs>
</svg>
