<svg width="86" height="63" viewBox="0 0 86 63" fill="none" xmlns="http://www.w3.org/2000/svg">
<g clip-path="url(#clip0_15_889)">
<path d="M85.2828 52.2642C83.8971 54.3535 81.8771 55.7747 79.8217 57.111C74.0341 60.8834 67.6668 62.5324 60.7197 62.0579C57.6337 61.8586 54.6 61.1745 51.7334 60.0317C63.3011 59.5551 72.9792 55.1413 80.7764 46.6143C82.4031 47.9701 84.2728 49.0213 85.2828 50.967V52.2642Z" fill="#F5C1C1"/>
<path d="M30.0674 27.6861C30.2663 16.9195 33.8422 8.22485 40.9544 0.962237C42.2141 -0.324008 43.6507 -0.317479 44.9171 0.962237C50.6457 6.79278 54.2415 13.6898 55.3333 21.7402C56.9688 33.7604 53.4061 44.1723 44.9922 52.9953C43.6551 54.3969 42.2141 54.3686 40.8549 52.9823C35.4054 47.4979 31.8198 40.4825 30.5934 32.9051C30.2552 30.9594 30.1889 28.9702 30.0674 27.6861Z" fill="#F5C1C1"/>
<path d="M54.5706 48.9692C55.6181 46.7754 56.7807 44.6012 57.7133 42.3312C60.1444 36.3483 61.0285 30.1173 60.5224 23.6861C60.2172 19.7944 59.3533 15.9651 57.9564 12.3123C57.7354 11.7551 57.8172 11.47 58.3675 11.2502C60.9379 10.2316 63.4773 9.12602 66.0786 8.20324C67.745 7.6069 69.1197 8.42088 69.5131 10.138C72.6706 23.813 69.1853 35.5837 59.0571 45.45C57.8636 46.6056 56.4712 47.5589 55.1629 48.5992C54.9727 48.7335 54.775 48.8571 54.5706 48.9692Z" fill="#F5C1C1"/>
<path d="M31.2093 49.1433C29.3926 47.5872 27.472 46.1312 25.7747 44.4554C20.0461 38.7968 16.6911 31.9433 15.5176 24.0583C14.8487 19.4264 15.1237 14.7098 16.3265 10.1838C16.7685 8.42961 18.0945 7.59605 19.8074 8.20109C22.3357 9.09558 24.7978 10.1598 27.2996 11.137C28.0135 11.4134 28.1328 11.7747 27.8544 12.4864C25.7393 17.9056 24.9348 23.5425 25.2509 29.3164C25.5895 35.9214 27.5368 42.3493 30.9286 48.0573L31.4259 48.8996L31.2093 49.1433Z" fill="#F5C1C1"/>
<path d="M10.8085 26.0193C13.2949 38.6424 20.1307 48.2011 31.2984 54.8891C30.8409 54.8369 30.3812 54.789 29.9237 54.7281C29.4662 54.6671 28.9955 54.6192 28.538 54.5256C16.7154 52.0968 8.29928 45.4726 3.2897 34.653C2.62667 33.2079 2.18465 31.6583 1.70285 30.1348C1.60344 29.8437 1.56389 29.536 1.58651 29.2297C1.60913 28.9234 1.69346 28.6245 1.83458 28.3507C1.97571 28.0768 2.17081 27.8333 2.40849 27.6344C2.64618 27.4355 2.9217 27.2853 3.21898 27.1924C5.68024 26.452 8.23523 26.0571 10.8085 26.0193Z" fill="#F5C1C1"/>
<path d="M54.5691 54.9192C65.7036 48.2355 72.5461 38.6725 75.0767 25.9058C76.8094 26.1234 78.5421 26.341 80.2705 26.6022C80.9749 26.7164 81.6711 26.8756 82.3546 27.0788C83.842 27.5141 84.5868 28.7808 84.1381 30.2324C80.0516 43.4366 71.1118 51.4849 57.4688 54.5057C56.5184 54.7168 55.5371 54.7865 54.5691 54.9192Z" fill="#F5C1C1"/>
<path d="M5.05112 46.5748C12.8815 55.1389 22.5552 59.5461 34.1671 60.1533C32.7968 60.5559 31.4464 61.0587 30.0519 61.346C19.2665 63.5702 9.78296 61.0674 1.68292 53.6568C0.162367 52.2661 0.149106 50.8884 1.67187 49.4825C2.74598 48.4813 3.90187 47.5564 5.05112 46.5748Z" fill="#F5C1C1"/>
</g>
<defs>
<clipPath id="clip0_15_889">
<rect width="84.7466" height="62.1359" fill="white" transform="translate(0.536133)"/>
</clipPath>
</defs>
</svg>
