<svg width="59" height="36" viewBox="0 0 59 36" fill="none" xmlns="http://www.w3.org/2000/svg">
<path fill-rule="evenodd" clip-rule="evenodd" d="M54.9955 0.562988H51.5822C49.697 0.562988 48.1688 2.01558 48.1688 3.80743V31.926C48.1688 33.7178 49.697 35.1704 51.5822 35.1704H54.9955C56.8806 35.1704 58.4088 33.7178 58.4088 31.926V3.80743C58.4088 2.01558 56.8806 0.562988 54.9955 0.562988ZM35.6533 8.13336H39.0667C40.9518 8.13336 42.48 9.58595 42.48 11.3778V31.9259C42.48 33.7178 40.9518 35.1704 39.0667 35.1704H35.6533C33.7682 35.1704 32.24 33.7178 32.24 31.9259V11.3778C32.24 9.58595 33.7682 8.13336 35.6533 8.13336ZM23.1377 15.7037H19.7244C17.8393 15.7037 16.3111 17.1563 16.3111 18.9482V31.9259C16.3111 33.7178 17.8393 35.1704 19.7244 35.1704H23.1377C25.0228 35.1704 26.551 33.7178 26.551 31.9259V18.9482C26.551 17.1563 25.0228 15.7037 23.1377 15.7037ZM7.20886 22.1926H3.79553C1.9104 22.1926 0.382202 23.6452 0.382202 25.4371V31.9259C0.382202 33.7178 1.9104 35.1704 3.79553 35.1704H7.20886C9.09399 35.1704 10.6222 33.7178 10.6222 31.9259V25.4371C10.6222 23.6452 9.09399 22.1926 7.20886 22.1926Z" fill="black"/>
</svg>
