<svg width="9" height="9" viewBox="0 0 9 9" fill="none" xmlns="http://www.w3.org/2000/svg">
<mask id="mask0_674_491" style="mask-type:alpha" maskUnits="userSpaceOnUse" x="0" y="0" width="9" height="9">
<rect x="0.575928" y="0.415527" width="7.872" height="7.872" fill="#D9D9D9"/>
</mask>
<g mask="url(#mask0_674_491)">
<path d="M2.54388 7.30341C2.27054 7.30341 2.03821 7.20775 1.84688 7.01641C1.65554 6.82508 1.55988 6.59275 1.55988 6.31941V3.03941H2.21588V6.31941C2.21588 6.41235 2.24731 6.49025 2.31018 6.55311C2.37304 6.61598 2.45094 6.64741 2.54388 6.64741C2.63681 6.64741 2.71471 6.61598 2.77758 6.55311C2.84044 6.49025 2.87188 6.41235 2.87188 6.31941V2.38341C2.87188 2.11008 2.96754 1.87775 3.15888 1.68641C3.35021 1.49508 3.58254 1.39941 3.85588 1.39941C4.12921 1.39941 4.36154 1.49508 4.55288 1.68641C4.74421 1.87775 4.83988 2.11008 4.83988 2.38341V6.31941C4.83988 6.41235 4.87131 6.49025 4.93418 6.55311C4.99704 6.61598 5.07494 6.64741 5.16788 6.64741C5.26081 6.64741 5.33871 6.61598 5.40158 6.55311C5.46444 6.49025 5.49588 6.41235 5.49588 6.31941V2.38341C5.49588 2.11008 5.59154 1.87775 5.78288 1.68641C5.97421 1.49508 6.20654 1.39941 6.47988 1.39941C6.75321 1.39941 6.98554 1.49508 7.17688 1.68641C7.36821 1.87775 7.46388 2.11008 7.46388 2.38341V5.66341H6.80788V2.38341C6.80788 2.29048 6.77644 2.21258 6.71358 2.14971C6.65071 2.08685 6.57281 2.05541 6.47988 2.05541C6.38694 2.05541 6.30904 2.08685 6.24618 2.14971C6.18331 2.21258 6.15188 2.29048 6.15188 2.38341V6.31941C6.15188 6.59275 6.05621 6.82508 5.86488 7.01641C5.67354 7.20775 5.44121 7.30341 5.16788 7.30341C4.89454 7.30341 4.66221 7.20775 4.47088 7.01641C4.27954 6.82508 4.18388 6.59275 4.18388 6.31941V2.38341C4.18388 2.29048 4.15244 2.21258 4.08958 2.14971C4.02671 2.08685 3.94881 2.05541 3.85588 2.05541C3.76294 2.05541 3.68504 2.08685 3.62218 2.14971C3.55931 2.21258 3.52788 2.29048 3.52788 2.38341V6.31941C3.52788 6.59275 3.43221 6.82508 3.24088 7.01641C3.04954 7.20775 2.81721 7.30341 2.54388 7.30341Z" fill="#454545"/>
</g>
</svg>
