<svg width="9" height="9" viewBox="0 0 9 9" fill="none" xmlns="http://www.w3.org/2000/svg">
<mask id="mask0_675_335" style="mask-type:alpha" maskUnits="userSpaceOnUse" x="0" y="0" width="9" height="9">
<rect x="0.575928" y="0.416016" width="7.872" height="7.872" fill="#D9D9D9"/>
</mask>
<g mask="url(#mask0_675_335)">
<path d="M2.58536 11.1639C2.31195 11.1639 2.07955 11.0624 1.88816 10.8594C1.69677 10.6564 1.60107 10.4099 1.60107 10.1199V6.6399H2.25726V10.1199C2.25726 10.2185 2.28871 10.3012 2.35159 10.3679C2.41448 10.4346 2.4924 10.4679 2.58536 10.4679C2.67832 10.4679 2.75624 10.4346 2.81913 10.3679C2.88201 10.3012 2.91345 10.2185 2.91345 10.1199V5.9439C2.91345 5.6539 3.00915 5.4074 3.20053 5.2044C3.39192 5.0014 3.62432 4.8999 3.89774 4.8999C4.17115 4.8999 4.40355 5.0014 4.59494 5.2044C4.78632 5.4074 4.88202 5.6539 4.88202 5.9439V10.1199C4.88202 10.2185 4.91346 10.3012 4.97635 10.3679C5.03923 10.4346 5.11715 10.4679 5.21011 10.4679C5.30307 10.4679 5.381 10.4346 5.44388 10.3679C5.50677 10.3012 5.53821 10.2185 5.53821 10.1199V5.9439C5.53821 5.6539 5.6339 5.4074 5.82529 5.2044C6.01668 5.0014 6.24908 4.8999 6.52249 4.8999C6.7959 4.8999 7.0283 5.0014 7.21969 5.2044C7.41108 5.4074 7.50677 5.6539 7.50677 5.9439V9.4239H6.85059V5.9439C6.85059 5.8453 6.81914 5.76265 6.75626 5.69595C6.69337 5.62925 6.61545 5.5959 6.52249 5.5959C6.42953 5.5959 6.35161 5.62925 6.28872 5.69595C6.22584 5.76265 6.1944 5.8453 6.1944 5.9439V10.1199C6.1944 10.4099 6.0987 10.6564 5.90731 10.8594C5.71593 11.0624 5.48353 11.1639 5.21011 11.1639C4.9367 11.1639 4.7043 11.0624 4.51291 10.8594C4.32152 10.6564 4.22583 10.4099 4.22583 10.1199V5.9439C4.22583 5.8453 4.19439 5.76265 4.1315 5.69595C4.06862 5.62925 3.9907 5.5959 3.89774 5.5959C3.80478 5.5959 3.72685 5.62925 3.66397 5.69595C3.60108 5.76265 3.56964 5.8453 3.56964 5.9439V10.1199C3.56964 10.4099 3.47395 10.6564 3.28256 10.8594C3.09117 11.0624 2.85877 11.1639 2.58536 11.1639Z" fill="#454545"/>
</g>
</svg>
