<svg width="9" height="10" viewBox="0 0 9 10" fill="none" xmlns="http://www.w3.org/2000/svg">
<mask id="mask0_674_286" style="mask-type:alpha" maskUnits="userSpaceOnUse" x="0" y="0" width="9" height="10">
<rect x="0.289062" y="0.855957" width="8.58153" height="8.352" fill="#D9D9D9"/>
</mask>
<g mask="url(#mask0_674_286)">
<path d="M3.3736 8.1639C2.81342 8.1639 2.33816 7.97395 1.94782 7.59405C1.55747 7.21415 1.3623 6.7516 1.3623 6.2064C1.3623 5.9454 1.41296 5.696 1.51427 5.4582C1.61558 5.2204 1.76158 5.0087 1.95229 4.8231L4.36584 2.4741C4.55654 2.2885 4.77406 2.1464 5.0184 2.0478C5.26273 1.9492 5.51898 1.8999 5.78716 1.8999C6.34734 1.8999 6.8226 2.08985 7.21294 2.46975C7.60328 2.84965 7.79845 3.3122 7.79845 3.8574C7.79845 4.1184 7.7478 4.3678 7.64649 4.6056C7.54518 4.8434 7.39917 5.0551 7.20847 5.2407L4.79492 7.5897C4.60422 7.7753 4.3867 7.9174 4.14236 8.016C3.89803 8.1146 3.64177 8.1639 3.3736 8.1639ZM5.7514 5.6757L6.70788 4.7535C6.82707 4.6375 6.91944 4.5012 6.985 4.3446C7.05055 4.188 7.08333 4.0256 7.08333 3.8574C7.08333 3.5094 6.95669 3.21215 6.70341 2.96565C6.45014 2.71915 6.14472 2.5959 5.78716 2.5959C5.61433 2.5959 5.44747 2.6278 5.28657 2.6916C5.12566 2.7554 4.98562 2.8453 4.86643 2.9613L3.91889 3.8922L5.7514 5.6757ZM3.3736 7.4679C3.54642 7.4679 3.71329 7.436 3.87419 7.3722C4.03509 7.3084 4.17514 7.2185 4.29433 7.1025L5.24187 6.1716L3.40936 4.3881L2.45287 5.3103C2.33369 5.4263 2.24132 5.5626 2.17576 5.7192C2.11021 5.8758 2.07743 6.0382 2.07743 6.2064C2.07743 6.5544 2.20407 6.85165 2.45734 7.09815C2.71062 7.34465 3.01604 7.4679 3.3736 7.4679Z" fill="#454545"/>
</g>
</svg>
