<svg width="9" height="9" viewBox="0 0 9 9" fill="none" xmlns="http://www.w3.org/2000/svg">
<mask id="mask0_674_474" style="mask-type:alpha" maskUnits="userSpaceOnUse" x="0" y="0" width="9" height="9">
<rect x="0.560059" y="0.415527" width="7.872" height="7.872" fill="#D9D9D9"/>
</mask>
<g mask="url(#mask0_674_474)">
<path d="M3.38904 7.30341C2.87517 7.30341 2.4392 7.12438 2.08114 6.76631C1.72307 6.40825 1.54404 5.97228 1.54404 5.45841C1.54404 5.21241 1.5905 4.97735 1.68344 4.75321C1.77637 4.52908 1.9103 4.32955 2.08524 4.15461L4.29924 1.94061C4.47417 1.76568 4.6737 1.63175 4.89784 1.53881C5.12197 1.44588 5.35704 1.39941 5.60304 1.39941C6.1169 1.39941 6.55287 1.57845 6.91094 1.93651C7.269 2.29458 7.44804 2.73055 7.44804 3.24441C7.44804 3.49041 7.40157 3.72548 7.30864 3.94961C7.2157 4.17375 7.08177 4.37328 6.90684 4.54821L4.69284 6.76221C4.5179 6.93715 4.31837 7.07108 4.09424 7.16401C3.8701 7.25695 3.63504 7.30341 3.38904 7.30341ZM5.57024 4.95821L6.44764 4.08901C6.55697 3.97968 6.6417 3.85121 6.70184 3.70361C6.76197 3.55601 6.79204 3.40295 6.79204 3.24441C6.79204 2.91641 6.67587 2.63625 6.44354 2.40391C6.2112 2.17158 5.93104 2.05541 5.60304 2.05541C5.4445 2.05541 5.29144 2.08548 5.14384 2.14561C4.99624 2.20575 4.86777 2.29048 4.75844 2.39981L3.88924 3.27721L5.57024 4.95821ZM3.38904 6.64741C3.54757 6.64741 3.70064 6.61735 3.84824 6.55721C3.99584 6.49708 4.1243 6.41235 4.23364 6.30301L5.10284 5.42561L3.42184 3.74461L2.54444 4.61381C2.4351 4.72315 2.35037 4.85161 2.29024 4.99921C2.2301 5.14681 2.20004 5.29988 2.20004 5.45841C2.20004 5.78641 2.3162 6.06658 2.54854 6.29891C2.78087 6.53125 3.06104 6.64741 3.38904 6.64741Z" fill="white"/>
</g>
</svg>
