<svg width="19" height="5" viewBox="0 0 19 5" fill="none" xmlns="http://www.w3.org/2000/svg">
<mask id="mask0_482_855" style="mask-type:alpha" maskUnits="userSpaceOnUse" x="0" y="0" width="19" height="5">
<rect x="0.415283" y="0.39209" width="18.4981" height="3.86715" fill="#D9D9D9"/>
</mask>
<g mask="url(#mask0_482_855)">
<path d="M7.06351 3.77585C5.856 3.77585 4.83154 3.6879 3.99013 3.512C3.14873 3.3361 2.72803 3.12193 2.72803 2.86949C2.72803 2.74864 2.83722 2.63316 3.0556 2.52306C3.27398 2.41295 3.5887 2.31493 3.99977 2.22899L9.20235 1.14136C9.61342 1.05542 10.0823 0.989623 10.609 0.943969C11.1357 0.898315 11.688 0.875488 12.2661 0.875488C13.4736 0.875488 14.4981 0.963439 15.3395 1.13934C16.1809 1.31524 16.6016 1.52941 16.6016 1.78185C16.6016 1.9027 16.4924 2.01818 16.274 2.12829C16.0556 2.23839 15.7409 2.33641 15.3298 2.42235L10.1273 3.50999C9.71619 3.59592 9.24731 3.66172 8.72063 3.70737C8.19395 3.75303 7.64158 3.77585 7.06351 3.77585ZM12.189 2.62376L14.2508 2.19677C14.5077 2.14306 14.7068 2.07995 14.8481 2.00744C14.9894 1.93493 15.0601 1.85973 15.0601 1.78185C15.0601 1.62072 14.7871 1.48309 14.2411 1.36895C13.6952 1.25482 13.0368 1.19775 12.2661 1.19775C11.8936 1.19775 11.5339 1.21252 11.187 1.24206C10.8402 1.2716 10.5383 1.31323 10.2814 1.36694L8.23891 1.79797L12.189 2.62376ZM7.06351 3.45359C7.43604 3.45359 7.79573 3.43882 8.14256 3.40928C8.4894 3.37974 8.79128 3.33811 9.0482 3.2844L11.0907 2.85338L7.14059 2.02758L5.07882 2.45458C4.82191 2.50829 4.62279 2.5714 4.48149 2.64391C4.34019 2.71641 4.26953 2.79161 4.26953 2.86949C4.26953 3.03062 4.54251 3.16825 5.08846 3.28239C5.63441 3.39652 6.29276 3.45359 7.06351 3.45359Z" fill="white"/>
</g>
</svg>
