<svg width="9" height="10" viewBox="0 0 9 10" fill="none" xmlns="http://www.w3.org/2000/svg">
<mask id="mask0_675_318" style="mask-type:alpha" maskUnits="userSpaceOnUse" x="0" y="0" width="9" height="10">
<rect x="0.562012" y="0.855957" width="7.87426" height="8.352" fill="#D9D9D9"/>
</mask>
<g mask="url(#mask0_675_318)">
<path d="M3.39167 8.1639C2.87766 8.1639 2.44157 7.97395 2.0834 7.59405C1.72523 7.21415 1.54614 6.7516 1.54614 6.2064C1.54614 5.9454 1.59262 5.696 1.68558 5.4582C1.77854 5.2204 1.91251 5.0087 2.0875 4.8231L4.30213 2.4741C4.47712 2.2885 4.67671 2.1464 4.90091 2.0478C5.1251 1.9492 5.36024 1.8999 5.60631 1.8999C6.12032 1.8999 6.55642 2.08985 6.91459 2.46975C7.27276 2.84965 7.45184 3.3122 7.45184 3.8574C7.45184 4.1184 7.40536 4.3678 7.3124 4.6056C7.21944 4.8434 7.08547 5.0551 6.91048 5.2407L4.69585 7.5897C4.52086 7.7753 4.32127 7.9174 4.09708 8.016C3.87288 8.1146 3.63774 8.1639 3.39167 8.1639ZM5.5735 5.6757L6.45115 4.7535C6.56052 4.6375 6.64528 4.5012 6.70543 4.3446C6.76558 4.188 6.79565 4.0256 6.79565 3.8574C6.79565 3.5094 6.67945 3.21215 6.44705 2.96565C6.21465 2.71915 5.9344 2.5959 5.60631 2.5959C5.44773 2.5959 5.29462 2.6278 5.14698 2.6916C4.99934 2.7554 4.87083 2.8453 4.76147 2.9613L3.89202 3.8922L5.5735 5.6757ZM3.39167 7.4679C3.55025 7.4679 3.70336 7.436 3.85101 7.3722C3.99865 7.3084 4.12715 7.2185 4.23652 7.1025L5.10597 6.1716L3.42448 4.3881L2.54683 5.3103C2.43747 5.4263 2.35271 5.5626 2.29256 5.7192C2.23241 5.8758 2.20233 6.0382 2.20233 6.2064C2.20233 6.5544 2.31853 6.85165 2.55093 7.09815C2.78333 7.34465 3.06358 7.4679 3.39167 7.4679Z" fill="white"/>
</g>
</svg>
