<svg width="9" height="9" viewBox="0 0 9 9" fill="none" xmlns="http://www.w3.org/2000/svg">
<mask id="mask0_674_481" style="mask-type:alpha" maskUnits="userSpaceOnUse" x="0" y="0" width="9" height="9">
<rect x="0.56781" y="0.415527" width="7.872" height="7.872" fill="#D9D9D9"/>
</mask>
<g mask="url(#mask0_674_481)">
<path d="M3.39691 7.30341C2.88304 7.30341 2.44708 7.12438 2.08901 6.76631C1.73094 6.40825 1.55191 5.97228 1.55191 5.45841C1.55191 5.21241 1.59838 4.97735 1.69131 4.75321C1.78424 4.52908 1.91818 4.32955 2.09311 4.15461L4.30711 1.94061C4.48204 1.76568 4.68158 1.63175 4.90571 1.53881C5.12984 1.44588 5.36491 1.39941 5.61091 1.39941C6.12478 1.39941 6.56074 1.57845 6.91881 1.93651C7.27688 2.29458 7.45591 2.73055 7.45591 3.24441C7.45591 3.49041 7.40944 3.72548 7.31651 3.94961C7.22358 4.17375 7.08964 4.37328 6.91471 4.54821L4.70071 6.76221C4.52578 6.93715 4.32624 7.07108 4.10211 7.16401C3.87798 7.25695 3.64291 7.30341 3.39691 7.30341ZM5.57811 4.95821L6.45551 4.08901C6.56484 3.97968 6.64958 3.85121 6.70971 3.70361C6.76984 3.55601 6.79991 3.40295 6.79991 3.24441C6.79991 2.91641 6.68374 2.63625 6.45141 2.40391C6.21908 2.17158 5.93891 2.05541 5.61091 2.05541C5.45238 2.05541 5.29931 2.08548 5.15171 2.14561C5.00411 2.20575 4.87564 2.29048 4.76631 2.39981L3.89711 3.27721L5.57811 4.95821ZM3.39691 6.64741C3.55544 6.64741 3.70851 6.61735 3.85611 6.55721C4.00371 6.49708 4.13218 6.41235 4.24151 6.30301L5.11071 5.42561L3.42971 3.74461L2.55231 4.61381C2.44298 4.72315 2.35824 4.85161 2.29811 4.99921C2.23798 5.14681 2.20791 5.29988 2.20791 5.45841C2.20791 5.78641 2.32408 6.06658 2.55641 6.29891C2.78874 6.53125 3.06891 6.64741 3.39691 6.64741Z" fill="#454545"/>
</g>
</svg>
