<svg width="9" height="10" viewBox="0 0 9 10" fill="none" xmlns="http://www.w3.org/2000/svg">
<mask id="mask0_675_325" style="mask-type:alpha" maskUnits="userSpaceOnUse" x="0" y="0" width="9" height="10">
<rect x="0.589111" y="0.855957" width="7.87427" height="8.352" fill="#D9D9D9"/>
</mask>
<g mask="url(#mask0_675_325)">
<path d="M3.41902 8.1639C2.905 8.1639 2.46891 7.97395 2.11074 7.59405C1.75257 7.21415 1.57349 6.7516 1.57349 6.2064C1.57349 5.9454 1.61997 5.696 1.71293 5.4582C1.80589 5.2204 1.93986 5.0087 2.11484 4.8231L4.32948 2.4741C4.50446 2.2885 4.70405 2.1464 4.92825 2.0478C5.15245 1.9492 5.38758 1.8999 5.63366 1.8999C6.14767 1.8999 6.58376 2.08985 6.94193 2.46975C7.3001 2.84965 7.47919 3.3122 7.47919 3.8574C7.47919 4.1184 7.43271 4.3678 7.33975 4.6056C7.24679 4.8434 7.11281 5.0551 6.93783 5.2407L4.72319 7.5897C4.54821 7.7753 4.34862 7.9174 4.12442 8.016C3.90022 8.1146 3.66509 8.1639 3.41902 8.1639ZM5.60085 5.6757L6.4785 4.7535C6.58786 4.6375 6.67262 4.5012 6.73277 4.3446C6.79292 4.188 6.823 4.0256 6.823 3.8574C6.823 3.5094 6.7068 3.21215 6.4744 2.96565C6.242 2.71915 5.96175 2.5959 5.63366 2.5959C5.47508 2.5959 5.32197 2.6278 5.17432 2.6916C5.02668 2.7554 4.89818 2.8453 4.78881 2.9613L3.91936 3.8922L5.60085 5.6757ZM3.41902 7.4679C3.5776 7.4679 3.73071 7.436 3.87835 7.3722C4.02599 7.3084 4.1545 7.2185 4.26386 7.1025L5.13331 6.1716L3.45183 4.3881L2.57417 5.3103C2.46481 5.4263 2.38005 5.5626 2.3199 5.7192C2.25975 5.8758 2.22968 6.0382 2.22968 6.2064C2.22968 6.5544 2.34588 6.85165 2.57828 7.09815C2.81068 7.34465 3.09092 7.4679 3.41902 7.4679Z" fill="#454545"/>
</g>
</svg>
