<svg width="34" height="32" viewBox="0 0 34 32" fill="none" xmlns="http://www.w3.org/2000/svg">
<path d="M29.8739 17.8101C28.9333 17.3351 27.8881 17.088 26.862 17.088C24.6291 17.088 22.7478 18.2472 21.9497 20.1095C21.3131 21.5917 21.3986 23.8436 22.1492 25.2213C22.6338 26.1144 23.7265 27.0646 25.3607 27.0646C25.6838 27.0646 26.0163 27.0266 26.3489 26.96C27.2515 26.77 28.5247 25.4208 28.8288 24.3471C29.0568 23.5395 28.1827 22.1618 27.28 21.5157C27.2135 21.4682 27.1375 21.4682 27.0805 21.4682C26.9665 21.4682 26.3964 21.4872 26.1208 21.8388C26.0258 21.9528 25.9213 22.1618 25.9878 22.4658L26.0068 22.5419L26.0638 22.5894C26.6434 23.15 26.9475 23.8246 26.8239 24.2711C26.7384 24.5752 26.4724 24.7842 26.0258 24.8982C25.5983 24.8222 24.9902 24.4612 24.7811 24.2046C24.3916 23.72 24.04 22.5324 24.2015 21.8863C24.4866 20.7461 25.6458 19.948 27.033 19.948C27.9926 19.948 28.8478 20.3565 29.3798 21.0691C30.254 22.2473 30.8811 24.4897 30.368 25.6013C29.7314 26.998 27.9546 28.4518 26.2349 28.9839C25.7978 29.1169 25.3512 29.1834 24.9237 29.1834C23.2514 29.1834 21.6171 28.1477 20.3344 26.2759C18.7857 24.0241 18.7002 21.6582 20.0779 19.4159C20.6575 18.4847 21.4556 17.6486 22.2347 16.841C22.6053 16.4609 22.9854 16.0714 23.3369 15.6723C25.7408 12.9454 26.3204 9.80039 25.0757 6.31335C24.0115 3.32039 21.6646 1.48661 18.2916 0.992531C17.9781 0.945024 17.6645 0.926025 17.351 0.926025C14.377 0.926025 11.5361 2.84532 10.4434 5.58174C9.33175 8.36567 10.1964 11.4061 12.5907 13.1544C13.5029 13.8195 14.6811 14.1806 15.8973 14.1806C17.484 14.1806 18.9377 13.5535 19.8119 12.4988C21.5031 10.4465 21.4936 8.11864 19.7739 6.5794C19.1943 6.05682 18.1871 5.86679 17.4365 5.86679C17.0564 5.86679 16.7239 5.91429 16.4673 5.99031C15.8783 6.18034 14.5956 7.37752 14.5861 8.14714C14.5861 8.44169 14.7476 8.66972 15.0516 8.77423L15.0991 8.79324H15.1466C15.2702 8.79324 15.3462 8.71723 15.4887 8.58421C15.7832 8.29916 16.4008 7.71957 17.2465 7.71957C17.56 7.71957 17.8926 7.80509 18.2156 7.96661C18.4912 8.10913 18.5482 8.45119 18.5577 8.65072C18.5862 9.33482 18.1491 10.323 17.3795 10.7885C16.9519 11.0451 16.2963 11.2066 15.6692 11.2066C15.3082 11.2066 14.9756 11.1591 14.7191 11.0546C13.8069 10.7125 13.1798 9.98092 12.9328 8.98327C12.6288 7.73858 13.0088 6.34186 13.9115 5.3347C14.8141 4.33705 16.0683 3.78596 17.446 3.78596C19.1278 3.78596 20.743 4.62209 21.7597 6.02831C23.0804 7.84309 23.2799 10.1805 22.2917 12.2708C21.2941 14.3991 19.3083 15.7483 16.9899 15.8908C16.8284 15.9003 16.6574 15.9003 16.4864 15.9003C15.2512 15.9003 13.9685 15.6438 12.7333 15.3968C11.9161 15.2352 11.0705 15.0642 10.2439 14.9692C9.90183 14.9312 9.55028 14.9122 9.20823 14.9122C4.81855 14.9122 1.03696 18.1237 0.400366 22.3708C-0.21723 26.5135 2.5572 30.3996 6.71884 31.2262C7.14641 31.3117 7.59298 31.3592 8.02054 31.3592C10.833 31.3592 13.2749 29.611 14.2345 26.903C15.2322 24.1001 14.073 21.1832 11.5931 20.2615C11.042 20.062 10.3864 19.9575 9.6833 19.9575C8.73315 19.9575 7.79251 20.1475 7.02289 20.48C6.05374 20.9076 5.19861 22.5514 5.31263 23.7866C5.45515 25.4398 6.25327 25.8484 7.01339 26.2379L7.0989 26.2854C7.36494 26.4185 7.85902 26.58 8.3816 26.58C9.18922 26.58 9.72131 26.2094 9.87333 25.5348L9.88283 25.5063C9.99685 24.4231 9.09421 23.9671 8.49562 23.6535C8.30559 23.5585 7.98254 23.397 7.96353 23.3115C7.96353 23.188 8.22007 23.1024 8.58113 23.1024C9.42676 23.1024 10.5669 23.53 10.871 24.1381C11.251 24.9172 11.3461 26.2189 10.7665 27.0931C10.1109 28.0717 9.23673 28.5658 8.14406 28.5658C7.32694 28.5658 6.40529 28.2712 5.48365 27.7297C3.31732 26.4375 2.5667 23.473 3.80189 21.1166C5.03708 18.7603 7.1179 17.5916 9.77831 17.7531C12.6858 17.9241 14.8331 19.5299 16.0018 22.3993C16.2678 23.0644 16.4673 23.777 16.6574 24.4612C16.9044 25.3733 17.1705 26.3139 17.598 27.1691C19.1658 30.2761 21.9307 31.9863 25.3892 31.9863C25.5127 31.9863 25.6458 31.9863 25.7693 31.9768C29.3608 31.8533 31.9547 30.029 33.2564 26.7035C34.5676 23.34 33.0854 19.4349 29.8739 17.8101Z" fill="#94BBC4"/>
</svg>
