<svg width="54" height="52" viewBox="0 0 54 52" fill="none" xmlns="http://www.w3.org/2000/svg">
<path d="M29.36 35.3333C34.509 35.3333 37.0841 35.3333 38.683 33.7707C40.2833 32.2093 40.2833 29.6947 40.2833 24.6667C40.2833 19.6387 40.2833 17.124 38.683 15.5627C37.0841 14 34.509 14 29.36 14H23.8984C18.7494 14 16.1743 14 14.5754 15.5627C12.9751 17.124 12.9751 19.6387 12.9751 24.6667C12.9751 29.6947 12.9751 32.2093 14.5754 33.7707C15.467 34.6427 16.6617 35.028 18.4367 35.1973" stroke="#D9D8D8" stroke-width="2.6" stroke-linecap="round" stroke-linejoin="round"/>
<path d="M29.36 35.3335C27.6724 35.3335 25.8127 36.0002 24.1155 36.8602C21.3874 38.2428 20.0234 38.9348 19.3516 38.4935C18.6798 38.0535 18.8068 36.6868 19.0621 33.9548L19.1195 33.3335" stroke="#D9D8D8" stroke-width="2.6" stroke-linecap="round"/>
</svg>
