<svg width="56" height="52" viewBox="0 0 56 52" fill="none" xmlns="http://www.w3.org/2000/svg">
<path d="M30.7086 35.3333C36.0349 35.3333 38.6988 35.3333 40.3528 33.7707C42.0081 32.2093 42.0081 29.6947 42.0081 24.6667C42.0081 19.6387 42.0081 17.124 40.3528 15.5627C38.6988 14 36.0349 14 30.7086 14H25.0588C19.7325 14 17.0686 14 15.4147 15.5627C13.7593 17.124 13.7593 19.6387 13.7593 24.6667C13.7593 29.6947 13.7593 32.2093 15.4147 33.7707C16.337 34.6427 17.5729 35.028 19.409 35.1973" stroke="#D9D8D8" stroke-width="2.6" stroke-linecap="round" stroke-linejoin="round"/>
<path d="M30.7087 35.3334C28.9629 35.3334 27.0391 36 25.2835 36.86C22.4614 38.2427 21.0504 38.9347 20.3554 38.4934C19.6605 38.0534 19.7919 36.6867 20.056 33.9547L20.1153 33.3334" stroke="#D9D8D8" stroke-width="2.6" stroke-linecap="round"/>
</svg>
