<svg width="58" height="52" viewBox="0 0 58 52" fill="none" xmlns="http://www.w3.org/2000/svg">
<path d="M31.8271 35.3333C37.3046 35.3333 40.0441 35.3333 41.7451 33.7707C43.4475 32.2093 43.4475 29.6947 43.4475 24.6667C43.4475 19.6387 43.4475 17.124 41.7451 15.5627C40.0441 14 37.3046 14 31.8271 14H26.0169C20.5393 14 17.7998 14 16.0989 15.5627C14.3965 17.124 14.3965 19.6387 14.3965 24.6667C14.3965 29.6947 14.3965 32.2093 16.0989 33.7707C17.0474 34.6427 18.3184 35.028 20.2067 35.1973" stroke="#D9D8D8" stroke-width="2.6" stroke-linecap="round" stroke-linejoin="round"/>
<path d="M31.8272 35.3335C30.0319 35.3335 28.0535 36.0002 26.248 36.8602C23.3458 38.2428 21.8947 38.9348 21.18 38.4935C20.4654 38.0535 20.6005 36.6868 20.8721 33.9548L20.9331 33.3335" stroke="#D9D8D8" stroke-width="2.6" stroke-linecap="round"/>
</svg>
