<svg width="52" height="53" viewBox="0 0 52 53" fill="none" xmlns="http://www.w3.org/2000/svg">
<path d="M28.6667 36.0277C33.6947 36.0277 36.2094 36.0277 37.7707 34.465C39.3334 32.9037 39.3334 30.389 39.3334 25.361C39.3334 20.333 39.3334 17.8183 37.7707 16.257C36.2094 14.6943 33.6947 14.6943 28.6667 14.6943H23.3334C18.3054 14.6943 15.7907 14.6943 14.2294 16.257C12.6667 17.8183 12.6667 20.333 12.6667 25.361C12.6667 30.389 12.6667 32.9037 14.2294 34.465C15.1 35.337 16.2667 35.7223 18 35.8917" stroke="#D9D8D8" stroke-width="2.6" stroke-linecap="round" stroke-linejoin="round"/>
<path d="M28.6667 36.0277C27.0187 36.0277 25.2027 36.6944 23.5453 37.5544C20.8813 38.937 19.5493 39.629 18.8933 39.1877C18.2373 38.7477 18.3613 37.381 18.6107 34.649L18.6667 34.0277" stroke="#D9D8D8" stroke-width="2.6" stroke-linecap="round"/>
</svg>
