<svg width="18" height="19" viewBox="0 0 18 19" fill="none" xmlns="http://www.w3.org/2000/svg">
<path d="M17.4128 9.99161C17.7908 9.47978 18 8.85267 18 8.2002C18 7.16501 17.4353 6.18515 16.5263 5.63874C16.2922 5.49809 16.0258 5.42407 15.7545 5.42433H10.359L10.494 2.59081C10.5255 1.90607 10.2893 1.2559 9.83025 0.760211C9.60499 0.515889 9.33323 0.321496 9.03176 0.189048C8.73029 0.0565998 8.40551 -0.0110907 8.0775 -0.00984016C6.9075 -0.00984016 5.8725 0.7971 5.562 1.95218L3.62925 9.12242H0.72C0.32175 9.12242 0 9.45211 0 9.86019V18.2524C0 18.6604 0.32175 18.9901 0.72 18.9901H14.2493C14.4563 18.9901 14.6588 18.9486 14.8455 18.8656C15.9165 18.3976 16.6073 17.3255 16.6073 16.1359C16.6073 15.8454 16.5668 15.5595 16.4858 15.2828C16.8638 14.771 17.073 14.1439 17.073 13.4914C17.073 13.2009 17.0325 12.915 16.9515 12.6384C17.3295 12.1265 17.5388 11.4994 17.5388 10.847C17.5343 10.5565 17.4938 10.2683 17.4128 9.99161ZM1.62 17.3302V10.7824H3.4425V17.3302H1.62ZM15.939 9.19158L15.4463 9.62964L15.759 10.2152C15.862 10.4082 15.9155 10.6248 15.9143 10.8447C15.9143 11.2251 15.7523 11.587 15.4733 11.836L14.9805 12.2741L15.2933 12.8597C15.3963 13.0526 15.4497 13.2692 15.4485 13.4891C15.4485 13.8695 15.2865 14.2315 15.0075 14.4805L14.5148 14.9186L14.8275 15.5042C14.9305 15.6971 14.984 15.9137 14.9828 16.1336C14.9828 16.65 14.6858 17.1157 14.2268 17.3278H4.8825V10.7086L7.12125 2.39715C7.17898 2.18412 7.3029 1.99617 7.47424 1.86179C7.64558 1.72741 7.85499 1.65392 8.07075 1.65246C8.24175 1.65246 8.4105 1.70318 8.5455 1.80693C8.76825 1.97754 8.8875 2.23576 8.874 2.51012L8.658 7.08432H15.732C16.1325 7.33562 16.38 7.75984 16.38 8.2002C16.38 8.58062 16.218 8.94028 15.939 9.19158Z" fill="#D6CCC6"/>
</svg>
