<svg width="54" height="38" viewBox="0 0 54 38" fill="none" xmlns="http://www.w3.org/2000/svg">
<path fill-rule="evenodd" clip-rule="evenodd" d="M26.6342 8.8615C34.1978 8.86181 41.4721 11.6243 46.9538 16.5779C47.3665 16.9603 48.0263 16.9555 48.4329 16.5671L52.3787 12.7819C52.5845 12.5849 52.6993 12.318 52.6976 12.0403C52.6959 11.7627 52.5779 11.4971 52.3696 11.3024C37.982 -1.80368 15.284 -1.80368 0.896478 11.3024C0.688058 11.497 0.569818 11.7625 0.567895 12.0401C0.565972 12.3178 0.680535 12.5847 0.886239 12.7819L4.83318 16.5671C5.23948 16.9561 5.89977 16.9609 6.31229 16.5779C11.7946 11.6239 19.0698 8.86148 26.6342 8.8615ZM26.6342 21.1763C30.7899 21.1761 34.7973 22.6443 37.8777 25.2957C38.2944 25.672 38.9507 25.6638 39.3569 25.2773L43.2981 21.4921C43.5057 21.2936 43.6209 21.0242 43.6179 20.7444C43.6149 20.4645 43.494 20.1974 43.2822 20.0029C33.9017 11.7089 19.3747 11.7089 9.99418 20.0029C9.78228 20.1974 9.66139 20.4646 9.65861 20.7446C9.65583 21.0245 9.7714 21.2939 9.97939 21.4921L13.9195 25.2773C14.3257 25.6638 14.982 25.672 15.3986 25.2957C18.477 22.6461 22.4812 21.178 26.6342 21.1763ZM34.5292 29.4621C34.5352 29.7427 34.4191 30.0133 34.2084 30.2099L27.3908 36.7497C27.191 36.9419 26.9185 37.05 26.6342 37.05C26.3499 37.05 26.0774 36.9419 25.8776 36.7497L19.0589 30.2099C18.8483 30.0132 18.7324 29.7425 18.7386 29.4618C18.7449 29.1811 18.8727 28.9154 19.0919 28.7272C23.4458 25.2269 29.8226 25.2269 34.1765 28.7272C34.3956 28.9155 34.5232 29.1814 34.5292 29.4621Z" fill="black"/>
<path d="M46.9538 16.5779L47.2936 16.2111L47.289 16.2069L46.9538 16.5779ZM26.6342 8.8615L26.6342 8.3615L26.6342 8.3615L26.6342 8.8615ZM48.4329 16.5671L48.7783 16.9286L48.779 16.9279L48.4329 16.5671ZM52.3787 12.7819L52.033 12.4206L52.0326 12.421L52.3787 12.7819ZM52.3696 11.3024L52.7111 10.9371L52.7063 10.9328L52.3696 11.3024ZM0.896478 11.3024L0.559744 10.9327L0.555285 10.9369L0.896478 11.3024ZM0.886239 12.7819L1.23232 12.421L1.23221 12.4209L0.886239 12.7819ZM4.83318 16.5671L4.4871 16.9279L4.4874 16.9282L4.83318 16.5671ZM6.31229 16.5779L5.97704 16.2069L5.97208 16.2115L6.31229 16.5779ZM37.8777 25.2957L38.213 24.9245L38.2039 24.9167L37.8777 25.2957ZM26.6342 21.1763L26.6342 20.6763L26.634 20.6763L26.6342 21.1763ZM39.3569 25.2773L39.7016 25.6395L39.7032 25.6379L39.3569 25.2773ZM43.2981 21.4921L42.9525 21.1308L42.9518 21.1315L43.2981 21.4921ZM43.6179 20.7444L43.1179 20.7497L43.1179 20.7497L43.6179 20.7444ZM43.2822 20.0029L43.6205 19.6346L43.6134 19.6283L43.2822 20.0029ZM9.99418 20.0029L9.66293 19.6283L9.65608 19.6346L9.99418 20.0029ZM9.97939 21.4921L10.3258 21.1315L10.3244 21.1302L9.97939 21.4921ZM13.9195 25.2773L13.5731 25.6379L13.5748 25.6395L13.9195 25.2773ZM15.3986 25.2957L15.0724 24.9166L15.0635 24.9246L15.3986 25.2957ZM34.2084 30.2099L33.8673 29.8443L33.8622 29.8491L34.2084 30.2099ZM34.5292 29.4621L35.0291 29.4513L35.0291 29.4513L34.5292 29.4621ZM27.3908 36.7497L27.0447 36.3888L27.0442 36.3893L27.3908 36.7497ZM25.8776 36.7497L26.2242 36.3893L26.2237 36.3888L25.8776 36.7497ZM19.0589 30.2099L19.405 29.8491L19.4002 29.8446L19.0589 30.2099ZM18.7386 29.4618L18.2388 29.4507L18.2388 29.4507L18.7386 29.4618ZM19.0919 28.7272L18.7786 28.3375L18.7724 28.3426L18.7663 28.3478L19.0919 28.7272ZM34.1765 28.7272L34.5024 28.3481L34.4962 28.3427L34.4898 28.3375L34.1765 28.7272ZM47.289 16.2069C41.7131 11.1681 34.3184 8.36182 26.6342 8.3615L26.6342 9.3615C34.0771 9.36181 41.2312 12.0804 46.6185 16.9488L47.289 16.2069ZM48.0875 16.2055C47.8723 16.4111 47.5127 16.4141 47.2936 16.2111L46.614 16.9446C47.2204 17.5065 48.1804 17.4998 48.7783 16.9286L48.0875 16.2055ZM52.0326 12.421L48.0867 16.2062L48.779 16.9279L52.7248 13.1427L52.0326 12.421ZM52.1976 12.0434C52.1985 12.1796 52.1424 12.3159 52.033 12.4206L52.7244 13.1431C53.0266 12.8538 53.2002 12.4564 53.1976 12.0373L52.1976 12.0434ZM52.0281 11.6676C52.1391 11.7714 52.1968 11.9072 52.1976 12.0434L53.1976 12.0373C53.195 11.6181 53.0166 11.2228 52.7111 10.9372L52.0281 11.6676ZM1.23319 11.672C15.4299 -1.26023 37.8362 -1.26023 52.0329 11.672L52.7063 10.9328C38.1279 -2.34714 15.1381 -2.34714 0.559769 10.9328L1.23319 11.672ZM1.06788 12.0436C1.06883 11.9074 1.12664 11.7715 1.23767 11.6679L0.555285 10.9369C0.249477 11.2224 0.070809 11.6175 0.0679069 12.0367L1.06788 12.0436ZM1.23221 12.4209C1.12284 12.3161 1.06694 12.1797 1.06788 12.0436L0.0679069 12.0367C0.0650046 12.4558 0.238229 12.8534 0.540269 13.1428L1.23221 12.4209ZM5.17927 16.2062L1.23232 12.421L0.540158 13.1427L4.4871 16.9279L5.17927 16.2062ZM5.97208 16.2115C5.75333 16.4146 5.39382 16.4116 5.17897 16.2059L4.4874 16.9282C5.08514 17.5005 6.04622 17.5072 6.65251 16.9443L5.97208 16.2115ZM26.6342 8.3615C18.9492 8.36148 11.5537 11.1678 5.97707 16.2069L6.64752 16.9489C12.0356 12.0801 19.1905 9.36148 26.6342 9.3615L26.6342 8.3615ZM38.2039 24.9167C35.0305 22.1853 30.9067 20.6761 26.6342 20.6763L26.6342 21.6763C30.6732 21.6761 34.5641 23.1033 37.5516 25.6747L38.2039 24.9167ZM39.0122 24.9151C38.7958 25.121 38.4359 25.126 38.2129 24.9246L37.5426 25.6668C38.1529 26.2179 39.1056 26.2067 39.7016 25.6395L39.0122 24.9151ZM42.9518 21.1315L39.0105 24.9167L39.7032 25.6379L43.6445 21.8527L42.9518 21.1315ZM43.1179 20.7497C43.1194 20.8872 43.0631 21.025 42.9525 21.1308L43.6437 21.8534C43.9483 21.5621 44.1223 21.1612 44.1178 20.739L43.1179 20.7497ZM42.944 20.3712C43.0571 20.4751 43.1164 20.6121 43.1179 20.7497L44.1178 20.739C44.1133 20.3168 43.9308 19.9197 43.6204 19.6347L42.944 20.3712ZM10.3254 20.3775C19.5168 12.2507 33.7596 12.2507 42.951 20.3775L43.6134 19.6283C34.0437 11.1671 19.2326 11.1671 9.66299 19.6283L10.3254 20.3775ZM10.1586 20.7495C10.1599 20.6121 10.2191 20.4751 10.3323 20.3713L9.65608 19.6346C9.34543 19.9197 9.16282 20.3171 9.15863 20.7396L10.1586 20.7495ZM10.3244 21.1302C10.2136 21.0246 10.1572 20.887 10.1586 20.7495L9.15863 20.7396C9.15444 21.1621 9.32916 21.5631 9.63441 21.854L10.3244 21.1302ZM14.2659 24.9167L10.3258 21.1315L9.633 21.8527L13.5731 25.6379L14.2659 24.9167ZM15.0635 24.9246C14.8405 25.126 14.4805 25.121 14.2642 24.9151L13.5748 25.6395C14.1708 26.2067 15.1235 26.2179 15.7338 25.6668L15.0635 24.9246ZM26.634 20.6763C22.3644 20.678 18.2437 22.1871 15.0725 24.9167L15.7248 25.6747C18.7103 23.105 22.5981 21.6779 26.6344 21.6763L26.634 20.6763ZM34.5494 30.5756C34.8611 30.2848 35.0383 29.8786 35.0291 29.4513L34.0293 29.4728C34.0322 29.6068 33.9771 29.7418 33.8673 29.8443L34.5494 30.5756ZM27.7369 37.1105L34.5545 30.5708L33.8622 29.8491L27.0447 36.3888L27.7369 37.1105ZM26.6342 37.55C27.0441 37.55 27.4418 37.3943 27.7374 37.11L27.0442 36.3893C26.9401 36.4894 26.7929 36.55 26.6342 36.55V37.55ZM25.531 37.1101C25.8266 37.3943 26.2243 37.55 26.6342 37.55V36.55C26.4755 36.55 26.3283 36.4894 26.2242 36.3893L25.531 37.1101ZM18.7128 30.5708L25.5315 37.1105L26.2237 36.3888L19.405 29.8491L18.7128 30.5708ZM18.2388 29.4507C18.2293 29.878 18.4061 30.2843 18.7176 30.5753L19.4002 29.8446C19.2905 29.742 19.2355 29.607 19.2385 29.4729L18.2388 29.4507ZM18.7663 28.3478C18.4429 28.6254 18.2483 29.0235 18.2388 29.4507L19.2385 29.4729C19.2415 29.3388 19.3025 29.2054 19.4175 29.1066L18.7663 28.3478ZM34.4898 28.3375C29.9529 24.6901 23.3155 24.6901 18.7786 28.3375L19.4052 29.1169C23.5762 25.7636 29.6922 25.7636 33.8632 29.1169L34.4898 28.3375ZM35.0291 29.4513C35.0199 29.0241 34.8256 28.6258 34.5024 28.3481L33.8506 29.1064C33.9655 29.2052 34.0264 29.3387 34.0293 29.4728L35.0291 29.4513Z" fill="black"/>
</svg>
