<svg width="18" height="18" viewBox="0 0 18 18" fill="none" xmlns="http://www.w3.org/2000/svg">
<path d="M2.24414 8.68206C2.24414 7.45806 2.55014 6.32406 3.15614 5.28606C3.76214 4.24806 4.58414 3.42606 5.62214 2.82006C6.66014 2.21406 7.78814 1.91406 9.00614 1.91406C9.91814 1.91406 10.7941 2.09406 11.6281 2.44806C12.4621 2.80206 13.1761 3.28806 13.7821 3.88806C14.3881 4.48806 14.8681 5.20806 15.2221 6.04806C15.5761 6.88806 15.7561 7.75806 15.7561 8.68206C15.7561 9.59406 15.5761 10.4701 15.2221 11.3041C14.8681 12.1381 14.3821 12.8581 13.7821 13.4581C13.1821 14.0581 12.4621 14.5381 11.6281 14.8921C10.7941 15.2461 9.92414 15.4261 9.00614 15.4261C8.08814 15.4261 7.20614 15.2461 6.37214 14.8921C5.53814 14.5381 4.81814 14.0521 4.21214 13.4521C3.60614 12.8521 3.13214 12.1321 2.77214 11.3041C2.41214 10.4761 2.24414 9.60006 2.24414 8.68206ZM3.73214 8.68206C3.73214 10.1041 4.24814 11.3401 5.28614 12.3901C6.32414 13.4281 7.56014 13.9441 9.00614 13.9441C9.95414 13.9441 10.8361 13.7101 11.6401 13.2361C12.4441 12.7621 13.0921 12.1261 13.5661 11.3161C14.0401 10.5061 14.2801 9.63006 14.2801 8.68206C14.2801 7.73406 14.0401 6.85206 13.5661 6.04206C13.0921 5.23206 12.4501 4.59006 11.6401 4.11606C10.8301 3.64206 9.95414 3.40806 9.00614 3.40806C8.05814 3.40806 7.17614 3.64206 6.37214 4.11606C5.56814 4.59006 4.92014 5.23206 4.44014 6.04206C3.96014 6.85206 3.73214 7.73406 3.73214 8.68206ZM8.48414 8.68206V4.68606C8.48414 4.54806 8.53214 4.42806 8.62814 4.33206C8.72414 4.23606 8.84414 4.18806 8.98214 4.18806C9.12014 4.18806 9.24014 4.23606 9.33614 4.33206C9.43214 4.42806 9.48014 4.54806 9.48014 4.68606V7.81206L11.1481 6.87006C11.2681 6.79806 11.3941 6.78006 11.5261 6.81606C11.6581 6.85206 11.7601 6.93606 11.8261 7.06206C11.8981 7.18206 11.9101 7.30806 11.8741 7.44006C11.8381 7.57206 11.7601 7.68006 11.6401 7.74606L9.31214 9.04806C9.22124 9.13357 9.10093 9.18083 8.97614 9.18006C8.91072 9.18114 8.84576 9.16896 8.78519 9.14423C8.72461 9.11951 8.66967 9.08277 8.62369 9.03623C8.57771 8.98969 8.54164 8.93431 8.51765 8.87343C8.49367 8.81256 8.48227 8.74746 8.48414 8.68206Z" fill="#D9D8D8"/>
</svg>
